<svg width="48" height="48" viewBox="0 0 48 48" fill="none" xmlns="http://www.w3.org/2000/svg">
<path d="M24 48C37.2548 48 48 37.2548 48 24C48 10.7452 37.2548 0 24 0C10.7452 0 0 10.7452 0 24C0 37.2548 10.7452 48 24 48Z" fill="#E8F8FE"/>
<path d="M15.5 29.5V18.5C15.5 16.8 16.9 15.5 18.5 15.5H29.5C31.2 15.5 32.5 16.9 32.5 18.5V27.6H34.5V18.5C34.5 15.7 32.2 13.5 29.5 13.5H18.5C15.7 13.5 13.5 15.8 13.5 18.5V29.5C13.5 32.3 15.8 34.5 18.5 34.5H27.6V32.5H18.5C16.9 32.6 15.5 31.2 15.5 29.5Z" fill="#00ADEF"/>
<path d="M30 18.8H18.3V20.8H30V18.8Z" fill="#00ADEF"/>
<path d="M30 23H18.3V25H30V23Z" fill="#00ADEF"/>
<path d="M30 27.2H18.3V29.2H30V27.2Z" fill="#00ADEF"/>
<path d="M37.4 32.6H34.6V29.8H32.6V32.6H29.8V34.6H32.6V37.3H34.6V34.6H37.4V32.6Z" fill="#00ADEF"/>
</svg>
