<svg width="48" height="48" viewBox="0 0 48 48" fill="none" xmlns="http://www.w3.org/2000/svg">
<path d="M24 48C37.2548 48 48 37.2548 48 24C48 10.7452 37.2548 0 24 0C10.7452 0 0 10.7452 0 24C0 37.2548 10.7452 48 24 48Z" fill="#F6F6F6"/>
<path fill-rule="evenodd" clip-rule="evenodd" d="M23 26V18H25V26H23Z" fill="#888888"/>
<path fill-rule="evenodd" clip-rule="evenodd" d="M23 30V28H25V30H23Z" fill="#888888"/>
<path fill-rule="evenodd" clip-rule="evenodd" d="M24 15C19.0294 15 15 19.0294 15 24C15 28.9706 19.0294 33 24 33C28.9706 33 33 28.9706 33 24C33 19.0294 28.9706 15 24 15ZM13 24C13 17.9249 17.9249 13 24 13C30.0751 13 35 17.9249 35 24C35 30.0751 30.0751 35 24 35C17.9249 35 13 30.0751 13 24Z" fill="#888888"/>
</svg>
