<svg width="48" height="48" viewBox="0 0 48 48" fill="none" xmlns="http://www.w3.org/2000/svg">
<path d="M38.2041 0H9.79592C4.38578 0 0 4.38578 0 9.79592V38.2041C0 43.6142 4.38578 48 9.79592 48H38.2041C43.6142 48 48 43.6142 48 38.2041V9.79592C48 4.38578 43.6142 0 38.2041 0Z" fill="url(#paint0_linear)"/>
<path d="M9.60289 22.6325C9.7413 22.8032 9.94155 22.9124 10.16 22.9363C10.3785 22.9601 10.5976 22.8967 10.7696 22.7598L11.5386 22.1417V35.0517C11.5394 35.451 11.6982 35.8337 11.9803 36.1162C12.2624 36.3987 12.6449 36.558 13.0442 36.5593H34.4571C34.8566 36.5583 35.2395 36.3991 35.522 36.1166C35.8045 35.8341 35.9637 35.4513 35.9647 35.0517V22.1682L36.7102 22.7677C36.858 22.8846 37.0409 22.9484 37.2293 22.9489C37.3543 22.949 37.4776 22.9206 37.5898 22.8657C37.702 22.8109 37.8002 22.7311 37.8769 22.6325C38.0141 22.4603 38.0777 22.2408 38.0539 22.0219C38.03 21.803 37.9206 21.6024 37.7495 21.4638L24.6436 10.9264L24.3428 10.7765C24.1551 10.694 23.9523 10.6515 23.7472 10.6515C23.5422 10.6515 23.3394 10.694 23.1517 10.7765L22.8362 10.9225L9.73123 21.4609C9.56049 21.5993 9.45132 21.7995 9.42747 22.018C9.40362 22.2365 9.46702 22.4556 9.60388 22.6276" fill="white"/>
<path d="M29.0047 30.2547C29.424 30.0864 29.8019 29.8294 30.1126 29.5014C30.4178 29.1744 30.6558 28.7906 30.813 28.3719C30.9867 27.9358 31.0735 27.4699 31.0687 27.0005C31.0774 26.526 30.9905 26.0545 30.813 25.6144C30.6554 25.2002 30.4173 24.8214 30.1126 24.4996C29.7993 24.173 29.4222 23.9142 29.0047 23.7394C28.5473 23.5572 28.059 23.465 27.5667 23.4681H25.5408V30.5633H27.5667C28.0614 30.5537 28.5496 30.449 29.0047 30.2547ZM27.5667 21.3296C28.3476 21.3251 29.1221 21.4708 29.8481 21.7587C30.5364 22.0437 31.1651 22.4554 31.7015 22.9724C32.2307 23.487 32.6529 24.1013 32.9436 24.7798C33.2482 25.4803 33.3998 26.2377 33.3884 27.0015C33.3961 27.7649 33.2446 28.5215 32.9436 29.2232C32.6429 29.8964 32.222 30.5092 31.7015 31.0315C31.1718 31.5511 30.5409 31.9562 29.8481 32.2217C29.1264 32.5258 28.3497 32.6772 27.5667 32.6664H23.2212V21.3296H27.5667Z" fill="#231F20"/>
<path d="M17.5807 26.0229C17.2517 26.0225 16.9329 25.9081 16.6788 25.6991C16.4246 25.4902 16.2508 25.1995 16.1869 24.8768C16.123 24.554 16.173 24.2191 16.3283 23.929C16.4836 23.639 16.7347 23.4117 17.0388 23.286C17.3428 23.1603 17.6811 23.1439 17.9959 23.2396C18.3107 23.3353 18.5826 23.5372 18.7652 23.8108C18.9479 24.0845 19.03 24.413 18.9977 24.7404C18.9653 25.0679 18.8204 25.374 18.5877 25.6065C18.4554 25.7387 18.2984 25.8434 18.1256 25.9149C17.9528 25.9863 17.7676 26.023 17.5807 26.0229ZM17.5807 21.1347C16.8953 21.1345 16.2253 21.3376 15.6554 21.7182C15.0854 22.0989 14.6412 22.64 14.3788 23.2731C14.1164 23.9063 14.0477 24.603 14.1814 25.2752C14.3151 25.9474 14.6451 26.5649 15.1297 27.0495C15.6143 27.5341 16.2318 27.8642 16.904 27.9978C17.5762 28.1315 18.2729 28.0628 18.9061 27.8004C19.5392 27.538 20.0804 27.0938 20.461 26.5239C20.8416 25.9539 21.0447 25.2839 21.0445 24.5985C21.0443 23.68 20.6792 22.7991 20.0297 22.1495C19.3801 21.5 18.4993 21.135 17.5807 21.1347Z" fill="#231F20"/>
<defs>
<linearGradient id="paint0_linear" x1="24" y1="0" x2="24" y2="48" gradientUnits="userSpaceOnUse">
<stop stop-color="#7FB0F8"/>
<stop offset="1" stop-color="#D5D3FF"/>
</linearGradient>
</defs>
</svg>
