<svg width="120" height="120" viewBox="0 0 120 120" fill="none" xmlns="http://www.w3.org/2000/svg">
<path d="M95.5102 0H24.4898C10.9645 0 0 10.9645 0 24.4898V95.5102C0 109.036 10.9645 120 24.4898 120H95.5102C109.036 120 120 109.036 120 95.5102V24.4898C120 10.9645 109.036 0 95.5102 0Z" fill="url(#paint0_linear)"/>
<path d="M24.0056 56.5815C24.3516 57.0083 24.8522 57.2813 25.3984 57.3409C25.9447 57.4005 26.4924 57.242 26.9223 56.8999L28.8448 55.3545V87.6296C28.8467 88.6278 29.2437 89.5846 29.9491 90.2909C30.6544 90.9971 31.6107 91.3954 32.6088 91.3986H86.1411C87.1399 91.396 88.097 90.9981 88.8033 90.2919C89.5096 89.5856 89.9075 88.6284 89.9101 87.6296V55.4207L91.7737 56.9194C92.1433 57.2117 92.6004 57.3713 93.0717 57.3725C93.3839 57.3728 93.6922 57.3017 93.9728 57.1646C94.2533 57.0275 94.4988 56.8281 94.6905 56.5815C95.0335 56.151 95.1926 55.6023 95.133 55.0551C95.0733 54.5079 94.7998 54.0064 94.3721 53.6599L61.6072 27.3162L60.8553 26.9415C60.386 26.7354 59.879 26.6289 59.3664 26.6289C58.8537 26.6289 58.3468 26.7354 57.8774 26.9415L57.0888 27.3064L24.3264 53.6525C23.8995 53.9985 23.6266 54.4991 23.567 55.0453C23.5074 55.5916 23.6659 56.1393 24.008 56.5692" fill="white"/>
<path d="M72.5095 75.6371C73.5577 75.2163 74.5026 74.5739 75.2794 73.7538C76.0423 72.9363 76.6372 71.977 77.0304 70.9302C77.4645 69.8398 77.6815 68.6752 77.6695 67.5016C77.6913 66.3153 77.4739 65.1368 77.0304 64.0363C76.6362 63.0009 76.0411 62.0538 75.2794 61.2494C74.496 60.4328 73.5532 59.786 72.5095 59.349C71.3661 58.8933 70.1453 58.6629 68.9145 58.6706H63.8499V76.4085H68.9145C70.1513 76.3847 71.3718 76.1228 72.5095 75.6371ZM68.9145 53.3245C70.8669 53.3132 72.8032 53.6774 74.6181 54.3971C76.3388 55.1097 77.9105 56.139 79.2515 57.4314C80.5746 58.718 81.6299 60.2536 82.3569 61.9498C83.1183 63.7011 83.4974 65.5946 83.4687 67.504C83.488 69.4126 83.1093 71.3043 82.3569 73.0583C81.6052 74.7415 80.5528 76.2735 79.2515 77.5792C77.9273 78.8781 76.3502 79.8909 74.6181 80.5547C72.8139 81.3148 70.872 81.6933 68.9145 81.6665H58.0508V53.3245H68.9145Z" fill="#231F20"/>
<path d="M43.9497 65.0573C43.1271 65.0564 42.3303 64.7704 41.6949 64.248C41.0596 63.7255 40.6251 62.999 40.4653 62.1921C40.3055 61.3852 40.4304 60.5479 40.8187 59.8227C41.207 59.0976 41.8348 58.5295 42.5949 58.2152C43.3551 57.901 44.2007 57.86 44.9877 58.0992C45.7747 58.3384 46.4544 58.8431 46.911 59.5272C47.3677 60.2114 47.5731 61.0327 47.4921 61.8513C47.4112 62.6698 47.0491 63.435 46.4673 64.0165C46.1366 64.3468 45.7439 64.6088 45.312 64.7873C44.88 64.9659 44.4171 65.0577 43.9497 65.0573ZM43.9497 52.8369C42.2363 52.8364 40.5612 53.3441 39.1364 54.2957C37.7115 55.2473 36.6009 56.6001 35.945 58.183C35.2891 59.7659 35.1173 61.5077 35.4515 63.1882C35.7856 64.8687 36.6107 66.4124 37.8222 67.6239C39.0338 68.8355 40.5774 69.6605 42.2579 69.9947C43.9384 70.3288 45.6803 70.1571 47.2632 69.5012C48.8461 68.8452 50.1989 67.7346 51.1505 66.3098C52.1021 64.8849 52.6098 63.2099 52.6093 61.4965C52.6086 59.2 51.696 56.9978 50.0722 55.374C48.4483 53.7501 46.2461 52.8376 43.9497 52.8369Z" fill="#231F20"/>
<defs>
<linearGradient id="paint0_linear" x1="60" y1="0" x2="60" y2="120" gradientUnits="userSpaceOnUse">
<stop stop-color="#7FB0F8"/>
<stop offset="1" stop-color="#D5D3FF"/>
</linearGradient>
</defs>
</svg>
