<svg width="40" height="25" viewBox="0 0 40 25" fill="none" xmlns="http://www.w3.org/2000/svg">
<g clip-path="url(#clip0)">
<path d="M35.554 2.64083e-09H3.09698C2.98398 2.64083e-09 2.87203 -2.56319e-05 2.75903 0.00497437C2.5131 0.00779232 2.26773 0.0292124 2.02502 0.0690002C1.78169 0.110971 1.54582 0.188445 1.32501 0.298981C1.10378 0.410931 0.901376 0.556687 0.725037 0.730988C0.550258 0.906694 0.404718 1.10927 0.294006 1.33099C0.182562 1.55143 0.105042 1.7874 0.0640259 2.03098C0.0233936 2.27359 0.00165914 2.519 -0.000976562 2.76498C-0.000976562 2.87798 -0.000981445 2.98999 -0.00598145 3.10199C-0.00598145 3.23599 -0.00598145 3.36898 -0.00598145 3.50198V21.508C-0.00598145 21.641 -0.00598145 21.775 -0.00598145 21.908C-0.00598145 22.021 -0.00597656 22.133 -0.000976562 22.246C0.00170682 22.4916 0.0234411 22.7367 0.0640259 22.979C0.104982 23.2226 0.182505 23.4586 0.294006 23.679C0.518655 24.1211 0.877935 24.4803 1.32001 24.705C1.54059 24.8163 1.77652 24.8941 2.02002 24.936C2.26273 24.9758 2.5081 24.9972 2.75403 25C2.86703 25 2.97904 25 3.09204 25.005H35.949C36.062 25.005 36.174 25.005 36.287 25C36.5329 24.9972 36.7783 24.9758 37.021 24.936C37.2645 24.8941 37.5004 24.8163 37.721 24.705C37.9428 24.594 38.1454 24.4482 38.321 24.273C38.4954 24.0989 38.6411 23.8985 38.753 23.679C38.8641 23.4585 38.9413 23.2225 38.982 22.979C39.022 22.7366 39.0438 22.4916 39.047 22.246C39.047 22.133 39.047 22.021 39.047 21.908C39.047 21.775 39.047 21.641 39.047 21.508V3.49698C39.047 3.36298 39.047 3.22998 39.047 3.09698C39.047 2.98498 39.047 2.87298 39.047 2.75998C39.0438 2.51403 39.0221 2.26866 38.982 2.02597C38.9413 1.78246 38.8641 1.54649 38.753 1.32599C38.528 0.883597 38.1684 0.524003 37.726 0.298981C37.5052 0.188445 37.2693 0.110971 37.026 0.0690002C36.7833 0.0292124 36.5379 0.00779232 36.292 0.00497437C36.179 0.00497437 36.067 2.64083e-09 35.954 2.64083e-09H35.554Z" fill="black"/>
<path d="M35.554 0.833008H35.948C36.055 0.833008 36.162 0.833013 36.269 0.838013C36.4733 0.840294 36.6772 0.857333 36.879 0.889008C37.0417 0.916604 37.1994 0.968179 37.347 1.04202C37.4879 1.11438 37.6168 1.20815 37.729 1.32001C37.842 1.43259 37.9362 1.56259 38.008 1.70502C38.0824 1.85193 38.1337 2.00947 38.16 2.17203C38.1926 2.37343 38.21 2.57699 38.212 2.78101C38.212 2.88701 38.212 2.99302 38.217 3.10202C38.217 3.23302 38.217 3.365 38.217 3.496V21.502C38.217 21.633 38.217 21.764 38.217 21.902C38.217 22.008 38.217 22.114 38.212 22.22C38.2099 22.4247 38.1926 22.6289 38.16 22.831C38.1336 22.9932 38.0823 23.1504 38.008 23.297C37.8629 23.5825 37.6307 23.8143 37.345 23.959C37.1987 24.0331 37.0419 24.0844 36.88 24.111C36.6792 24.1427 36.4763 24.1601 36.273 24.163C36.165 24.163 36.058 24.163 35.948 24.163H3.10303C2.99503 24.163 2.888 24.163 2.784 24.163C2.57968 24.1603 2.37584 24.1429 2.17401 24.111C2.01112 24.0842 1.85327 24.0326 1.70599 23.958C1.42125 23.8132 1.18986 23.5818 1.04504 23.297C0.971259 23.1492 0.919986 22.991 0.893005 22.828C0.860493 22.6269 0.843109 22.4237 0.841003 22.22C0.841003 22.113 0.841003 22.007 0.841003 21.901V3.10101C0.841003 2.99401 0.841003 2.88701 0.841003 2.78101C0.843188 2.57666 0.860572 2.37278 0.893005 2.17102C0.920178 2.00821 0.971774 1.85042 1.04602 1.703C1.19078 1.41822 1.42224 1.18678 1.70703 1.04202C1.85427 0.968191 2.01163 0.916614 2.17401 0.889008C2.37585 0.857336 2.5797 0.840297 2.784 0.838013C2.891 0.838013 2.998 0.838008 3.104 0.833008H35.556" fill="white"/>
<path d="M10.661 8.40796C10.8344 8.39681 11.0006 8.33441 11.1384 8.22867C11.2763 8.12293 11.3797 7.97863 11.4354 7.81406C11.4912 7.64949 11.4967 7.47208 11.4515 7.30432C11.4062 7.13657 11.3122 6.98603 11.1812 6.87183C11.0503 6.75762 10.8884 6.68489 10.716 6.66284C10.5437 6.6408 10.3686 6.67047 10.2131 6.74805C10.0577 6.82563 9.9288 6.94761 9.84278 7.09857C9.75677 7.24954 9.71753 7.42265 9.73005 7.59595C9.54937 7.79811 9.41084 8.03429 9.32258 8.29065C9.23432 8.54702 9.19807 8.81842 9.21601 9.08896C9.49304 9.09432 9.76756 9.03566 10.0182 8.91754C10.2688 8.79942 10.4888 8.62503 10.661 8.40796Z" fill="black"/>
<path d="M11.156 9.19697C10.356 9.14897 9.68002 9.64997 9.29902 9.64997C8.91802 9.64997 8.33405 9.22097 7.69905 9.23197C7.28868 9.24253 6.8882 9.36021 6.53737 9.57334C6.18653 9.78647 5.89754 10.0876 5.69905 10.447C4.84205 11.925 5.47302 14.117 6.30702 15.321C6.71202 15.921 7.20003 16.5719 7.84303 16.5479C8.45003 16.5239 8.68801 16.155 9.42701 16.155C10.166 16.155 10.3791 16.548 11.0271 16.536C11.6941 16.524 12.111 15.9359 12.516 15.3449C12.8026 14.9226 13.027 14.4612 13.182 13.975C12.7983 13.8079 12.4713 13.5332 12.2406 13.1841C12.0099 12.8349 11.8853 12.4264 11.882 12.008C11.8874 11.6369 11.9861 11.2732 12.1691 10.9504C12.3521 10.6276 12.6134 10.3561 12.929 10.161C12.7273 9.87479 12.4623 9.63896 12.1546 9.47178C11.847 9.3046 11.5049 9.21057 11.155 9.19697" fill="black"/>
<path d="M18.103 7.53595C18.4942 7.51559 18.8853 7.57757 19.2511 7.71783C19.6169 7.8581 19.9491 8.07354 20.2264 8.35025C20.5037 8.62696 20.7198 8.95878 20.8608 9.32425C21.0018 9.68972 21.0646 10.0807 21.045 10.472C21.0612 10.8667 20.9947 11.2604 20.8499 11.6279C20.705 11.9955 20.485 12.3287 20.2039 12.6062C19.9227 12.8837 19.5868 13.0995 19.2174 13.2396C18.8481 13.3798 18.4535 13.4412 18.059 13.42H16.139V16.474H14.753V7.53595H18.103ZM16.139 12.2559H17.731C17.9734 12.2716 18.2164 12.2374 18.4451 12.1555C18.6737 12.0736 18.8832 11.9457 19.0605 11.7798C19.2378 11.6138 19.3792 11.4132 19.4761 11.1905C19.5729 10.9677 19.6231 10.7275 19.6235 10.4846C19.6239 10.2418 19.5745 10.0014 19.4785 9.77832C19.3824 9.55525 19.2416 9.35422 19.0649 9.18765C18.8881 9.02108 18.6791 8.89249 18.4507 8.80981C18.2223 8.72714 17.9794 8.69212 17.737 8.70694H16.137L16.139 12.2559Z" fill="black"/>
<path d="M21.408 14.6219C21.408 13.4819 22.282 12.7829 23.83 12.6959L25.614 12.5909V12.0909C25.614 11.3659 25.125 10.9329 24.307 10.9329C24.0005 10.8933 23.6902 10.9689 23.4362 11.1449C23.1821 11.321 23.0025 11.585 22.932 11.8859H21.668C21.743 10.7089 22.746 9.84192 24.357 9.84192C25.936 9.84192 26.946 10.6789 26.946 11.9849V16.4759H25.663V15.4049H25.633C25.4275 15.7682 25.1281 16.0697 24.7663 16.2778C24.4045 16.4859 23.9934 16.593 23.576 16.5879C23.3017 16.6147 23.0248 16.5838 22.7631 16.4972C22.5015 16.4106 22.2608 16.2702 22.0566 16.0851C21.8525 15.8999 21.6893 15.6741 21.5776 15.4221C21.4659 15.1701 21.4081 14.8975 21.408 14.6219ZM25.614 14.0339V13.5199L24.014 13.6199C23.214 13.6759 22.763 14.0289 22.763 14.5859C22.763 15.1429 23.233 15.5269 23.952 15.5269C24.1597 15.5404 24.368 15.5123 24.5647 15.4442C24.7614 15.3761 24.9424 15.2693 25.0972 15.1302C25.2521 14.9911 25.3776 14.8225 25.4663 14.6342C25.5551 14.446 25.6053 14.2419 25.614 14.0339Z" fill="black"/>
<path d="M28.156 18.871V17.785C28.2996 17.8061 28.4449 17.8145 28.59 17.81C28.865 17.8313 29.1377 17.7471 29.3528 17.5746C29.5679 17.402 29.7092 17.154 29.748 16.881C29.748 16.869 29.866 16.481 29.866 16.481L27.512 9.95898H28.961L30.609 15.259H30.634L32.281 9.95898H33.694L31.253 16.816C30.696 18.395 30.053 18.903 28.701 18.903C28.5189 18.9021 28.337 18.8914 28.156 18.871Z" fill="black"/>
</g>
<defs>
<clipPath id="clip0">
<rect width="39.051" height="25" fill="white"/>
</clipPath>
</defs>
</svg>
