<svg width="48" height="48" viewBox="0 0 48 48" fill="none" xmlns="http://www.w3.org/2000/svg">
<path d="M24 48C37.2548 48 48 37.2548 48 24C48 10.7452 37.2548 0 24 0C10.7452 0 0 10.7452 0 24C0 37.2548 10.7452 48 24 48Z" fill="#F6F6F6"/>
<path fill-rule="evenodd" clip-rule="evenodd" d="M19.16 14.82H28.843C29.9922 14.8234 31.0933 15.2815 31.9059 16.0941C32.7185 16.9067 33.1766 18.0078 33.18 19.157L33.18 19.16L33.18 22.42H31.18V19.1615C31.1778 18.5412 30.9304 17.9469 30.4917 17.5083C30.0531 17.0696 29.4587 16.8222 28.8384 16.82H19.1616C18.5413 16.8222 17.947 17.0696 17.5083 17.5083C17.0696 17.947 16.8222 18.5413 16.82 19.1616V22H14.82V19.157C14.8234 18.0078 15.2815 16.9067 16.0941 16.0941C16.9067 15.2815 18.0078 14.8234 19.157 14.82L19.16 14.82Z" fill="#888888"/>
<path fill-rule="evenodd" clip-rule="evenodd" d="M16.82 28.8384V25.48H14.82V28.84L14.82 28.843C14.8234 29.9922 15.2815 31.0933 16.0941 31.9059C16.9067 32.7185 18.0078 33.1766 19.157 33.18L28.84 33.18L28.843 33.18C29.9922 33.1766 31.0933 32.7185 31.9059 31.9059C32.7185 31.0933 33.1766 29.9922 33.18 28.843L33.18 28.84V26H31.18V28.8385C31.1778 29.4588 30.9304 30.0531 30.4917 30.4917C30.053 30.9304 29.4587 31.1778 28.8383 31.18H19.1617C18.5413 31.1778 17.947 30.9304 17.5083 30.4917C17.0696 30.0531 16.8222 29.4587 16.82 28.8384Z" fill="#888888"/>
<path fill-rule="evenodd" clip-rule="evenodd" d="M15.82 24.0658L19.1571 27.4029L17.7429 28.8171L15.82 26.8942L13.8971 28.8171L12.4829 27.4029L15.82 24.0658Z" fill="#888888"/>
<path fill-rule="evenodd" clip-rule="evenodd" d="M32.18 21.0058L30.2571 19.0829L28.8429 20.4971L32.18 23.8342L35.5171 20.4971L34.1029 19.0829L32.18 21.0058Z" fill="#888888"/>
</svg>
