<svg width="101" height="100" viewBox="0 0 101 100" fill="none" xmlns="http://www.w3.org/2000/svg">
<g clip-path="url(#clip0)">
<path d="M50.5 100C60.3891 100 70.0561 97.0676 78.2785 91.5735C86.501 86.0794 92.9096 78.2705 96.694 69.1342C100.478 59.9979 101.469 49.9446 99.5393 40.2455C97.61 30.5465 92.848 21.6373 85.8553 14.6447C78.8627 7.65206 69.9536 2.89002 60.2545 0.960758C50.5555 -0.968503 40.5021 0.0216643 31.3658 3.80605C22.2295 7.59043 14.4206 13.9991 8.92652 22.2215C3.43245 30.444 0.5 40.111 0.5 50C0.5 63.2608 5.76784 75.9785 15.1447 85.3554C24.5215 94.7322 37.2392 100 50.5 100Z" fill="#E8F8FE"/>
<path d="M35.8965 51.8125L45.8132 61.7291L69.2715 38.2708" stroke="#00ADEF" stroke-width="2" stroke-linecap="round" stroke-linejoin="round"/>
</g>
<defs>
<clipPath id="clip0">
<rect width="100" height="100" fill="white" transform="translate(0.5)"/>
</clipPath>
</defs>
</svg>
