<svg width="111" height="30" viewBox="0 0 111 30" fill="none" xmlns="http://www.w3.org/2000/svg">
<g clip-path="url(#clip0)">
<path d="M35.0588 0.507498C37.0463 0.476141 39.0205 0.836827 40.8685 1.56893C42.7165 2.30104 44.402 3.39021 45.8288 4.77416C47.2029 6.11543 48.3026 7.71155 49.0663 9.47333C49.854 11.2952 50.2514 13.2619 50.233 15.2467C50.2532 17.2316 49.8557 19.1986 49.0663 21.02C48.3034 22.7885 47.1993 24.3891 45.8172 25.7304C44.435 27.0717 42.8019 28.1272 41.0113 28.8367C39.1236 29.631 37.0926 30.0282 35.0447 30.0033H23.7663V0.507498H35.0588ZM38.848 23.7192C39.9308 23.2789 40.9073 22.6126 41.7122 21.765C42.5076 20.8963 43.1299 19.8838 43.5455 18.7817C43.9938 17.6409 44.2168 16.424 44.2022 15.1983C44.2165 13.964 43.9936 12.7385 43.5455 11.5883C43.1248 10.5109 42.5026 9.52356 41.7122 8.67916C40.8972 7.84338 39.9234 7.17897 38.848 6.725C37.6462 6.228 36.3593 5.96958 35.0588 5.96416H29.793V24.4642H35.0588C36.3614 24.4929 37.6546 24.237 38.848 23.7142" fill="#231F20"/>
<path d="M9.01299 0C7.24285 0 5.51246 0.524908 4.04064 1.50835C2.56882 2.49179 1.42167 3.88959 0.74427 5.52498C0.0668662 7.16038 -0.110374 8.95993 0.234964 10.6961C0.580302 12.4322 1.43271 14.0269 2.68439 15.2786C3.93607 16.5303 5.5308 17.3827 7.26693 17.728C9.00306 18.0734 10.8026 17.8961 12.438 17.2187C14.0734 16.5413 15.4712 15.3942 16.4546 13.9224C17.4381 12.4505 17.963 10.7201 17.963 8.95C17.963 6.57631 17.0201 4.29985 15.3416 2.62139C13.6631 0.942944 11.3867 0 9.01299 0V0ZM9.01299 12.71C8.15987 12.6962 7.33774 12.3879 6.68589 11.8374C6.03404 11.2868 5.59255 10.5279 5.43622 9.68909C5.27989 8.8503 5.41832 7.98325 5.82808 7.23485C6.23783 6.48644 6.8937 5.90269 7.68458 5.5825C8.47546 5.26231 9.35271 5.22536 10.1677 5.47791C10.9827 5.73047 11.6853 6.257 12.1566 6.9683C12.6278 7.6796 12.8387 8.53193 12.7534 9.3809C12.6682 10.2299 12.2921 11.0233 11.6888 11.6267C11.3382 11.9774 10.9206 12.254 10.4609 12.4401C10.0013 12.6262 9.50885 12.718 9.01299 12.71Z" fill="#231F20"/>
<path d="M61.8805 6.92167V10.6958H60.7138V2.40167H61.8805V5.9225H62.7138L65.5055 2.40167H66.908L63.7155 6.325L67.0271 10.6958H65.6396L62.7463 6.92167H61.8805Z" fill="#231F20"/>
<path d="M73.2772 3.41584H70.2938V4.9075C70.1597 8.5025 69.593 10.755 67.8922 10.755H67.5488V9.69667H67.7155C68.8197 9.69667 69.103 7.34 69.2072 4.50584V2.40167H74.413V10.6958H73.2322L73.2772 3.41584Z" fill="#231F20"/>
<path d="M77.8121 10.6958H76.6455V2.40167H77.8121V8.97667L82.273 2.40167H83.4396V10.6958H82.273V4.1175L77.8121 10.6958Z" fill="#231F20"/>
<path d="M86.7922 3.47667V10.6967H85.6255V2.40167H87.5788L89.7013 9.31L91.8197 2.40167H93.7738V10.6958H92.6072V3.47667L90.3097 10.6967H89.0897L86.7922 3.47667Z" fill="#231F20"/>
<path d="M99.353 2.40167L102.47 10.6958H101.22L100.564 8.95083H96.7571L96.1155 10.7408H94.9221L97.9955 2.44667L99.353 2.40167ZM100.203 7.90584L98.7113 3.58L97.2196 7.90584H100.203Z" fill="#231F20"/>
<path d="M101.71 3.41584V2.40167H108.273V3.41584H105.573V10.6958H104.406V3.41584H101.71Z" fill="#231F20"/>
<path d="M60.523 18.81C60.4642 18.2646 60.5209 17.7129 60.6894 17.1908C60.8579 16.6688 61.1344 16.188 61.5009 15.7799C61.8675 15.3717 62.3158 15.0453 62.8168 14.8218C63.3178 14.5984 63.8602 14.4829 64.4088 14.4829C64.9574 14.4829 65.4998 14.5984 66.0008 14.8218C66.5018 15.0453 66.9502 15.3717 67.3167 15.7799C67.6833 16.188 67.9598 16.6688 68.1282 17.1908C68.2967 17.7129 68.3534 18.2646 68.2947 18.81C68.3534 19.3554 68.2967 19.9071 68.1282 20.4292C67.9598 20.9512 67.6833 21.432 67.3167 21.8401C66.9502 22.2483 66.5018 22.5747 66.0008 22.7982C65.4998 23.0216 64.9574 23.1371 64.4088 23.1371C63.8602 23.1371 63.3178 23.0216 62.8168 22.7982C62.3158 22.5747 61.8675 22.2483 61.5009 21.8401C61.1344 21.432 60.8579 20.9512 60.6894 20.4292C60.5209 19.9071 60.4642 19.3554 60.523 18.81ZM67.1013 18.81C67.1013 16.6617 65.923 15.4983 64.4013 15.4983C62.8797 15.4983 61.7163 16.665 61.7163 18.81C61.7163 20.955 62.8947 22.1217 64.4013 22.1217C65.908 22.1217 67.1013 20.9433 67.1013 18.81Z" fill="#231F20"/>
<path d="M76.6638 22.9583H75.4972V19.1992H71.1438V22.9583H69.9772V14.6642H71.1438V18.185H75.4997V14.6642H76.6663L76.6638 22.9583Z" fill="#231F20"/>
<path d="M83.8388 15.6783H80.8555V17.17C80.7213 20.765 80.1546 23.0175 78.4538 23.0175H78.1105V22.0033H78.2771C79.3813 22.0033 79.6646 19.6467 79.7688 16.8125V14.7233H85.0938V23.0175H83.913L83.8388 15.6783Z" fill="#231F20"/>
<path d="M90.5988 14.6642L93.7163 22.9583H92.4663L91.8097 21.1533H88.0755L87.4338 22.9583H86.2405L89.3138 14.6642H90.5988ZM91.4322 20.1683L89.9405 15.8425L88.4488 20.1683H91.4322Z" fill="#231F20"/>
<path d="M96.0263 22.9583H94.8597V14.6625H96.0263V21.2458L100.501 14.6675H101.668V22.9617H100.501V16.4125L96.0263 22.9583ZM98.2763 14.2017C96.9638 14.2017 96.3222 13.6183 96.203 12.8292H97.0238C97.0238 13.2617 97.5163 13.515 98.2322 13.515C98.948 13.515 99.3655 13.2467 99.4555 12.8292H100.338C100.249 13.62 99.5772 14.2017 98.2197 14.2017" fill="#231F20"/>
<path d="M110.541 22.9583H109.375V19.1992H105.021V22.9583H103.855V14.6642H105.021V18.185H109.375V14.6642H110.541V22.9583Z" fill="#231F20"/>
<path d="M110.406 25.9417H60.523V29.9992H110.406V25.9417Z" fill="url(#paint0_linear)"/>
</g>
<defs>
<linearGradient id="paint0_linear" x1="110.406" y1="27.9704" x2="76.8348" y2="27.9704" gradientUnits="userSpaceOnUse">
<stop stop-color="#71D6C8"/>
<stop offset="1" stop-color="#FFDECB"/>
</linearGradient>
<clipPath id="clip0">
<rect width="110.478" height="30" fill="white" transform="translate(0.0629883)"/>
</clipPath>
</defs>
</svg>
