<svg width="111" height="30" viewBox="0 0 111 30" fill="none" xmlns="http://www.w3.org/2000/svg">
<g clip-path="url(#clip0)">
<path d="M34.9959 0.507498C36.9833 0.476141 38.9575 0.836827 40.8055 1.56893C42.6535 2.30104 44.3391 3.39021 45.7659 4.77416C47.14 6.11543 48.2396 7.71155 49.0034 9.47333C49.791 11.2952 50.1884 13.2619 50.17 15.2467C50.1902 17.2316 49.7927 19.1986 49.0034 21.02C48.2405 22.7885 47.1364 24.3891 45.7542 25.7304C44.372 27.0717 42.7389 28.1272 40.9484 28.8367C39.0607 29.631 37.0296 30.0282 34.9817 30.0033H23.7034V0.507498H34.9959ZM38.785 23.7192C39.8679 23.2789 40.8443 22.6126 41.6492 21.765C42.4447 20.8963 43.0669 19.8838 43.4825 18.7817C43.9308 17.6409 44.1538 16.424 44.1392 15.1983C44.1535 13.964 43.9306 12.7385 43.4825 11.5883C43.0619 10.5109 42.4396 9.52356 41.6492 8.67916C40.8343 7.84338 39.8605 7.17897 38.785 6.725C37.5833 6.228 36.2963 5.96958 34.9959 5.96416H29.73V24.4642H34.9959C36.2985 24.4929 37.5916 24.237 38.785 23.7142" fill="#231F20"/>
<path d="M8.95 0C7.17986 0 5.44947 0.524908 3.97765 1.50835C2.50583 2.49179 1.35869 3.88959 0.681282 5.52498C0.00387788 7.16038 -0.173362 8.95993 0.171976 10.6961C0.517313 12.4322 1.36972 14.0269 2.6214 15.2786C3.87308 16.5303 5.46782 17.3827 7.20395 17.728C8.94007 18.0734 10.7396 17.8961 12.375 17.2187C14.0104 16.5413 15.4082 15.3942 16.3917 13.9224C17.3751 12.4505 17.9 10.7201 17.9 8.95C17.9 6.57631 16.9571 4.29985 15.2786 2.62139C13.6002 0.942944 11.3237 0 8.95 0V0ZM8.95 12.71C8.09688 12.6962 7.27475 12.3879 6.6229 11.8374C5.97105 11.2868 5.52956 10.5279 5.37323 9.68909C5.2169 8.8503 5.35534 7.98325 5.76509 7.23485C6.17484 6.48644 6.83072 5.90269 7.62159 5.5825C8.41247 5.26231 9.28972 5.22536 10.1047 5.47791C10.9197 5.73047 11.6224 6.257 12.0936 6.9683C12.5648 7.6796 12.7757 8.53193 12.6904 9.3809C12.6052 10.2299 12.2291 11.0233 11.6258 11.6267C11.2752 11.9774 10.8576 12.254 10.398 12.4401C9.93828 12.6262 9.44587 12.718 8.95 12.71Z" fill="#231F20"/>
<path d="M61.8175 6.92167V10.6958H60.6508V2.40167H61.8175V5.92251H62.6508L65.4425 2.40167H66.845L63.6525 6.32501L66.9641 10.6958H65.5766L62.6833 6.92167H61.8175Z" fill="#231F20"/>
<path d="M73.2142 3.41584H70.2308V4.90751C70.0967 8.50251 69.53 10.755 67.8292 10.755H67.4858V9.69667H67.6525C68.7567 9.69667 69.04 7.34001 69.1442 4.50584V2.40167H74.35V10.6958H73.1692L73.2142 3.41584Z" fill="#231F20"/>
<path d="M77.7492 10.6958H76.5825V2.40167H77.7492V8.97667L82.21 2.40167H83.3767V10.6958H82.21V4.11751L77.7492 10.6958Z" fill="#231F20"/>
<path d="M86.7292 3.47667V10.6967H85.5625V2.40167H87.5158L89.6383 9.31001L91.7567 2.40167H93.7108V10.6958H92.5442V3.47667L90.2467 10.6967H89.0267L86.7292 3.47667Z" fill="#231F20"/>
<path d="M99.29 2.40167L102.408 10.6958H101.158L100.501 8.95084H96.6942L96.0525 10.7408H94.8592L97.9325 2.44667L99.29 2.40167ZM100.14 7.90584L98.6484 3.58001L97.1567 7.90584H100.14Z" fill="#231F20"/>
<path d="M101.647 3.41584V2.40167H108.21V3.41584H105.51V10.6958H104.343V3.41584H101.647Z" fill="#231F20"/>
<path d="M60.46 18.81C60.4012 18.2646 60.4579 17.7129 60.6264 17.1908C60.7949 16.6688 61.0714 16.188 61.4379 15.7799C61.8045 15.3717 62.2528 15.0453 62.7538 14.8218C63.2548 14.5984 63.7973 14.4829 64.3458 14.4829C64.8944 14.4829 65.4368 14.5984 65.9378 14.8218C66.4388 15.0453 66.8872 15.3717 67.2537 15.7799C67.6203 16.188 67.8968 16.6688 68.0653 17.1908C68.2337 17.7129 68.2904 18.2646 68.2317 18.81C68.2904 19.3554 68.2337 19.9071 68.0653 20.4292C67.8968 20.9512 67.6203 21.432 67.2537 21.8401C66.8872 22.2483 66.4388 22.5747 65.9378 22.7982C65.4368 23.0216 64.8944 23.1371 64.3458 23.1371C63.7973 23.1371 63.2548 23.0216 62.7538 22.7982C62.2528 22.5747 61.8045 22.2483 61.4379 21.8401C61.0714 21.432 60.7949 20.9512 60.6264 20.4292C60.4579 19.9071 60.4012 19.3554 60.46 18.81ZM67.0383 18.81C67.0383 16.6617 65.86 15.4983 64.3383 15.4983C62.8167 15.4983 61.6533 16.665 61.6533 18.81C61.6533 20.955 62.8317 22.1217 64.3383 22.1217C65.845 22.1217 67.0383 20.9433 67.0383 18.81Z" fill="#231F20"/>
<path d="M76.6008 22.9583H75.4342V19.1992H71.0808V22.9583H69.9142V14.6642H71.0808V18.185H75.4367V14.6642H76.6033L76.6008 22.9583Z" fill="#231F20"/>
<path d="M83.7758 15.6783H80.7925V17.17C80.6583 20.765 80.0917 23.0175 78.3908 23.0175H78.0475V22.0033H78.2142C79.3183 22.0033 79.6017 19.6467 79.7058 16.8125V14.7233H85.0308V23.0175H83.85L83.7758 15.6783Z" fill="#231F20"/>
<path d="M90.5358 14.6642L93.6533 22.9583H92.4033L91.7467 21.1533H88.0125L87.3708 22.9583H86.1775L89.2508 14.6642H90.5358ZM91.3692 20.1683L89.8775 15.8425L88.3858 20.1683H91.3692Z" fill="#231F20"/>
<path d="M95.9634 22.9583H94.7967V14.6625H95.9634V21.2458L100.438 14.6675H101.605V22.9617H100.438V16.4125L95.9634 22.9583ZM98.2134 14.2017C96.9009 14.2017 96.2592 13.6183 96.14 12.8292H96.9609C96.9609 13.2617 97.4534 13.515 98.1692 13.515C98.885 13.515 99.3025 13.2467 99.3925 12.8292H100.275C100.186 13.62 99.5142 14.2017 98.1567 14.2017" fill="#231F20"/>
<path d="M110.478 22.9583H109.312V19.1992H104.958V22.9583H103.792V14.6642H104.958V18.185H109.312V14.6642H110.478V22.9583Z" fill="#231F20"/>
<path d="M110.343 25.9417H60.46V29.9992H110.343V25.9417Z" fill="url(#paint0_linear)"/>
</g>
<defs>
<linearGradient id="paint0_linear" x1="110.343" y1="27.9704" x2="76.7719" y2="27.9704" gradientUnits="userSpaceOnUse">
<stop stop-color="#71D6C8"/>
<stop offset="1" stop-color="#FFDECB"/>
</linearGradient>
<clipPath id="clip0">
<rect width="110.478" height="30" fill="white"/>
</clipPath>
</defs>
</svg>
