<svg width="48" height="48" viewBox="0 0 48 48" fill="none" xmlns="http://www.w3.org/2000/svg">
<path d="M24 48C37.2548 48 48 37.2548 48 24C48 10.7452 37.2548 0 24 0C10.7452 0 0 10.7452 0 24C0 37.2548 10.7452 48 24 48Z" fill="#E8F8FE"/>
<path d="M31.335 20.655C30.998 18.9546 30.0824 17.4234 28.7438 16.3218C27.4053 15.2203 25.7265 14.6165 23.993 14.613C23.5032 14.6135 23.0146 14.6613 22.534 14.756C21.4302 14.9744 20.3897 15.4383 19.4895 16.1134C18.5894 16.7885 17.8527 17.6575 17.334 18.656C15.8162 18.8318 14.4227 19.5801 13.4377 20.7482C12.4527 21.9162 11.9504 23.4161 12.0333 24.9418C12.1162 26.4674 12.7781 27.904 13.8839 28.9584C14.9897 30.0129 16.4561 30.6057 17.984 30.616H18.125V28.616H18C16.9805 28.6104 16.0015 28.2158 15.2632 27.5127C14.5249 26.8095 14.083 25.851 14.0277 24.833C13.9724 23.8149 14.308 22.8142 14.9658 22.0352C15.6236 21.2563 16.5541 20.7579 17.567 20.642L18.623 20.52L19.112 19.577C19.4904 18.8438 20.0298 18.2058 20.6898 17.7106C21.3497 17.2155 22.1132 16.8762 22.923 16.718C23.6307 16.5775 24.3592 16.5779 25.0667 16.7193C25.7742 16.8607 26.4469 17.1403 27.0462 17.542C27.6455 17.9438 28.1597 18.4598 28.5593 19.0606C28.9589 19.6613 29.2361 20.335 29.375 21.043L29.675 22.543L31.202 22.65C31.9723 22.7065 32.6908 23.0592 33.2065 23.6342C33.7223 24.2092 33.9951 24.9617 33.9678 25.7336C33.9405 26.5055 33.6152 27.2368 33.0601 27.7739C32.505 28.311 31.7634 28.6121 30.991 28.614H29.874V30.614H30.989C32.2814 30.6141 33.5234 30.1123 34.4531 29.2144C35.3827 28.3166 35.9274 27.0928 35.9723 25.8011C36.0171 24.5094 35.5587 23.2508 34.6936 22.2906C33.8285 21.3304 32.6243 20.7436 31.335 20.654V20.655Z" fill="#00ADEF"/>
<path d="M27.774 30.613V28.613H25V25.839H23V28.613H20.226V30.613H23V33.387H25V30.613H27.774Z" fill="#00ADEF"/>
</svg>
