<svg width="48" height="48" viewBox="0 0 48 48" fill="none" xmlns="http://www.w3.org/2000/svg">
<path d="M24 48C37.2548 48 48 37.2548 48 24C48 10.7452 37.2548 0 24 0C10.7452 0 0 10.7452 0 24C0 37.2548 10.7452 48 24 48Z" fill="#F6F6F6"/>
<path fill-rule="evenodd" clip-rule="evenodd" d="M18.7405 16.8135C17.195 17.9185 16.0432 19.4812 15.4494 21.2762C14.8556 23.071 14.8501 25.0065 15.4336 26.8046C16.0172 28.6028 17.1601 30.172 18.6992 31.2857C20.2384 32.3995 22.0943 33 24 33C25.9057 33 27.7616 32.3995 29.3008 31.2857C30.8399 30.172 31.9828 28.6028 32.5664 26.8046C33.1499 25.0065 33.1444 23.071 32.5506 21.2762C31.9568 19.4812 30.805 17.9185 29.2595 16.8135L30.4227 15.1866C32.3117 16.5372 33.722 18.4491 34.4494 20.648C35.1769 22.847 35.1836 25.2188 34.4687 27.4219C33.7538 29.625 32.3545 31.5448 30.4732 32.906C28.5921 34.2672 26.3257 35 24 35C21.6743 35 19.4079 34.2672 17.5268 32.906C15.6455 31.5448 14.2462 29.625 13.5313 27.4219C12.8164 25.2188 12.8231 22.847 13.5506 20.648C14.278 18.4491 15.6883 16.5372 17.5773 15.1866L18.7405 16.8135Z" fill="#888888"/>
<path fill-rule="evenodd" clip-rule="evenodd" d="M23 24V13H25V24H23Z" fill="#888888"/>
</svg>
