<svg width="120" height="22" viewBox="0 0 120 22" fill="none" xmlns="http://www.w3.org/2000/svg">
<g clip-path="url(#clip0)">
<path d="M3.41702 0.653999C2.32577 1.15316 1.41343 1.97436 0.802594 3.00726C0.191758 4.04015 -0.0883102 5.23526 1.89953e-05 6.432C-0.0537834 7.28117 0.0767222 8.13194 0.382584 8.92593C0.688447 9.71993 1.16243 10.4384 1.77202 11.032C2.30269 11.6023 2.94602 12.0561 3.66126 12.3648C4.3765 12.6734 5.14804 12.8301 5.92702 12.825C6.85676 12.9628 7.80619 12.8673 8.68982 12.547C9.57346 12.2266 10.3636 11.6916 10.989 10.99C11.621 10.4182 12.1174 9.71256 12.4421 8.92456C12.7669 8.13657 12.9117 7.28605 12.866 6.435C12.8966 5.63768 12.7667 4.84234 12.4841 4.09615C12.2016 3.34995 11.772 2.6681 11.221 2.091C10.6501 1.37723 9.91347 0.813668 9.07522 0.449264C8.23696 0.0848604 7.32242 -0.0693622 6.41102 -2.73809e-07C5.36938 -0.0971924 4.32325 0.13132 3.41702 0.653999ZM8.28902 4.854C8.61192 5.22755 8.80992 5.69274 8.85528 6.18442C8.90065 6.67611 8.79112 7.16967 8.54202 7.596C8.35824 7.99882 8.05574 8.33585 7.67505 8.56194C7.29436 8.78803 6.85367 8.89238 6.41202 8.861C6.02242 8.86816 5.63683 8.7814 5.28784 8.60807C4.93886 8.43474 4.63673 8.17992 4.40702 7.86517C4.17731 7.55041 4.02676 7.18498 3.9681 6.79976C3.90944 6.41454 3.9444 6.02086 4.07002 5.652C4.20493 5.23404 4.44989 4.86011 4.77918 4.56948C5.10847 4.27885 5.50993 4.08224 5.94142 4.0003C6.3729 3.91837 6.81849 3.95412 7.2314 4.10381C7.6443 4.25349 8.00928 4.51159 8.28802 4.851L8.28902 4.854Z" fill="black"/>
<path d="M75.881 0.400991C74.2614 0.890465 72.8081 1.8171 71.681 3.07899C70.3454 4.47437 69.4378 6.2235 69.066 8.11899C68.5897 10.0225 68.609 12.0164 69.1221 13.9103C69.6352 15.8043 70.625 17.5352 71.997 18.938C74.297 21.152 76.197 21.806 79.906 21.68C82.12 21.596 82.5001 21.532 83.7871 20.942C85.5249 20.0608 87.006 18.7461 88.087 17.125C88.7167 15.9478 89.1648 14.6822 89.416 13.371C89.416 13.139 88.952 13.071 87.159 13.071H84.881L84.4811 14.062C83.5531 16.319 81.8661 17.373 79.1881 17.373C78.4775 17.4521 77.7583 17.3636 77.0881 17.1146C76.418 16.8655 75.8155 16.4629 75.329 15.939C74.3154 14.9606 73.6866 13.6508 73.557 12.248C72.988 8.95799 74.257 6.02699 76.763 4.71899C78.3448 4.20879 80.0447 4.19414 81.635 4.67699C82.8674 5.23403 83.8459 6.23323 84.377 7.477L84.883 8.63699H87.161C89.734 8.63699 89.628 8.74199 89.017 6.75999C88.5545 5.1552 87.6567 3.70982 86.423 2.584C84.377 0.664997 82.5 -0.0100081 79.189 0.0109919C78.0732 -0.0216695 76.9587 0.109732 75.881 0.400991Z" fill="black"/>
<path d="M16.661 10.861V21.553L21.891 21.469C26.636 21.385 27.227 21.342 28.471 20.9C30.5967 20.2282 32.4489 18.8884 33.7522 17.0797C35.0555 15.271 35.7404 13.0901 35.705 10.861C35.7305 8.64904 35.0544 6.48589 33.7738 4.68221C32.4931 2.87852 30.6737 1.52709 28.577 0.822006C27.438 0.400006 26.805 0.337006 21.997 0.253006L16.661 0.169006V10.861ZM26.974 4.769C27.8413 5.09196 28.6301 5.59552 29.2882 6.24632C29.9462 6.89712 30.4585 7.68031 30.791 8.54401C31.34 10.0306 31.3352 11.6651 30.7774 13.1484C30.2197 14.6316 29.1464 15.8644 27.754 16.621C26.784 17.127 26.404 17.19 24 17.254L21.3 17.338V4.429H23.578C24.7199 4.39755 25.8611 4.51181 26.974 4.769Z" fill="black"/>
<path d="M43.466 0.674998C42.559 3.206 36.485 21.09 36.485 21.275C36.485 21.444 37.118 21.507 38.847 21.465L41.185 21.411L41.923 19.239L42.64 17.088H51.371L52.088 19.302L52.8051 21.516H55.188C55.9834 21.5411 56.7795 21.5131 57.571 21.432C57.571 21.327 50.738 1.165 50.506 0.574C50.379 0.258 50 0.214999 47.006 0.214999C43.719 0.210999 43.634 0.210998 43.466 0.674998ZM48.675 8.794L50.151 13.286H46.985C44.539 13.286 43.843 13.223 43.927 13.012L45.467 8.393C45.8773 6.94582 46.4064 5.53501 47.049 4.175C47.135 4.26 47.852 6.348 48.675 8.794Z" fill="black"/>
<path d="M60.738 10.861V21.511H65.167V0.210999H60.738V10.861Z" fill="black"/>
<path d="M92.794 10.861V21.511H97.434V12.653H106.503V21.511H111.143V0.210999H106.503V8.858H97.434V0.210999H92.794V10.861Z" fill="black"/>
<path d="M115.571 10.861V21.511H120V0.210999H115.571V10.861Z" fill="black"/>
</g>
<defs>
<clipPath id="clip0">
<rect width="120" height="21.695" fill="white"/>
</clipPath>
</defs>
</svg>
