<svg width="24" height="24" viewBox="0 0 24 24" fill="none" xmlns="http://www.w3.org/2000/svg">
<g clip-path="url(#clip0)">
<path d="M22.465 15.181C22.3232 15.1813 22.1873 15.2377 22.087 15.338C21.9867 15.4383 21.9303 15.5742 21.93 15.716V17.76C21.9295 18.327 21.7041 18.8706 21.3033 19.2716C20.9025 19.6726 20.359 19.8982 19.792 19.899H5.208C4.64104 19.8982 4.09754 19.6726 3.69673 19.2716C3.29592 18.8706 3.07053 18.327 3.07 17.76V15.716C3.07 15.5741 3.01363 15.4381 2.9133 15.3377C2.81297 15.2374 2.67689 15.181 2.535 15.181C2.39311 15.181 2.25703 15.2374 2.1567 15.3377C2.05637 15.4381 2 15.5741 2 15.716V17.76C2.00106 18.6105 2.33938 19.4259 2.94077 20.0273C3.54216 20.6286 4.35751 20.967 5.208 20.968H19.793C20.6434 20.967 21.4586 20.6286 22.0599 20.0272C22.6611 19.4258 22.9992 18.6104 23 17.76V15.716C22.9997 15.5742 22.9433 15.4383 22.843 15.338C22.7427 15.2377 22.6068 15.1813 22.465 15.181Z" fill="#00ADEF"/>
<path d="M17.911 10.227C17.8165 10.1213 17.684 10.0573 17.5424 10.0493C17.4008 10.0412 17.2619 10.0897 17.156 10.184L13.035 13.868V3.50303C13.0267 3.36679 12.9667 3.23887 12.8673 3.14535C12.7678 3.05183 12.6365 2.99976 12.5 2.99976C12.3635 2.99976 12.2322 3.05183 12.1327 3.14535C12.0333 3.23887 11.9733 3.36679 11.965 3.50303V13.868L7.844 10.184C7.79147 10.1372 7.73024 10.1012 7.66379 10.0781C7.59734 10.0549 7.52699 10.0451 7.45674 10.0491C7.38649 10.0531 7.31773 10.071 7.25438 10.1016C7.19102 10.1322 7.13432 10.175 7.0875 10.2275C7.04068 10.2801 7.00467 10.3413 6.98152 10.4077C6.95837 10.4742 6.94853 10.5445 6.95257 10.6148C6.95661 10.685 6.97445 10.7538 7.00506 10.8172C7.03568 10.8805 7.07847 10.9372 7.131 10.984L11.609 14.984C11.8535 15.2036 12.1704 15.325 12.499 15.325C12.8276 15.325 13.1445 15.2036 13.389 14.984L17.867 10.984C17.9194 10.9374 17.9621 10.8809 17.9927 10.8178C18.0233 10.7547 18.0411 10.6862 18.0452 10.6161C18.0493 10.5461 18.0395 10.476 18.0165 10.4097C17.9935 10.3435 17.9576 10.2824 17.911 10.23V10.227Z" fill="#00ADEF"/>
</g>
<defs>
<clipPath id="clip0">
<rect width="21" height="17.968" fill="white" transform="translate(2 3)"/>
</clipPath>
</defs>
</svg>
