<svg width="48" height="48" viewBox="0 0 48 48" fill="none" xmlns="http://www.w3.org/2000/svg">
<path d="M24 48C37.2548 48 48 37.2548 48 24C48 10.7452 37.2548 0 24 0C10.7452 0 0 10.7452 0 24C0 37.2548 10.7452 48 24 48Z" fill="#F6F6F6"/>
<path fill-rule="evenodd" clip-rule="evenodd" d="M25.2296 17.5858L30.4142 22.7704L18.1816 35.0031L13.1032 34.9655L12.9909 29.8244L25.2296 17.5858ZM15.0091 30.6347L15.0603 32.9799L17.3593 32.9969L27.5858 22.7704L25.2296 20.4142L15.0091 30.6347Z" fill="#888888"/>
<path fill-rule="evenodd" clip-rule="evenodd" d="M31.1697 21.9708L26.0242 16.8252L28.9904 13.859C29.3294 13.52 29.7892 13.3296 30.2686 13.3296C30.7481 13.3296 31.2079 13.52 31.5469 13.859L34.136 16.4481C34.475 16.7871 34.6654 17.2469 34.6654 17.7264C34.6654 18.2058 34.475 18.6656 34.136 19.0046L31.1697 21.9708ZM31.1697 19.1424L32.5858 17.7264L30.2686 15.4092L28.8526 16.8252L31.1697 19.1424Z" fill="#888888"/>
</svg>
