<svg width="24" height="24" viewBox="0 0 24 24" fill="none" xmlns="http://www.w3.org/2000/svg">
<path d="M13.78 6.73999L17.26 10.22L6.51003 20.97L3.11003 20.94L3.03003 17.49L13.78 6.73999Z" stroke="#DADADA" stroke-miterlimit="10"/>
<path d="M18.6959 8.78119L15.217 5.30222L17.2251 3.29404C17.3087 3.21047 17.4079 3.14417 17.5171 3.09894C17.6263 3.05372 17.7433 3.03044 17.8615 3.03044C17.9797 3.03044 18.0968 3.05371 18.206 3.09894C18.3151 3.14417 18.4144 3.21047 18.4979 3.29404L20.7041 5.50021C20.7877 5.58379 20.854 5.683 20.8992 5.79219C20.9444 5.90139 20.9677 6.01842 20.9677 6.13661C20.9677 6.2548 20.9444 6.37183 20.8992 6.48102C20.854 6.59022 20.7877 6.68943 20.7041 6.77301L18.6959 8.78119V8.78119Z" stroke="#DADADA" stroke-miterlimit="10"/>
</svg>
