<svg width="36" height="36" viewBox="0 0 36 36" fill="none" xmlns="http://www.w3.org/2000/svg">
<path d="M18 36C27.9411 36 36 27.9411 36 18C36 8.05887 27.9411 0 18 0C8.05887 0 0 8.05887 0 18C0 27.9411 8.05887 36 18 36Z" fill="#F6F6F6"/>
<path d="M21.555 10.8975H19.71C19.2472 10.8712 18.7842 10.9446 18.3522 11.1126C17.9202 11.2805 17.5293 11.5393 17.2058 11.8713C16.8823 12.2033 16.6339 12.6008 16.4772 13.037C16.3205 13.4733 16.2592 13.9381 16.2975 14.4V16.0125H14.445C14.4069 16.0125 14.3693 16.0201 14.3342 16.0349C14.2991 16.0497 14.2674 16.0713 14.2408 16.0986C14.2142 16.1259 14.1934 16.1582 14.1795 16.1936C14.1656 16.2291 14.159 16.2669 14.16 16.305V18.6375C14.16 18.7138 14.1898 18.7871 14.243 18.8417C14.2963 18.8964 14.3687 18.928 14.445 18.93H16.2975V24.825C16.2994 24.902 16.3308 24.9753 16.3853 25.0297C16.4397 25.0842 16.513 25.1156 16.59 25.1175H19.005C19.0826 25.1175 19.157 25.0867 19.2118 25.0318C19.2667 24.977 19.2975 24.9026 19.2975 24.825V18.9225H21.465C21.542 18.9206 21.6153 18.8892 21.6697 18.8347C21.7242 18.7803 21.7556 18.707 21.7575 18.63V16.2975C21.7588 16.258 21.7514 16.2188 21.7358 16.1825C21.7203 16.1462 21.697 16.1138 21.6675 16.0875C21.6132 16.0348 21.5406 16.0053 21.465 16.005H19.2975V14.64C19.2975 13.98 19.455 13.6425 20.31 13.6425H21.555C21.6306 13.6425 21.7031 13.6125 21.7565 13.559C21.81 13.5056 21.84 13.4331 21.84 13.3575V11.1825C21.84 11.1069 21.81 11.0344 21.7565 10.981C21.7031 10.9275 21.6306 10.8975 21.555 10.8975Z" fill="#888888"/>
</svg>
