<svg width="48" height="48" viewBox="0 0 48 48" fill="none" xmlns="http://www.w3.org/2000/svg">
<path d="M24 48C37.2548 48 48 37.2548 48 24C48 10.7452 37.2548 0 24 0C10.7452 0 0 10.7452 0 24C0 37.2548 10.7452 48 24 48Z" fill="#EEEEEE"/>
<path fill-rule="evenodd" clip-rule="evenodd" d="M24.0012 21.2793C22.499 21.2793 21.2812 22.4971 21.2812 23.9993C21.2812 25.5015 22.499 26.7193 24.0012 26.7193C25.5035 26.7193 26.7212 25.5015 26.7212 23.9993C26.7212 22.4971 25.5035 21.2793 24.0012 21.2793ZM19.2812 23.9993C19.2812 21.3925 21.3945 19.2793 24.0012 19.2793C26.608 19.2793 28.7212 21.3925 28.7212 23.9993C28.7212 26.6061 26.608 28.7193 24.0012 28.7193C21.3945 28.7193 19.2812 26.6061 19.2812 23.9993Z" fill="#DADADA"/>
<path fill-rule="evenodd" clip-rule="evenodd" d="M21.6079 12.5H26.4121L27.1998 14.7755C27.5749 14.9036 27.9419 15.0546 28.2986 15.2277L30.4875 14.1332L33.8868 17.5325L32.7923 19.7214C32.9654 20.0781 33.1164 20.4451 33.2445 20.8202L35.52 21.6079V26.3943L33.2238 27.1815C33.0959 27.5561 32.9451 27.9225 32.7723 28.2786L33.8668 30.4675L30.4675 33.8668L28.2786 32.7723C27.9219 32.9454 27.5549 33.0964 27.1798 33.2245L26.3921 35.5H21.6079L20.8202 33.2245C20.4451 33.0964 20.0781 32.9454 19.7214 32.7723L17.5325 33.8668L14.1332 30.4675L15.2277 28.2786C15.0546 27.9219 14.9036 27.5549 14.7755 27.1798L12.5 26.3921V21.6079L14.7755 20.8202C14.9036 20.4451 15.0546 20.0781 15.2277 19.7214L14.1332 17.5325L17.5325 14.1332L19.7214 15.2277C20.0781 15.0546 20.4451 14.9036 20.8202 14.7755L21.6079 12.5ZM23.0321 14.5L22.3739 16.4014L21.8703 16.5428C21.2942 16.7045 20.739 16.9331 20.216 17.224L19.7548 17.4804L17.9275 16.5668L16.5668 17.9275L17.4804 19.7548L17.224 20.216C16.9331 20.739 16.7045 21.2942 16.5428 21.8703L16.4014 22.3739L14.5 23.0321V24.9679L16.4014 25.6261L16.5428 26.1297C16.7045 26.7058 16.9331 27.261 17.224 27.784L17.4804 28.2452L16.5668 30.0725L17.9275 31.4332L19.7548 30.5196L20.216 30.776C20.739 31.0669 21.2942 31.2955 21.8703 31.4572L22.3739 31.5986L23.0321 33.5H24.9679L25.6261 31.5986L26.1297 31.4572C26.7058 31.2955 27.261 31.0669 27.784 30.776L28.2452 30.5196L30.0725 31.4332L31.4332 30.0725L30.5196 28.2452L30.776 27.784C31.0669 27.261 31.2955 26.7058 31.4572 26.1297L31.5991 25.6243L33.52 24.9657V23.0321L31.6186 22.3739L31.4772 21.8703C31.3155 21.2942 31.0869 20.739 30.796 20.216L30.5396 19.7548L31.4532 17.9275L30.0925 16.5668L28.2652 17.4804L27.804 17.224C27.281 16.9331 26.7258 16.7045 26.1497 16.5428L25.6461 16.4014L24.9879 14.5H23.0321Z" fill="#DADADA"/>
</svg>
