<svg width="48" height="48" viewBox="0 0 48 48" fill="none" xmlns="http://www.w3.org/2000/svg">
<path d="M24 48C37.2548 48 48 37.2548 48 24C48 10.7452 37.2548 0 24 0C10.7452 0 0 10.7452 0 24C0 37.2548 10.7452 48 24 48Z" fill="#F6F6F6"/>
<path fill-rule="evenodd" clip-rule="evenodd" d="M16.969 13.3876C18.3635 12.7215 19.9302 12.5037 21.4536 12.7641C22.9769 13.0246 24.3823 13.7505 25.4763 14.8421L24.77 15.55L25.4832 14.849C26.4175 15.7996 27.0804 16.9829 27.4032 18.2761C27.6768 19.372 27.6976 20.5129 27.4676 21.6134L34.0688 28.2146C34.8409 28.9904 35.2744 30.0404 35.2744 31.135C35.2744 32.2293 34.8411 33.2791 34.0693 34.0549C33.6854 34.4411 33.229 34.7476 32.7263 34.9567C32.2236 35.1658 31.6845 35.2735 31.14 35.2735C30.5955 35.2735 30.0564 35.1658 29.5537 34.9567C29.0515 34.7478 28.5955 34.4417 28.2119 34.0561C28.2115 34.0557 28.2111 34.0553 28.2107 34.0549L21.6042 27.4484C20.403 27.6758 19.161 27.605 17.9885 27.2381C16.6262 26.8118 15.4149 26.0035 14.4982 24.9094C13.5815 23.8152 12.998 22.481 12.8169 21.0651C12.6358 19.6492 12.8647 18.2111 13.4765 16.9214C13.6158 16.6277 13.8892 16.42 14.2096 16.3646C14.5299 16.3092 14.8572 16.413 15.0871 16.6429L18.9639 20.5197L20.1999 20.1184L20.5848 18.889L16.6929 14.9971C16.4633 14.7675 16.3595 14.4409 16.4144 14.1209C16.4693 13.801 16.676 13.5276 16.969 13.3876ZM32.6512 32.6446C33.0503 32.2435 33.2744 31.7008 33.2744 31.135C33.2744 30.5696 33.0506 30.0272 32.6521 29.6263C32.6518 29.626 32.6515 29.6257 32.6512 29.6254L25.6529 22.6271C25.3937 22.368 25.2971 21.9878 25.401 21.6364C25.6778 20.7004 25.6991 19.7075 25.4628 18.7605C25.2268 17.8151 24.7426 16.9499 24.0602 16.2544C23.2592 15.4566 22.231 14.926 21.1165 14.7355C20.4989 14.6299 19.8715 14.6316 19.2612 14.737L22.4271 17.9029C22.6903 18.166 22.7855 18.5536 22.6743 18.9087L21.9543 21.2087C21.8575 21.5179 21.6169 21.7611 21.3088 21.8611L18.9988 22.6111C18.6412 22.7272 18.2487 22.6329 17.9829 22.3671L14.8318 19.216C14.7438 19.7407 14.7326 20.2782 14.8008 20.8113C14.9333 21.8476 15.3604 22.8241 16.0313 23.625C16.7022 24.4258 17.5888 25.0173 18.5859 25.3294C19.5829 25.6414 20.6485 25.6608 21.6563 25.3854C22.0027 25.2907 22.3732 25.389 22.6271 25.6429L29.6293 32.645C29.8272 32.8442 30.0626 33.0023 30.3219 33.1101C30.5811 33.218 30.8592 33.2735 31.14 33.2735C31.4208 33.2735 31.6988 33.218 31.9581 33.1101C32.2174 33.0023 32.4532 32.8437 32.6512 32.6446Z" fill="#888888"/>
</svg>
