<svg width="36" height="36" viewBox="0 0 36 36" fill="none" xmlns="http://www.w3.org/2000/svg">
<path d="M18 36C27.9411 36 36 27.9411 36 18C36 8.05887 27.9411 0 18 0C8.05887 0 0 8.05887 0 18C0 27.9411 8.05887 36 18 36Z" fill="#EEEEEE"/>
<path d="M24.6825 16.7325H18.15V19.4175H21.7875C21.4599 20.2876 20.8428 21.0185 20.04 21.4875C19.4217 21.8501 18.7181 22.0418 18.0013 22.043C17.2846 22.0441 16.5804 21.8547 15.9609 21.494C15.3415 21.1334 14.8291 20.6145 14.4762 19.9906C14.1233 19.3667 13.9427 18.6602 13.9528 17.9435C13.9629 17.2268 14.1634 16.5256 14.5337 15.9119C14.904 15.2982 15.4309 14.794 16.0602 14.451C16.6896 14.1079 17.3989 13.9384 18.1153 13.9598C18.8318 13.9811 19.5297 14.1926 20.1375 14.5725L22.3425 12.75C21.1279 11.7296 19.5948 11.1658 18.0085 11.1561C16.4222 11.1464 14.8823 11.6914 13.6553 12.6968C12.4283 13.7023 11.5913 15.105 11.289 16.6623C10.9867 18.2195 11.2382 19.8335 12 21.225C12.4732 22.1042 13.1341 22.8684 13.9359 23.4635C14.7376 24.0585 15.6605 24.4698 16.6391 24.6681C17.6176 24.8663 18.6278 24.8468 19.5979 24.6108C20.5681 24.3748 21.4744 23.9281 22.2525 23.3025C23.0469 22.6655 23.6884 21.8585 24.1297 20.9409C24.571 20.0232 24.8009 19.0182 24.8025 18C24.8012 17.5747 24.761 17.1505 24.6825 16.7325Z" fill="#888888"/>
</svg>
