<svg width="24" height="24" viewBox="0 0 24 24" fill="none" xmlns="http://www.w3.org/2000/svg">
<path d="M12 23.5C9.72552 23.5 7.50211 22.8255 5.61095 21.5619C3.71978 20.2983 2.2458 18.5022 1.37539 16.4009C0.504983 14.2995 0.277244 11.9872 0.720974 9.75647C1.1647 7.52568 2.25997 5.47658 3.86828 3.86828C5.47658 2.25997 7.52568 1.1647 9.75647 0.720974C11.9872 0.277244 14.2995 0.504983 16.4009 1.37539C18.5022 2.2458 20.2983 3.71978 21.5619 5.61095C22.8255 7.50211 23.5 9.72552 23.5 12C23.4966 15.0489 22.2839 17.972 20.1279 20.1279C17.972 22.2839 15.0489 23.4966 12 23.5ZM12 1.50001C9.9233 1.50001 7.89323 2.11582 6.16652 3.26957C4.4398 4.42333 3.09399 6.0632 2.29927 7.98183C1.50455 9.90045 1.29661 12.0117 1.70176 14.0485C2.1069 16.0853 3.10693 17.9562 4.57538 19.4246C6.04384 20.8931 7.91476 21.8931 9.95156 22.2983C11.9884 22.7034 14.0996 22.4955 16.0182 21.7007C17.9368 20.906 19.5767 19.5602 20.7304 17.8335C21.8842 16.1068 22.5 14.0767 22.5 12C22.4968 9.21621 21.3896 6.54734 19.4211 4.57889C17.4527 2.61045 14.7838 1.50318 12 1.50001Z" fill="#888888"/>
<path d="M11.185 14.576C11.1787 14.0803 11.2879 13.5901 11.504 13.144C11.6983 12.7379 11.9577 12.3663 12.272 12.044C12.572 11.744 12.872 11.458 13.172 11.181C13.4668 10.9086 13.7253 10.5994 13.941 10.261C14.149 9.93915 14.2598 9.56416 14.26 9.18097C14.2775 8.91369 14.229 8.64621 14.1188 8.40208C14.0086 8.15795 13.84 7.94466 13.628 7.78098C13.1516 7.45003 12.5795 7.28521 12 7.31197C11.468 7.24255 10.9289 7.36778 10.4819 7.66457C10.035 7.96137 9.71042 8.40972 9.56802 8.92698L8.62402 8.39997C8.84164 7.72005 9.29953 7.14271 9.91202 6.77597C10.5438 6.40304 11.2664 6.21201 12 6.22397C12.8632 6.19955 13.7084 6.47363 14.393 6.99997C14.7184 7.25988 14.9773 7.59351 15.1482 7.97328C15.3192 8.35305 15.3972 8.76805 15.376 9.18397C15.3792 9.63038 15.2694 10.0703 15.057 10.463C14.8542 10.8441 14.5949 11.1923 14.288 11.496C13.9894 11.79 13.6894 12.0806 13.388 12.368C13.0844 12.6621 12.8253 12.999 12.619 13.368C12.409 13.7359 12.2991 14.1524 12.3 14.576H11.185ZM12.368 17.52C12.2234 17.6666 12.0324 17.7585 11.8275 17.7799C11.6227 17.8014 11.4168 17.751 11.245 17.6375C11.0731 17.524 10.946 17.3543 10.8854 17.1575C10.8248 16.9607 10.8344 16.7489 10.9125 16.5583C10.9907 16.3678 11.1326 16.2103 11.314 16.1128C11.4954 16.0152 11.705 15.9837 11.9071 16.0236C12.1091 16.0634 12.2911 16.1722 12.4219 16.3313C12.5526 16.4904 12.6241 16.69 12.624 16.896C12.626 17.0119 12.6043 17.1271 12.5603 17.2344C12.5163 17.3416 12.4509 17.4388 12.368 17.52Z" fill="#888888"/>
</svg>
