<svg width="36" height="25" viewBox="0 0 36 25" fill="none" xmlns="http://www.w3.org/2000/svg">
<g clip-path="url(#clip0)">
<path d="M32.55 0.799988C33.0009 0.799988 33.4333 0.979101 33.7521 1.29791C34.0709 1.61672 34.2501 2.04913 34.2501 2.5V22.5C34.2501 22.9509 34.0709 23.3832 33.7521 23.7021C33.4333 24.0209 33.0009 24.2 32.55 24.2H2.55005C2.09918 24.2 1.66677 24.0209 1.34796 23.7021C1.02915 23.3832 0.850037 22.9509 0.850037 22.5V2.5C0.850037 2.04913 1.02915 1.61672 1.34796 1.29791C1.66677 0.979101 2.09918 0.799988 2.55005 0.799988H32.55ZM32.55 0H2.55005C1.88701 0 1.25113 0.263367 0.782288 0.732208C0.313447 1.20105 0.0500488 1.83696 0.0500488 2.5V22.5C0.0500488 23.163 0.313447 23.7989 0.782288 24.2678C1.25113 24.7366 1.88701 25 2.55005 25H32.55C33.2131 25 33.849 24.7366 34.3178 24.2678C34.7867 23.7989 35.05 23.163 35.05 22.5V2.5C35.05 1.83696 34.7867 1.20105 34.3178 0.732208C33.849 0.263367 33.2131 0 32.55 0Z" fill="#F6F6F6"/>
<path d="M28.9 15.085V14.808H28.8281L28.744 14.999L28.6611 14.808H28.5881V15.085H28.639V14.876L28.718 15.057H28.7711L28.8491 14.876V15.085H28.9ZM28.441 15.085V14.855H28.5341V14.809H28.2971V14.855H28.3901V15.085H28.441Z" fill="#0099DF"/>
<path d="M20.679 16.276H14.421V5.03003H20.679V16.276Z" fill="#6C6BBD"/>
<path d="M14.8221 10.652C14.821 9.56889 15.0664 8.49973 15.5397 7.52551C16.0131 6.5513 16.7019 5.69759 17.554 5.02902C16.499 4.19975 15.2319 3.68402 13.8976 3.54083C12.5632 3.39764 11.2156 3.63275 10.0086 4.21927C8.80157 4.80579 7.78392 5.72007 7.07196 6.85761C6.36 7.99514 5.98242 9.31004 5.98242 10.652C5.98242 11.994 6.36 13.3089 7.07196 14.4464C7.78392 15.5839 8.80157 16.4982 10.0086 17.0847C11.2156 17.6713 12.5632 17.9064 13.8976 17.7632C15.2319 17.62 16.499 17.1043 17.554 16.275C16.702 15.6064 16.0132 14.7526 15.5399 13.7784C15.0666 12.8042 14.8211 11.7351 14.8221 10.652Z" fill="#EB001B"/>
<path d="M29.118 10.652C29.118 11.9939 28.7404 13.3086 28.0284 14.4461C27.3165 15.5835 26.2989 16.4977 25.092 17.0842C23.8851 17.6707 22.5376 17.9058 21.2034 17.7627C19.8692 17.6196 18.6021 17.1041 17.5471 16.275C18.3983 15.6057 19.0865 14.7518 19.5597 13.7777C20.0329 12.8037 20.2788 11.7349 20.2788 10.652C20.2788 9.56908 20.0329 8.5003 19.5597 7.52626C19.0865 6.55222 18.3983 5.69835 17.5471 5.02901C18.6021 4.19991 19.8692 3.68437 21.2034 3.54127C22.5376 3.39818 23.8851 3.6333 25.092 4.2198C26.2989 4.8063 27.3165 5.72053 28.0284 6.85796C28.7404 7.99538 29.118 9.31013 29.118 10.652Z" fill="#0099DF"/>
<path d="M22.7891 19.451C22.8893 19.4514 22.9888 19.469 23.0831 19.503L22.9561 19.892C22.8737 19.8594 22.7856 19.8434 22.697 19.845C22.427 19.845 22.2971 20.019 22.2971 20.333V21.398H21.884V19.498H22.2931V19.729C22.3436 19.6418 22.4167 19.5699 22.5047 19.5208C22.5927 19.4717 22.6923 19.4472 22.793 19.45L22.7891 19.451ZM21.2661 19.875H20.591V20.733C20.591 20.924 20.6581 21.051 20.8651 21.051C20.9938 21.0466 21.1193 21.0098 21.23 20.944L21.3491 21.297C21.1946 21.3943 21.0156 21.4456 20.833 21.445C20.344 21.445 20.174 21.182 20.174 20.745V19.879H19.7881V19.502H20.174V18.926H20.591V19.502H21.2661V19.875ZM15.9781 20.281C15.9853 20.1543 16.0415 20.0354 16.1348 19.9494C16.2281 19.8633 16.3512 19.8169 16.4781 19.82C16.5399 19.8187 16.6013 19.8296 16.6589 19.852C16.7165 19.8745 16.7691 19.9081 16.8137 19.9509C16.8583 19.9938 16.894 20.045 16.9188 20.1016C16.9435 20.1582 16.9569 20.2192 16.958 20.281H15.9781ZM17.393 20.447C17.4054 20.321 17.3914 20.1939 17.3519 20.0736C17.3124 19.9534 17.2482 19.8427 17.1635 19.7486C17.0789 19.6545 16.9755 19.5791 16.8601 19.5272C16.7446 19.4752 16.6196 19.4479 16.493 19.447C16.242 19.4698 16.0089 19.5866 15.8403 19.774C15.6717 19.9613 15.58 20.2054 15.5837 20.4575C15.5873 20.7095 15.6861 20.9508 15.86 21.1332C16.034 21.3156 16.2705 21.4255 16.522 21.441C16.8053 21.4512 17.0824 21.3565 17.3 21.175L17.1 20.869C16.9436 20.9955 16.7492 21.0659 16.548 21.069C16.4115 21.0803 16.276 21.0381 16.17 20.9514C16.064 20.8646 15.9959 20.74 15.98 20.604H17.39C17.395 20.552 17.399 20.504 17.399 20.445L17.393 20.447ZM19.2141 19.981C19.0339 19.8769 18.8301 19.8208 18.622 19.818C18.396 19.818 18.261 19.901 18.261 20.04C18.261 20.179 18.404 20.203 18.582 20.227L18.782 20.254C19.195 20.315 19.445 20.489 19.445 20.823C19.445 21.184 19.127 21.443 18.579 21.443C18.2856 21.4511 17.9974 21.3645 17.757 21.196L17.957 20.874C18.1391 21.01 18.3619 21.0805 18.5891 21.074C18.8701 21.074 19.0211 20.991 19.0211 20.843C19.0211 20.737 18.914 20.677 18.688 20.643L18.488 20.615C18.063 20.555 17.832 20.365 17.832 20.055C17.832 19.678 18.143 19.447 18.623 19.447C18.8949 19.438 19.1636 19.5074 19.397 19.647L19.2141 19.981ZM24.314 19.841C24.2329 19.8404 24.1525 19.8554 24.077 19.885C24.0061 19.9136 23.9418 19.9565 23.8881 20.011C23.8337 20.0664 23.7909 20.132 23.762 20.204C23.7009 20.3651 23.7009 20.5429 23.762 20.704C23.7912 20.7759 23.834 20.8414 23.8881 20.897C23.9418 20.9512 24.0061 20.9937 24.077 21.022C24.2293 21.082 24.3987 21.082 24.551 21.022C24.6222 20.9937 24.6869 20.9512 24.741 20.897C24.7958 20.8418 24.839 20.7761 24.868 20.704C24.9291 20.5429 24.9291 20.3651 24.868 20.204C24.8392 20.1317 24.796 20.0661 24.741 20.011C24.6869 19.9565 24.6223 19.9136 24.551 19.885C24.4756 19.8554 24.3951 19.8404 24.314 19.841ZM24.314 19.448C24.4541 19.4468 24.593 19.473 24.723 19.525C24.8443 19.5736 24.9551 19.6452 25.0491 19.736C25.1409 19.8269 25.2139 19.935 25.264 20.054C25.3678 20.3106 25.3678 20.5974 25.264 20.854C25.2141 20.974 25.1404 21.0827 25.0474 21.1736C24.9545 21.2645 24.8441 21.3357 24.723 21.383C24.4598 21.4843 24.1683 21.4843 23.905 21.383C23.7842 21.3357 23.6742 21.2644 23.5816 21.1735C23.489 21.0826 23.4156 20.9739 23.366 20.854C23.2609 20.5977 23.2609 20.3103 23.366 20.054C23.4156 19.9341 23.489 19.8254 23.5816 19.7345C23.6742 19.6436 23.7842 19.5724 23.905 19.525C24.035 19.4729 24.174 19.4467 24.314 19.448ZM13.575 20.448C13.5815 20.336 13.6206 20.2283 13.6874 20.1382C13.7543 20.0482 13.8461 19.9796 13.9514 19.9411C14.0568 19.9025 14.1711 19.8956 14.2804 19.9212C14.3896 19.9468 14.489 20.0038 14.5662 20.0852C14.6434 20.1666 14.6951 20.2688 14.715 20.3792C14.7349 20.4896 14.722 20.6034 14.678 20.7066C14.634 20.8098 14.5607 20.8979 14.4673 20.96C14.3738 21.0221 14.2642 21.0555 14.152 21.056C14.0733 21.0572 13.9952 21.042 13.9226 21.0114C13.85 20.9809 13.7845 20.9356 13.7303 20.8784C13.6761 20.8213 13.6343 20.7536 13.6076 20.6795C13.5809 20.6054 13.5698 20.5266 13.575 20.448ZM15.113 20.448V19.499H14.7V19.73C14.6296 19.639 14.5383 19.5661 14.4339 19.5176C14.3295 19.4691 14.2151 19.4462 14.1 19.451C13.8477 19.4689 13.6115 19.5817 13.4391 19.7668C13.2666 19.9519 13.1707 20.1955 13.1707 20.4485C13.1707 20.7015 13.2666 20.9451 13.4391 21.1302C13.6115 21.3153 13.8477 21.4281 14.1 21.446C14.2151 21.4508 14.3295 21.428 14.4339 21.3794C14.5383 21.3309 14.6296 21.258 14.7 21.167V21.398H15.113V20.448ZM12.785 21.398V20.206C12.792 20.1058 12.7776 20.0053 12.7427 19.9112C12.7078 19.817 12.6533 19.7313 12.5827 19.6599C12.5121 19.5885 12.4271 19.5329 12.3334 19.4969C12.2396 19.4609 12.1393 19.4452 12.039 19.451C11.9076 19.4425 11.7764 19.4693 11.6589 19.5287C11.5414 19.5882 11.442 19.6781 11.371 19.789C11.3063 19.6816 11.2138 19.5935 11.1033 19.534C10.9929 19.4746 10.8684 19.4459 10.743 19.451C10.6339 19.4457 10.5251 19.4688 10.4276 19.5183C10.3301 19.5677 10.2472 19.6417 10.187 19.733V19.499H9.75903V21.399H10.1761V20.345C10.1677 20.2804 10.1737 20.2147 10.1937 20.1526C10.2136 20.0906 10.2469 20.0337 10.2913 19.986C10.3357 19.9382 10.39 19.9009 10.4505 19.8765C10.5109 19.8522 10.576 19.8414 10.6411 19.845C10.9151 19.845 11.054 20.023 11.054 20.345V21.402H11.471V20.345C11.4634 20.2805 11.47 20.2151 11.4901 20.1534C11.5103 20.0916 11.5437 20.035 11.5879 19.9875C11.6322 19.9399 11.6862 19.9025 11.7463 19.8779C11.8064 19.8533 11.8711 19.8421 11.936 19.845C12.218 19.845 12.3531 20.023 12.3531 20.345V21.402L12.785 21.398Z" fill="#231F20"/>
<path d="M25.772 21.256V21.302H25.8151C25.8232 21.3025 25.8312 21.3004 25.8381 21.296C25.841 21.2943 25.8433 21.2917 25.8449 21.2887C25.8464 21.2857 25.8472 21.2824 25.8471 21.279C25.8473 21.2755 25.8466 21.272 25.845 21.2688C25.8434 21.2656 25.841 21.263 25.8381 21.261C25.8311 21.257 25.8231 21.2553 25.8151 21.256H25.772ZM25.8151 21.223C25.8336 21.2218 25.852 21.227 25.8671 21.238C25.8731 21.243 25.8778 21.2493 25.8809 21.2564C25.8841 21.2635 25.8855 21.2713 25.8851 21.279C25.8854 21.2857 25.8843 21.2923 25.8818 21.2985C25.8794 21.3047 25.8757 21.3103 25.871 21.315C25.8592 21.325 25.8445 21.3309 25.8291 21.332L25.887 21.398H25.8421L25.7891 21.332H25.772V21.398H25.7341V21.223H25.8151ZM25.804 21.458C25.8235 21.4579 25.8429 21.4542 25.861 21.447C25.8781 21.4391 25.8937 21.4282 25.9071 21.415C25.9207 21.4018 25.9313 21.3858 25.9381 21.368C25.946 21.3501 25.9501 21.3306 25.9501 21.311C25.9501 21.2914 25.946 21.272 25.9381 21.254C25.9311 21.2364 25.9205 21.2204 25.9071 21.207C25.8939 21.1938 25.8782 21.1833 25.861 21.176C25.843 21.1684 25.8236 21.1646 25.804 21.165C25.7841 21.1645 25.7644 21.1683 25.746 21.176C25.7284 21.1831 25.7125 21.1936 25.699 21.207C25.6856 21.2204 25.6751 21.2364 25.668 21.254C25.6534 21.2906 25.6534 21.3314 25.668 21.368C25.6748 21.3858 25.6854 21.4018 25.699 21.415C25.7121 21.4284 25.7276 21.4391 25.7448 21.4465C25.7619 21.4539 25.7804 21.4578 25.7991 21.458H25.804ZM25.7991 21.122C25.8245 21.1218 25.8497 21.1269 25.8731 21.137C25.8961 21.1467 25.9171 21.1606 25.9351 21.178C25.9524 21.1953 25.9663 21.2156 25.9761 21.238C25.9861 21.261 25.9912 21.2859 25.991 21.311C25.9913 21.3361 25.9862 21.361 25.9761 21.384C25.9663 21.4064 25.9524 21.4268 25.9351 21.444C25.9171 21.4615 25.8961 21.4754 25.8731 21.485C25.8497 21.4952 25.8245 21.5003 25.7991 21.5C25.773 21.5002 25.7471 21.4951 25.723 21.485C25.7002 21.4755 25.6795 21.4616 25.6621 21.444C25.6444 21.4271 25.6304 21.4066 25.621 21.384C25.6109 21.361 25.6058 21.3361 25.606 21.311C25.6061 21.2862 25.6111 21.2617 25.6207 21.2389C25.6304 21.2161 25.6444 21.1954 25.6621 21.178C25.6795 21.1604 25.7002 21.1465 25.723 21.137C25.7471 21.127 25.773 21.1219 25.7991 21.122Z" fill="#231F20"/>
</g>
<defs>
<clipPath id="clip0">
<rect width="34.999" height="25" fill="white" transform="translate(0.0510254)"/>
</clipPath>
</defs>
</svg>
