<svg width="36" height="25" viewBox="0 0 36 25" fill="none" xmlns="http://www.w3.org/2000/svg">
<g clip-path="url(#clip0)">
<path d="M32.55 0.799988C33.0009 0.799988 33.4333 0.979101 33.7521 1.29791C34.0709 1.61672 34.25 2.04913 34.25 2.5V22.5C34.25 22.9509 34.0709 23.3832 33.7521 23.7021C33.4333 24.0209 33.0009 24.2 32.55 24.2H2.54999C2.09912 24.2 1.66674 24.0209 1.34793 23.7021C1.02912 23.3832 0.850006 22.9509 0.850006 22.5V2.5C0.850006 2.04913 1.02912 1.61672 1.34793 1.29791C1.66674 0.979101 2.09912 0.799988 2.54999 0.799988H32.55ZM32.55 0H2.54999C1.88695 0 1.25107 0.263367 0.782227 0.732208C0.313386 1.20105 0.0499878 1.83696 0.0499878 2.5V22.5C0.0499878 23.163 0.313386 23.7989 0.782227 24.2678C1.25107 24.7366 1.88695 25 2.54999 25H32.55C33.213 25 33.8489 24.7366 34.3178 24.2678C34.7866 23.7989 35.05 23.163 35.05 22.5V2.5C35.05 1.83696 34.7866 1.20105 34.3178 0.732208C33.8489 0.263367 33.213 0 32.55 0Z" fill="#F6F6F6"/>
<path d="M10.189 21.4001V20.209C10.1955 20.1164 10.1837 20.0234 10.1543 19.9353C10.1249 19.8472 10.0783 19.7657 10.0174 19.6956C9.9565 19.6255 9.88238 19.5681 9.79926 19.5266C9.71613 19.4852 9.62565 19.4605 9.53299 19.454C9.50269 19.4521 9.47229 19.4521 9.44199 19.454C9.31079 19.4451 9.17963 19.4717 9.06226 19.531C8.94489 19.5903 8.84565 19.6801 8.77499 19.791C8.71009 19.6838 8.61758 19.5959 8.50711 19.5367C8.39664 19.4774 8.27227 19.4488 8.147 19.454C8.03777 19.4484 7.92894 19.4714 7.83139 19.5209C7.73384 19.5704 7.65096 19.6446 7.591 19.7361V19.501H7.17801V21.401H7.595V20.3571C7.57963 20.2403 7.61106 20.1222 7.68243 20.0285C7.75381 19.9348 7.85933 19.8732 7.97598 19.8571C8.00393 19.8546 8.03205 19.8546 8.06 19.8571C8.334 19.8571 8.47299 20.0361 8.47299 20.3571V21.4131H8.88998V20.3611C8.87495 20.2437 8.90702 20.1252 8.97919 20.0315C9.05135 19.9378 9.15772 19.8765 9.27499 19.8611C9.30162 19.8591 9.32838 19.8591 9.35501 19.8611C9.63701 19.8611 9.772 20.0401 9.772 20.3611V21.4171L10.189 21.4001ZM16.361 19.5001H15.682V18.924H15.265V19.5001H14.887V19.8781H15.273V20.752C15.273 21.193 15.444 21.4521 15.932 21.4521C16.1148 21.4531 16.2941 21.4021 16.449 21.3051L16.33 20.951C16.2191 21.0174 16.0932 21.0546 15.964 21.0591C15.764 21.0591 15.69 20.9321 15.69 20.7411V19.8751H16.365L16.361 19.5001ZM19.886 19.453C19.7853 19.4499 19.6857 19.4742 19.5977 19.5231C19.5096 19.572 19.4365 19.6439 19.386 19.731V19.5001H18.977V21.4001H19.39V20.3361C19.39 20.0221 19.525 19.847 19.79 19.847C19.8783 19.8458 19.966 19.8621 20.048 19.8951L20.176 19.4951C20.0815 19.4618 19.9821 19.4446 19.882 19.4441L19.886 19.453ZM14.558 19.653C14.3243 19.5132 14.0552 19.4438 13.783 19.453C13.302 19.453 12.988 19.6831 12.988 20.0601C12.988 20.3701 13.219 20.56 13.644 20.621L13.844 20.649C14.07 20.68 14.177 20.7401 14.177 20.8491C14.177 20.9961 14.026 21.08 13.744 21.08C13.5169 21.0858 13.2945 21.0153 13.112 20.88L12.912 21.2021C13.1526 21.3698 13.4408 21.456 13.734 21.4481C14.283 21.4481 14.6 21.19 14.6 20.828C14.6 20.466 14.35 20.32 13.937 20.26L13.737 20.2321C13.558 20.2081 13.415 20.1731 13.415 20.0461C13.415 19.9191 13.55 19.8231 13.777 19.8231C13.9876 19.8254 14.1941 19.8815 14.377 19.9861L14.558 19.653ZM25.625 19.453C25.5243 19.45 25.4247 19.4743 25.3367 19.5232C25.2487 19.5722 25.1756 19.644 25.125 19.731V19.5001H24.716V21.4001H25.129V20.3361C25.129 20.0221 25.264 19.847 25.529 19.847C25.6176 19.8459 25.7056 19.8622 25.788 19.8951L25.915 19.4951C25.8205 19.4618 25.7212 19.4446 25.621 19.4441L25.625 19.453ZM20.301 20.446C20.2963 20.5719 20.3165 20.6975 20.3603 20.8156C20.4042 20.9337 20.4709 21.0419 20.5566 21.1342C20.6423 21.2266 20.7453 21.3011 20.8599 21.3535C20.9744 21.406 21.0981 21.4354 21.224 21.44C21.254 21.4415 21.284 21.4415 21.314 21.44C21.5619 21.4529 21.8057 21.3723 21.997 21.2141L21.797 20.88C21.6532 20.9897 21.4778 21.0497 21.297 21.0511C21.1443 21.0387 21.0018 20.9692 20.8979 20.8566C20.794 20.7439 20.7364 20.5963 20.7364 20.4431C20.7364 20.2898 20.794 20.1422 20.8979 20.0295C21.0018 19.9169 21.1443 19.8475 21.297 19.8351C21.4778 19.8363 21.6533 19.8964 21.797 20.006L21.997 19.6721C21.8057 19.5138 21.5619 19.4332 21.314 19.446C21.0605 19.4316 20.8117 19.5182 20.622 19.6869C20.4323 19.8556 20.3172 20.0926 20.302 20.346C20.3005 20.376 20.3005 20.4061 20.302 20.436L20.301 20.446ZM24.17 20.446V19.5001H23.757V19.731C23.6865 19.6401 23.5952 19.5675 23.4908 19.5191C23.3864 19.4707 23.272 19.4481 23.157 19.453C23.0266 19.453 22.8975 19.4787 22.777 19.5286C22.6565 19.5785 22.547 19.6517 22.4548 19.7439C22.3626 19.8361 22.2895 19.9456 22.2396 20.066C22.1897 20.1865 22.164 20.3156 22.164 20.446C22.164 20.5764 22.1897 20.7056 22.2396 20.826C22.2895 20.9465 22.3626 21.056 22.4548 21.1482C22.547 21.2404 22.6565 21.3136 22.777 21.3635C22.8975 21.4134 23.0266 21.4391 23.157 21.4391C23.272 21.444 23.3864 21.4214 23.4908 21.373C23.5952 21.3246 23.6865 21.2519 23.757 21.161V21.3911H24.17V20.446ZM22.633 20.446C22.6389 20.2961 22.7033 20.1545 22.8125 20.0516C22.9217 19.9487 23.0668 19.8927 23.2168 19.8957C23.3668 19.8986 23.5097 19.9603 23.6147 20.0674C23.7197 20.1745 23.7786 20.3185 23.7786 20.4685C23.7786 20.6186 23.7197 20.7626 23.6147 20.8697C23.5097 20.9768 23.3668 21.0385 23.2168 21.0414C23.0668 21.0444 22.9217 20.9884 22.8125 20.8855C22.7033 20.7826 22.6389 20.641 22.633 20.4911C22.632 20.4764 22.632 20.4617 22.633 20.4471V20.446ZM17.647 19.453C17.5166 19.4549 17.3878 19.4824 17.2681 19.534C17.1483 19.5856 17.0399 19.6603 16.9489 19.7538C16.858 19.8473 16.7864 19.9578 16.7382 20.079C16.69 20.2002 16.6662 20.3296 16.668 20.4601C16.6698 20.5905 16.6973 20.7192 16.7489 20.839C16.8005 20.9588 16.8752 21.0672 16.9688 21.1581C17.0623 21.249 17.1727 21.3206 17.2939 21.3688C17.4151 21.417 17.5446 21.4409 17.675 21.4391C17.9606 21.4538 18.2415 21.3619 18.463 21.1811L18.263 20.8751C18.106 21.0014 17.9114 21.0717 17.71 21.075C17.5734 21.0866 17.4378 21.0445 17.3317 20.9577C17.2257 20.8709 17.1576 20.7462 17.142 20.61H18.553V20.451C18.5661 20.3253 18.5525 20.1982 18.5132 20.078C18.4738 19.9578 18.4096 19.8473 18.3247 19.7536C18.2398 19.6599 18.1361 19.5852 18.0203 19.5343C17.9046 19.4833 17.7794 19.4574 17.653 19.458L17.647 19.453ZM17.647 19.8221C17.7088 19.8207 17.7703 19.8316 17.8279 19.8541C17.8854 19.8765 17.938 19.9101 17.9826 19.9529C18.0272 19.9958 18.0629 20.047 18.0877 20.1036C18.1125 20.1602 18.1258 20.2212 18.127 20.2831H17.134C17.1412 20.1555 17.1982 20.0358 17.2925 19.9496C17.3869 19.8635 17.5113 19.8177 17.639 19.8221H17.647ZM27.998 20.45V18.7371H27.598V19.731C27.5275 19.6401 27.4362 19.5675 27.3318 19.5191C27.2274 19.4707 27.1129 19.4481 26.998 19.453C26.8676 19.453 26.7385 19.4787 26.618 19.5286C26.4975 19.5785 26.388 19.6517 26.2958 19.7439C26.2036 19.8361 26.1305 19.9456 26.0806 20.066C26.0307 20.1865 26.005 20.3156 26.005 20.446C26.005 20.5764 26.0307 20.7056 26.0806 20.826C26.1305 20.9465 26.2036 21.056 26.2958 21.1482C26.388 21.2404 26.4975 21.3136 26.618 21.3635C26.7385 21.4134 26.8676 21.4391 26.998 21.4391C27.1129 21.444 27.2274 21.4214 27.3318 21.373C27.4362 21.3246 27.5275 21.2519 27.598 21.161V21.3911H27.998V20.45ZM28.688 21.123C28.739 21.1224 28.7882 21.1418 28.825 21.177C28.8423 21.1945 28.8565 21.2148 28.867 21.2371C28.8769 21.2603 28.882 21.2853 28.882 21.3105C28.882 21.3358 28.8769 21.3608 28.867 21.384C28.8563 21.4058 28.8421 21.4258 28.825 21.4431C28.8071 21.4602 28.786 21.4738 28.763 21.483C28.7393 21.4934 28.7138 21.4989 28.688 21.4991C28.6504 21.4987 28.6136 21.4877 28.5819 21.4673C28.5503 21.447 28.525 21.4181 28.509 21.384C28.4991 21.3608 28.494 21.3358 28.494 21.3105C28.494 21.2853 28.4991 21.2603 28.509 21.2371C28.5188 21.2144 28.5331 21.194 28.551 21.177C28.5698 21.1587 28.5922 21.1444 28.6169 21.1351C28.6415 21.1258 28.6677 21.1217 28.694 21.123H28.688ZM28.688 21.459C28.7076 21.4591 28.7271 21.455 28.745 21.4471C28.7622 21.4394 28.7778 21.4286 28.791 21.415C28.8167 21.3881 28.831 21.3523 28.831 21.315C28.831 21.2778 28.8167 21.242 28.791 21.2151C28.7783 21.201 28.7626 21.19 28.745 21.183C28.7271 21.1751 28.7076 21.171 28.688 21.1711C28.668 21.171 28.6483 21.1751 28.63 21.183C28.6121 21.19 28.5961 21.201 28.583 21.2151C28.5573 21.242 28.543 21.2778 28.543 21.315C28.543 21.3523 28.5573 21.3881 28.583 21.415C28.5961 21.4291 28.6121 21.4401 28.63 21.4471C28.6501 21.456 28.672 21.4601 28.694 21.459H28.688ZM28.7 21.2231C28.7184 21.2217 28.7366 21.2275 28.751 21.239C28.7572 21.2438 28.7621 21.2501 28.7652 21.2573C28.7683 21.2644 28.7697 21.2723 28.769 21.2801C28.7696 21.2867 28.7686 21.2934 28.7662 21.2997C28.7637 21.3059 28.7599 21.3115 28.755 21.316C28.7437 21.3264 28.7293 21.3327 28.714 21.334L28.771 21.399H28.726L28.672 21.334H28.654V21.399H28.616V21.225L28.7 21.2231ZM28.656 21.256V21.304H28.7C28.7079 21.306 28.7161 21.306 28.724 21.304C28.726 21.2982 28.726 21.2919 28.724 21.286C28.726 21.2802 28.726 21.2739 28.724 21.268C28.7161 21.266 28.7079 21.266 28.7 21.268L28.656 21.256ZM26.471 20.45C26.4769 20.3001 26.5413 20.1585 26.6505 20.0556C26.7596 19.9527 26.9048 19.8967 27.0548 19.8997C27.2048 19.9026 27.3477 19.9643 27.4527 20.0714C27.5577 20.1785 27.6165 20.3225 27.6165 20.4725C27.6165 20.6226 27.5577 20.7666 27.4527 20.8737C27.3477 20.9808 27.2048 21.0425 27.0548 21.0454C26.9048 21.0484 26.7596 20.9924 26.6505 20.8895C26.5413 20.7866 26.4769 20.645 26.471 20.4951C26.47 20.4804 26.47 20.4657 26.471 20.451V20.45ZM12.52 20.45V19.5001H12.104V19.731C12.0335 19.6401 11.9422 19.5675 11.8378 19.5191C11.7334 19.4707 11.6189 19.4481 11.504 19.453C11.3736 19.453 11.2445 19.4787 11.124 19.5286C11.0035 19.5785 10.8941 19.6517 10.8018 19.7439C10.7096 19.8361 10.6365 19.9456 10.5866 20.066C10.5367 20.1865 10.511 20.3156 10.511 20.446C10.511 20.5764 10.5367 20.7056 10.5866 20.826C10.6365 20.9465 10.7096 21.056 10.8018 21.1482C10.8941 21.2404 11.0035 21.3136 11.124 21.3635C11.2445 21.4134 11.3736 21.4391 11.504 21.4391C11.6189 21.444 11.7334 21.4214 11.8378 21.373C11.9422 21.3246 12.0335 21.2519 12.104 21.161V21.3911H12.518L12.52 20.45ZM10.982 20.45C11.0025 20.3126 11.0759 20.1886 11.1866 20.1046C11.2974 20.0207 11.4366 19.9833 11.5744 20.0006C11.7123 20.0179 11.8379 20.0885 11.9245 20.1972C12.011 20.306 12.0516 20.4442 12.0374 20.5825C12.0233 20.7207 11.9557 20.848 11.849 20.937C11.7423 21.026 11.605 21.0698 11.4664 21.0589C11.3279 21.048 11.1991 20.9833 11.1077 20.8787C11.0162 20.774 10.9693 20.6378 10.977 20.4991C10.976 20.4827 10.976 20.4664 10.977 20.45H10.982Z" fill="#231F20"/>
<path d="M20.679 5.02905H14.421V16.2751H20.679V5.02905Z" fill="#FF5F00"/>
<path d="M14.818 10.653C14.8171 9.56989 15.0625 8.50073 15.5356 7.5264C16.0087 6.55207 16.6972 5.69809 17.549 5.02902C16.4939 4.19975 15.2268 3.68402 13.8925 3.54083C12.5582 3.39764 11.2105 3.63275 10.0035 4.21927C8.7965 4.80579 7.77886 5.72007 7.06689 6.85761C6.35493 7.99514 5.97739 9.31004 5.97739 10.652C5.97739 11.994 6.35493 13.3089 7.06689 14.4464C7.77886 15.5839 8.7965 16.4982 10.0035 17.0847C11.2105 17.6713 12.5582 17.9064 13.8925 17.7632C15.2268 17.62 16.4939 17.1043 17.549 16.275C16.6972 15.6065 16.0086 14.7528 15.5355 13.7788C15.0623 12.8048 14.8169 11.7359 14.818 10.653Z" fill="#EB001B"/>
<path d="M29.121 10.653C29.1213 11.9951 28.7438 13.3102 28.0318 14.4479C27.3199 15.5856 26.3021 16.5 25.0949 17.0864C23.8877 17.6729 22.5398 17.9078 21.2054 17.7643C19.871 17.6208 18.6039 17.1047 17.549 16.275C18.4005 15.6058 19.0888 14.7519 19.5621 13.7778C20.0355 12.8038 20.2814 11.7349 20.2814 10.652C20.2814 9.56899 20.0355 8.50017 19.5621 7.52611C19.0888 6.55205 18.4005 5.69821 17.549 5.02898C18.6041 4.20004 19.8711 3.6846 21.2052 3.54152C22.5394 3.39844 23.8869 3.63349 25.0938 4.21984C26.3006 4.80618 27.3183 5.72016 28.0304 6.85738C28.7426 7.99459 29.1205 9.30917 29.121 10.651V10.653Z" fill="#F79E1B"/>
<path d="M28.437 15.085V14.855H28.531V14.807H28.294V14.855H28.394V15.085H28.437ZM28.896 15.085V14.807H28.825L28.741 15.007L28.658 14.807H28.594V15.085H28.646V14.877L28.724 15.057H28.777L28.855 14.877V15.087L28.896 15.085Z" fill="#F79E1B"/>
</g>
<defs>
<clipPath id="clip0">
<rect width="35" height="25" fill="white" transform="translate(0.0499878)"/>
</clipPath>
</defs>
</svg>
