<svg width="36" height="25" viewBox="0 0 36 25" fill="none" xmlns="http://www.w3.org/2000/svg">
<g clip-path="url(#clip0)">
<path d="M33.0273 0.799988C33.4782 0.799988 33.9106 0.979101 34.2294 1.29791C34.5482 1.61672 34.7274 2.04913 34.7274 2.5V22.5C34.7274 22.9509 34.5482 23.3832 34.2294 23.7021C33.9106 24.0209 33.4782 24.2 33.0273 24.2H3.02734C2.57648 24.2 2.1441 24.0209 1.82529 23.7021C1.50648 23.3832 1.32736 22.9509 1.32736 22.5V2.5C1.32736 2.04913 1.50648 1.61672 1.82529 1.29791C2.1441 0.979101 2.57648 0.799988 3.02734 0.799988H33.0273ZM33.0273 0H3.02734C2.3643 0 1.72842 0.263367 1.25958 0.732208C0.790742 1.20105 0.527344 1.83696 0.527344 2.5V22.5C0.527344 23.163 0.790742 23.7989 1.25958 24.2678C1.72842 24.7366 2.3643 25 3.02734 25H33.0273C33.6904 25 34.3263 24.7366 34.7951 24.2678C35.264 23.7989 35.5273 23.163 35.5273 22.5V2.5C35.5273 1.83696 35.264 1.20105 34.7951 0.732208C34.3263 0.263367 33.6904 0 33.0273 0Z" fill="#F6F6F6"/>
<path d="M10.6633 21.3993V20.2083C10.6699 20.1157 10.6581 20.0226 10.6286 19.9345C10.5992 19.8464 10.5527 19.765 10.4918 19.6949C10.4308 19.6248 10.3567 19.5674 10.2736 19.5259C10.1905 19.4845 10.1 19.4598 10.0073 19.4533C9.97702 19.4513 9.94662 19.4513 9.91632 19.4533C9.78512 19.4444 9.65396 19.471 9.53659 19.5303C9.41922 19.5896 9.31999 19.6794 9.24933 19.7903C9.18442 19.6831 9.09192 19.5952 8.98145 19.5359C8.87097 19.4766 8.7466 19.4481 8.62134 19.4533C8.5121 19.4476 8.40328 19.4707 8.30573 19.5202C8.20817 19.5697 8.1253 19.6438 8.06534 19.7353V19.5003H7.65234V21.4003H8.06934V20.3563C8.05396 20.2396 8.08539 20.1214 8.15677 20.0278C8.22815 19.9341 8.33366 19.8725 8.45032 19.8563C8.47826 19.8538 8.50639 19.8538 8.53433 19.8563C8.80833 19.8563 8.94733 20.0353 8.94733 20.3563V21.4123H9.36432V20.3603C9.34928 20.243 9.38136 20.1245 9.45352 20.0308C9.52568 19.937 9.63206 19.8758 9.74933 19.8603C9.77596 19.8583 9.80272 19.8583 9.82935 19.8603C10.1113 19.8603 10.2463 20.0393 10.2463 20.3603V21.4163L10.6633 21.3993ZM16.8353 19.4993H16.1563V18.9233H15.7393V19.4993H15.3613V19.8773H15.7473V20.7513C15.7473 21.1923 15.9183 21.4513 16.4063 21.4513C16.5891 21.4523 16.7684 21.4013 16.9233 21.3043L16.8043 20.9503C16.6934 21.0167 16.5675 21.0539 16.4383 21.0583C16.2383 21.0583 16.1643 20.9313 16.1643 20.7403V19.8743H16.8393L16.8353 19.4993ZM20.3603 19.4523C20.2596 19.4492 20.16 19.4734 20.072 19.5224C19.984 19.5713 19.9108 19.6432 19.8603 19.7303V19.4993H19.4513V21.3993H19.8643V20.3353C19.8643 20.0213 19.9993 19.8463 20.2643 19.8463C20.3527 19.8451 20.4404 19.8614 20.5223 19.8943L20.6503 19.4943C20.5559 19.4611 20.4565 19.4439 20.3563 19.4433L20.3603 19.4523ZM15.0323 19.6523C14.7986 19.5125 14.5295 19.4431 14.2573 19.4523C13.7763 19.4523 13.4623 19.6823 13.4623 20.0593C13.4623 20.3693 13.6933 20.5593 14.1183 20.6203L14.3183 20.6483C14.5443 20.6793 14.6513 20.7393 14.6513 20.8483C14.6513 20.9953 14.5003 21.0793 14.2183 21.0793C13.9912 21.085 13.7688 21.0146 13.5863 20.8793L13.3863 21.2013C13.627 21.3691 13.9151 21.4553 14.2083 21.4473C14.7573 21.4473 15.0743 21.1893 15.0743 20.8273C15.0743 20.4653 14.8243 20.3193 14.4113 20.2593L14.2113 20.2313C14.0323 20.2073 13.8893 20.1723 13.8893 20.0453C13.8893 19.9183 14.0243 19.8223 14.2513 19.8223C14.462 19.8247 14.6685 19.8808 14.8513 19.9853L15.0323 19.6523ZM26.0993 19.4523C25.9987 19.4493 25.8991 19.4736 25.8111 19.5225C25.7231 19.5714 25.6499 19.6432 25.5993 19.7303V19.4993H25.1903V21.3993H25.6033V20.3353C25.6033 20.0213 25.7383 19.8463 26.0033 19.8463C26.092 19.8452 26.18 19.8615 26.2623 19.8943L26.3893 19.4943C26.2949 19.4611 26.1955 19.4439 26.0953 19.4433L26.0993 19.4523ZM20.7753 20.4453C20.7706 20.5712 20.7908 20.6968 20.8347 20.8148C20.8785 20.9329 20.9452 21.0412 21.0309 21.1335C21.1166 21.2258 21.2197 21.3003 21.3342 21.3528C21.4487 21.4053 21.5725 21.4347 21.6983 21.4393C21.7283 21.4408 21.7583 21.4408 21.7883 21.4393C22.0363 21.4522 22.28 21.3715 22.4713 21.2133L22.2713 20.8793C22.1276 20.9889 21.9521 21.049 21.7713 21.0503C21.6186 21.0379 21.4761 20.9685 21.3723 20.8558C21.2684 20.7432 21.2107 20.5956 21.2107 20.4423C21.2107 20.2891 21.2684 20.1415 21.3723 20.0288C21.4761 19.9162 21.6186 19.8467 21.7713 19.8343C21.9521 19.8356 22.1276 19.8956 22.2713 20.0053L22.4713 19.6713C22.28 19.5131 22.0363 19.4324 21.7883 19.4453C21.5349 19.4308 21.286 19.5174 21.0963 19.6862C20.9066 19.8549 20.7915 20.0919 20.7763 20.3453C20.7748 20.3753 20.7748 20.4053 20.7763 20.4353L20.7753 20.4453ZM24.6443 20.4453V19.4993H24.2313V19.7303C24.1608 19.6394 24.0695 19.5667 23.9651 19.5184C23.8608 19.47 23.7463 19.4473 23.6313 19.4523C23.5009 19.4523 23.3718 19.478 23.2513 19.5279C23.1309 19.5778 23.0214 19.651 22.9292 19.7432C22.837 19.8354 22.7638 19.9448 22.7139 20.0653C22.664 20.1858 22.6383 20.3149 22.6383 20.4453C22.6383 20.5757 22.664 20.7048 22.7139 20.8253C22.7638 20.9458 22.837 21.0553 22.9292 21.1475C23.0214 21.2397 23.1309 21.3128 23.2513 21.3627C23.3718 21.4126 23.5009 21.4383 23.6313 21.4383C23.7463 21.4433 23.8608 21.4207 23.9651 21.3723C24.0695 21.3239 24.1608 21.2512 24.2313 21.1603V21.3903H24.6443V20.4453ZM23.1073 20.4453C23.1132 20.2954 23.1777 20.1538 23.2868 20.0509C23.396 19.948 23.5411 19.892 23.6911 19.8949C23.8411 19.8979 23.984 19.9595 24.089 20.0667C24.1941 20.1738 24.2529 20.3178 24.2529 20.4678C24.2529 20.6178 24.1941 20.7619 24.089 20.869C23.984 20.9761 23.8411 21.0378 23.6911 21.0407C23.5411 21.0437 23.396 20.9876 23.2868 20.8847C23.1777 20.7818 23.1132 20.6402 23.1073 20.4903C23.1064 20.4757 23.1064 20.461 23.1073 20.4463V20.4453ZM18.1213 19.4523C17.9909 19.4541 17.8622 19.4817 17.7424 19.5333C17.6226 19.5849 17.5142 19.6595 17.4233 19.7531C17.3324 19.8466 17.2608 19.9571 17.2126 20.0782C17.1644 20.1994 17.1405 20.3289 17.1423 20.4593C17.1442 20.5897 17.1717 20.7185 17.2233 20.8383C17.2749 20.958 17.3496 21.0665 17.4431 21.1574C17.5366 21.2483 17.6471 21.3199 17.7682 21.3681C17.8894 21.4163 18.0189 21.4402 18.1493 21.4383C18.4349 21.4531 18.7158 21.3612 18.9373 21.1803L18.7373 20.8743C18.5804 21.0006 18.3858 21.071 18.1843 21.0743C18.0478 21.0859 17.9121 21.0438 17.8061 20.957C17.7 20.8702 17.632 20.7455 17.6163 20.6093H19.0273V20.4503C19.0404 20.3246 19.0268 20.1974 18.9875 20.0773C18.9481 19.9571 18.8839 19.8466 18.799 19.7529C18.7141 19.6592 18.6104 19.5845 18.4947 19.5335C18.3789 19.4826 18.2538 19.4566 18.1273 19.4573L18.1213 19.4523ZM18.1213 19.8213C18.1831 19.82 18.2446 19.8309 18.3022 19.8533C18.3598 19.8758 18.4124 19.9094 18.457 19.9522C18.5016 19.995 18.5373 20.0462 18.562 20.1029C18.5868 20.1595 18.6001 20.2205 18.6013 20.2823H17.6083C17.6156 20.1547 17.6725 20.035 17.7669 19.9489C17.8613 19.8627 17.9856 19.8169 18.1133 19.8213H18.1213ZM28.4723 20.4493V18.7363H28.0723V19.7303C28.0018 19.6394 27.9105 19.5667 27.8061 19.5184C27.7017 19.47 27.5873 19.4473 27.4723 19.4523C27.3419 19.4523 27.2128 19.478 27.0923 19.5279C26.9718 19.5778 26.8624 19.651 26.7702 19.7432C26.678 19.8354 26.6048 19.9448 26.5549 20.0653C26.505 20.1858 26.4793 20.3149 26.4793 20.4453C26.4793 20.5757 26.505 20.7048 26.5549 20.8253C26.6048 20.9458 26.678 21.0553 26.7702 21.1475C26.8624 21.2397 26.9718 21.3128 27.0923 21.3627C27.2128 21.4126 27.3419 21.4383 27.4723 21.4383C27.5873 21.4433 27.7017 21.4207 27.8061 21.3723C27.9105 21.3239 28.0018 21.2512 28.0723 21.1603V21.3903H28.4723V20.4493ZM29.1623 21.1223C29.2133 21.1217 29.2625 21.1411 29.2993 21.1763C29.3167 21.1938 29.3309 21.2141 29.3413 21.2363C29.3512 21.2596 29.3563 21.2846 29.3563 21.3098C29.3563 21.3351 29.3512 21.3601 29.3413 21.3833C29.3306 21.4051 29.3164 21.425 29.2993 21.4423C29.2814 21.4595 29.2604 21.4731 29.2373 21.4823C29.2137 21.4927 29.1882 21.4981 29.1623 21.4983C29.1247 21.4979 29.0879 21.4869 29.0563 21.4666C29.0246 21.4462 28.9993 21.4174 28.9833 21.3833C28.9734 21.3601 28.9683 21.3351 28.9683 21.3098C28.9683 21.2845 28.9734 21.2596 28.9833 21.2363C28.9931 21.2137 29.0074 21.1932 29.0253 21.1763C29.0442 21.1579 29.0666 21.1437 29.0912 21.1344C29.1158 21.1251 29.1421 21.121 29.1683 21.1223H29.1623ZM29.1623 21.4583C29.182 21.4584 29.2014 21.4543 29.2193 21.4463C29.2366 21.4387 29.2522 21.4278 29.2653 21.4143C29.291 21.3873 29.3053 21.3515 29.3053 21.3143C29.3053 21.2771 29.291 21.2413 29.2653 21.2143C29.2527 21.2003 29.2369 21.1893 29.2193 21.1823C29.2014 21.1743 29.182 21.1702 29.1623 21.1703C29.1424 21.1703 29.1226 21.1743 29.1043 21.1823C29.0865 21.1893 29.0704 21.2002 29.0573 21.2143C29.0317 21.2413 29.0173 21.2771 29.0173 21.3143C29.0173 21.3515 29.0317 21.3873 29.0573 21.4143C29.0704 21.4284 29.0865 21.4393 29.1043 21.4463C29.1244 21.4553 29.1464 21.4594 29.1683 21.4583H29.1623ZM29.1743 21.2223C29.1928 21.221 29.211 21.2267 29.2253 21.2383C29.2315 21.2431 29.2364 21.2494 29.2395 21.2565C29.2427 21.2637 29.244 21.2715 29.2433 21.2793C29.2439 21.286 29.2429 21.2927 29.2405 21.2989C29.2381 21.3052 29.2343 21.3108 29.2293 21.3153C29.218 21.3256 29.2036 21.332 29.1883 21.3333L29.2453 21.3983H29.2003L29.1463 21.3333H29.1283V21.3983H29.0903V21.2243L29.1743 21.2223ZM29.1303 21.2553V21.3033H29.1743C29.1822 21.3053 29.1905 21.3053 29.1983 21.3033C29.2003 21.2975 29.2003 21.2911 29.1983 21.2853C29.2003 21.2795 29.2003 21.2731 29.1983 21.2673C29.1905 21.2653 29.1822 21.2653 29.1743 21.2673L29.1303 21.2553ZM26.9453 20.4493C26.9512 20.2994 27.0157 20.1578 27.1248 20.0549C27.234 19.952 27.3792 19.896 27.5291 19.8989C27.6791 19.9019 27.822 19.9635 27.927 20.0706C28.0321 20.1778 28.0909 20.3218 28.0909 20.4718C28.0909 20.6218 28.0321 20.7659 27.927 20.873C27.822 20.9801 27.6791 21.0418 27.5291 21.0447C27.3792 21.0477 27.234 20.9916 27.1248 20.8887C27.0157 20.7858 26.9512 20.6442 26.9453 20.4943C26.9444 20.4797 26.9444 20.465 26.9453 20.4503V20.4493ZM12.9943 20.4493V19.4993H12.5783V19.7303C12.5078 19.6394 12.4165 19.5667 12.3121 19.5184C12.2077 19.47 12.0933 19.4473 11.9783 19.4523C11.8479 19.4523 11.7188 19.478 11.5983 19.5279C11.4779 19.5778 11.3684 19.651 11.2762 19.7432C11.184 19.8354 11.1108 19.9448 11.0609 20.0653C11.011 20.1858 10.9853 20.3149 10.9853 20.4453C10.9853 20.5757 11.011 20.7048 11.0609 20.8253C11.1108 20.9458 11.184 21.0553 11.2762 21.1475C11.3684 21.2397 11.4779 21.3128 11.5983 21.3627C11.7188 21.4126 11.8479 21.4383 11.9783 21.4383C12.0933 21.4433 12.2077 21.4207 12.3121 21.3723C12.4165 21.3239 12.5078 21.2512 12.5783 21.1603V21.3903H12.9923L12.9943 20.4493ZM11.4563 20.4493C11.4768 20.3119 11.5503 20.1879 11.661 20.1039C11.7717 20.0199 11.9109 19.9826 12.0488 19.9999C12.1866 20.0172 12.3123 20.0878 12.3988 20.1965C12.4853 20.3052 12.5259 20.4435 12.5118 20.5818C12.4977 20.72 12.43 20.8473 12.3233 20.9363C12.2166 21.0253 12.0793 21.069 11.9408 21.0581C11.8022 21.0472 11.6735 20.9825 11.582 20.8779C11.4905 20.7733 11.4436 20.6371 11.4513 20.4983C11.4503 20.482 11.4503 20.4656 11.4513 20.4493H11.4563Z" fill="#231F20"/>
<path d="M21.1564 5.0293H14.8984V16.2753H21.1564V5.0293Z" fill="#FF5F00"/>
<path d="M15.2937 10.653C15.2928 9.56989 15.5382 8.50073 16.0114 7.5264C16.4845 6.55207 17.173 5.69809 18.0247 5.02902C16.9697 4.19975 15.7026 3.68402 14.3683 3.54083C13.0339 3.39764 11.6863 3.63275 10.4792 4.21927C9.27224 4.80579 8.2546 5.72007 7.54263 6.85761C6.83067 7.99514 6.45312 9.31004 6.45312 10.652C6.45312 11.994 6.83067 13.3089 7.54263 14.4464C8.2546 15.5839 9.27224 16.4982 10.4792 17.0847C11.6863 17.6713 13.0339 17.9064 14.3683 17.7632C15.7026 17.62 16.9697 17.1043 18.0247 16.275C17.1729 15.6065 16.4844 14.7528 16.0112 13.7788C15.538 12.8048 15.2927 11.7359 15.2937 10.653Z" fill="#EB001B"/>
<path d="M29.5954 10.6522C29.5957 11.9944 29.2182 13.3095 28.5063 14.4472C27.7943 15.5849 26.7765 16.4992 25.5693 17.0857C24.3621 17.6722 23.0143 17.9071 21.6798 17.7636C20.3454 17.6201 19.0783 17.104 18.0234 16.2742C18.8749 15.605 19.5632 14.7512 20.0366 13.7771C20.5099 12.8031 20.7558 11.7342 20.7558 10.6512C20.7558 9.56826 20.5099 8.49944 20.0366 7.52538C19.5632 6.55132 18.8749 5.69747 18.0234 5.02825C19.0786 4.19931 20.3455 3.68387 21.6797 3.54079C23.0138 3.39771 24.3613 3.63276 25.5682 4.2191C26.7751 4.80545 27.7927 5.71943 28.5049 6.85665C29.217 7.99386 29.5949 9.30844 29.5954 10.6502V10.6522Z" fill="#F79E1B"/>
<path d="M28.9125 15.0847V14.8546H29.0065V14.8066H28.7695V14.8546H28.8695V15.0847H28.9125ZM29.3715 15.0847V14.8066H29.3005L29.2165 15.0067L29.1335 14.8066H29.0695V15.0847H29.1215V14.8766L29.1995 15.0566H29.2525L29.3305 14.8766V15.0866L29.3715 15.0847Z" fill="#F79E1B"/>
</g>
<defs>
<clipPath id="clip0">
<rect width="35" height="25" fill="white" transform="translate(0.527344)"/>
</clipPath>
</defs>
</svg>
