<svg width="24" height="24" viewBox="0 0 24 24" fill="none" xmlns="http://www.w3.org/2000/svg">
<path d="M12 2.25322C14.7129 2.28552 15.588 3.88338 15.8631 4.74554C15.9572 5.05348 15.9683 5.38084 15.8953 5.69447L15.8354 5.97138C15.7269 6.75259 15.6715 7.54024 15.6693 8.32894C15.8569 8.82698 15.903 9.36724 15.8022 9.88984C15.6303 10.4697 15.3481 11.0109 14.9713 11.484L14.9251 12.0905C14.9114 12.2663 14.8734 12.4394 14.8118 12.6046L14.2736 14.0409V15.2031C14.2735 15.674 14.4444 16.129 14.7545 16.4834L14.9713 16.7308L20.2513 18.6212C20.4165 18.68 20.5596 18.7885 20.6606 18.9318C20.7616 19.0751 20.8156 19.2462 20.8154 19.4215V21.6646C20.8154 21.6859 20.807 21.7063 20.792 21.7214C20.7769 21.7364 20.7565 21.7449 20.7352 21.7449H3.26296C3.24166 21.7449 3.22123 21.7364 3.20617 21.7214C3.19111 21.7063 3.18273 21.6859 3.18273 21.6646V19.4215C3.18258 19.2463 3.23652 19.0754 3.33733 18.9322C3.43813 18.7889 3.58097 18.6802 3.74591 18.6212L9.02678 16.7308L9.24268 16.4834C9.5531 16.1291 9.7243 15.6741 9.7245 15.2031V14.0409L9.18634 12.6046C9.12462 12.4394 9.08658 12.2663 9.07298 12.0905L9.02678 11.484C8.65003 11.0109 8.36783 10.4697 8.19588 9.88984C8.0952 9.36724 8.14125 8.82699 8.32884 8.32894C8.32666 7.54024 8.27121 6.75259 8.16275 5.97138L8.1019 5.69447C8.02971 5.38071 8.04107 5.05348 8.13503 4.74554C8.41195 3.88061 9.28524 2.28275 11.9982 2.25322H12ZM11.9982 1.23785H11.9862C8.54314 1.27847 7.46963 3.49198 7.16778 4.4409C7.01905 4.91959 6.9993 5.4291 7.11054 5.91786L7.17049 6.19477C7.26202 6.8496 7.30876 7.50988 7.31066 8.17107C7.10811 8.80164 7.07237 9.4739 7.20654 10.1225C7.37451 10.7479 7.65603 11.3371 8.03722 11.8606L8.06021 12.1735C8.08132 12.4447 8.14052 12.7117 8.23576 12.9665L8.70925 14.2311V15.2095C8.70901 15.4348 8.627 15.6523 8.47848 15.8216L8.43701 15.8696L3.40426 17.6714C3.04276 17.801 2.73002 18.039 2.50868 18.3529C2.28733 18.6667 2.16828 19.0412 2.16748 19.4252V21.6683C2.16772 21.9588 2.28319 22.2374 2.48862 22.4428C2.69405 22.6482 2.97244 22.7638 3.26296 22.764H20.7352C21.0257 22.7638 21.3041 22.6482 21.5095 22.4428C21.7149 22.2374 21.8304 21.9588 21.8306 21.6683V19.4252C21.8295 19.0411 21.7103 18.6667 21.4888 18.3529C21.2673 18.0391 20.9545 17.8011 20.593 17.6714L15.5611 15.8696L15.5187 15.8216C15.3708 15.6519 15.2892 15.4346 15.2889 15.2095V14.2311L15.7624 12.9665C15.8576 12.7117 15.9166 12.4447 15.937 12.1735L15.9609 11.8606C16.3423 11.3372 16.6238 10.748 16.7916 10.1225C16.9253 9.47387 16.8896 8.80172 16.6875 8.17107C16.689 7.5099 16.7355 6.84961 16.8267 6.19477L16.8876 5.91786C16.9987 5.42908 16.9789 4.91962 16.8303 4.4409C16.5285 3.4929 15.4541 1.27937 12.0119 1.23876L11.9982 1.23785Z" fill="#00ADEF"/>
</svg>
