<svg width="24" height="24" viewBox="0 0 24 24" fill="none" xmlns="http://www.w3.org/2000/svg">
<path fill-rule="evenodd" clip-rule="evenodd" d="M11.7682 0.884C13.8711 0.89696 15.8831 1.74357 17.3626 3.2381C18.8421 4.73263 19.6684 6.75301 19.6602 8.856C19.66 10.2544 19.2943 11.6285 18.5992 12.842L11.7682 22.228L4.93618 12.842C4.24199 11.6286 3.87661 10.255 3.87618 8.857C3.86793 6.75392 4.69417 4.73343 6.17368 3.23875C7.65318 1.74406 9.66512 0.897224 11.7682 0.884ZM11.7682 11.956C12.3826 11.9621 12.985 11.7855 13.4989 11.4486C14.0128 11.1117 14.4149 10.6297 14.6543 10.0637C14.8937 9.49779 14.9594 8.87348 14.8433 8.27008C14.7271 7.66668 14.4342 7.11142 14.0018 6.67481C13.5695 6.2382 13.0171 5.93994 12.4148 5.8179C11.8126 5.69587 11.1877 5.75557 10.6194 5.98941C10.0512 6.22326 9.56527 6.62071 9.22337 7.13128C8.88146 7.64186 8.69901 8.24252 8.69918 8.857C8.69598 9.67478 9.01731 10.4604 9.59266 11.0416C10.168 11.6228 10.9504 11.952 11.7682 11.957V11.956ZM11.7682 0C10.2218 0.0177527 8.70693 0.439498 7.37386 1.2234C6.04078 2.0073 4.93581 3.12611 4.16858 4.46885C3.40134 5.81159 2.9985 7.33159 3 8.87807C3.00151 10.4245 3.40732 11.9438 4.17718 13.285L11.7682 24L19.3592 13.285C20.129 11.9438 20.5348 10.4245 20.5364 8.87807C20.5379 7.33159 20.135 5.81159 19.3678 4.46885C18.6005 3.12611 17.4956 2.0073 16.1625 1.2234C14.8294 0.439498 13.3146 0.0177527 11.7682 0V0ZM11.7682 11.071C11.3293 11.0754 10.8991 10.9492 10.5321 10.7085C10.1651 10.4679 9.87791 10.1236 9.70699 9.71939C9.53607 9.31518 9.48913 8.86929 9.57214 8.43835C9.65515 8.00741 9.86436 7.61085 10.1732 7.29906C10.482 6.98726 10.8766 6.77428 11.3067 6.68716C11.7368 6.60005 12.1832 6.64274 12.589 6.8098C12.9948 6.97686 13.3418 7.26076 13.586 7.62544C13.8301 7.99012 13.9604 8.41914 13.9602 8.858C13.9618 9.14724 13.9063 9.43396 13.7969 9.70174C13.6876 9.96952 13.5265 10.2131 13.3229 10.4186C13.1193 10.624 12.8772 10.7873 12.6104 10.8991C12.3436 11.0109 12.0574 11.069 11.7682 11.07V11.071Z" fill="#00ADEF"/>
</svg>
