<svg width="36" height="25" viewBox="0 0 36 25" fill="none" xmlns="http://www.w3.org/2000/svg">
<g clip-path="url(#clip0)">
<path d="M32.55 0.799988C32.7732 0.799988 32.9943 0.843949 33.2006 0.929382C33.4068 1.01482 33.5942 1.14005 33.7521 1.29791C33.9099 1.45577 34.0352 1.64317 34.1206 1.84943C34.206 2.05568 34.25 2.27675 34.25 2.5V22.5C34.25 22.7232 34.206 22.9443 34.1206 23.1505C34.0352 23.3568 33.9099 23.5442 33.7521 23.7021C33.5942 23.8599 33.4068 23.9852 33.2006 24.0706C32.9943 24.156 32.7732 24.2 32.55 24.2H2.54999C2.09912 24.2 1.66671 24.0209 1.3479 23.7021C1.02909 23.3832 0.849976 22.9509 0.849976 22.5V2.5C0.849976 2.04913 1.02909 1.61672 1.3479 1.29791C1.66671 0.979101 2.09912 0.799988 2.54999 0.799988H32.55ZM32.55 0H2.54999C1.88695 0 1.25107 0.263367 0.782227 0.732208C0.313386 1.20105 0.0499878 1.83696 0.0499878 2.5V22.5C0.0499878 23.163 0.313386 23.7989 0.782227 24.2678C1.25107 24.7366 1.88695 25 2.54999 25H32.55C33.213 25 33.8489 24.7366 34.3177 24.2678C34.7866 23.7989 35.05 23.163 35.05 22.5V2.5C35.05 1.83696 34.7866 1.20105 34.3177 0.732208C33.8489 0.263367 33.213 0 32.55 0Z" fill="#F6F6F6"/>
<path fill-rule="evenodd" clip-rule="evenodd" d="M28.801 8.40896H23.365C23.5407 9.35339 24.0277 10.2118 24.7481 10.8472C25.4686 11.4827 26.381 11.8585 27.34 11.9149H31.665C31.7129 11.7242 31.7324 11.5274 31.723 11.331C31.7268 10.9462 31.654 10.5644 31.5085 10.2082C31.363 9.85192 31.1479 9.52824 30.8758 9.25613C30.6037 8.98402 30.28 8.76894 29.9238 8.62347C29.5675 8.478 29.1858 8.40508 28.801 8.40896Z" fill="url(#paint0_linear)"/>
<path fill-rule="evenodd" clip-rule="evenodd" d="M23.833 12.2079V16.5909H26.463V14.253H28.801C29.4166 14.2478 30.0147 14.0469 30.5086 13.6792C31.0025 13.3116 31.3665 12.7963 31.548 12.2079H23.833Z" fill="#4DB45F"/>
<path fill-rule="evenodd" clip-rule="evenodd" d="M14.482 8.40894V16.5909H16.819C17.004 16.5807 17.1829 16.5212 17.3371 16.4185C17.4913 16.3158 17.6152 16.1737 17.696 16.0069L19.742 11.9149H20.034V16.5909H22.664V8.40894H20.326C20.1455 8.43428 19.9731 8.49991 19.8214 8.60101C19.6698 8.70211 19.5428 8.83606 19.45 8.99292L17.404 13.0839H17.112V8.40894H14.482Z" fill="#4DB45F"/>
<path fill-rule="evenodd" clip-rule="evenodd" d="M3.37701 16.5909V8.40894H6.00702C6.00702 8.40894 6.76696 8.40893 7.17596 9.57693C8.22796 12.6769 8.34497 13.0839 8.34497 13.0839C8.34497 13.0839 8.57898 12.3239 9.51398 9.57693C9.92298 8.40893 10.683 8.40894 10.683 8.40894H13.313V16.5909H10.683V12.2079H10.39L8.92902 16.5909H7.76001L6.29901 12.2079H6.00702V16.5909H3.37701Z" fill="#4DB45F"/>
</g>
<defs>
<linearGradient id="paint0_linear" x1="23.3483" y1="14.8075" x2="31.7253" y2="14.8075" gradientUnits="userSpaceOnUse">
<stop stop-color="#00B4E6"/>
<stop offset="1" stop-color="#088CCB"/>
</linearGradient>
<clipPath id="clip0">
<rect width="35" height="25" fill="white" transform="translate(0.0499878)"/>
</clipPath>
</defs>
</svg>
