<svg width="137" height="30" viewBox="0 0 137 30" fill="none" xmlns="http://www.w3.org/2000/svg">
<g clip-path="url(#clip0)">
<path d="M62.5372 3.55V10.5167H61.418V2.52084H63.298L65.3413 9.1875L67.3847 2.52084H69.2647V10.5167H68.143V3.55L65.9355 10.5167H64.7447L62.5372 3.55Z" fill="#231F20"/>
<path d="M70.8938 6.51834C70.8265 5.98892 70.8727 5.45124 71.0294 4.94106C71.186 4.43088 71.4495 3.9599 71.8023 3.55945C72.155 3.159 72.589 2.83825 73.0754 2.61854C73.5618 2.39883 74.0893 2.2852 74.623 2.2852C75.1567 2.2852 75.6842 2.39883 76.1706 2.61854C76.657 2.83825 77.091 3.159 77.4437 3.55945C77.7965 3.9599 78.06 4.43088 78.2166 4.94106C78.3732 5.45124 78.4195 5.98892 78.3522 6.51834C78.4195 7.04776 78.3732 7.58544 78.2166 8.09561C78.06 8.60579 77.7965 9.07677 77.4437 9.47722C77.091 9.87768 76.657 10.1984 76.1706 10.4181C75.6842 10.6378 75.1567 10.7515 74.623 10.7515C74.0893 10.7515 73.5618 10.6378 73.0754 10.4181C72.589 10.1984 72.155 9.87768 71.8023 9.47722C71.4495 9.07677 71.186 8.60579 71.0294 8.09561C70.8727 7.58544 70.8265 7.04776 70.8938 6.51834ZM77.2338 6.51834C77.2338 4.46 76.0855 3.32584 74.638 3.32584C73.1905 3.32584 72.0422 4.47417 72.0422 6.51834C72.0422 8.5625 73.1755 9.71084 74.638 9.71084C76.1005 9.71084 77.2272 8.5775 77.2272 6.51834" fill="#231F20"/>
<path d="M83.003 5.68334C84.778 5.68334 85.8522 6.41417 85.8522 8.04C85.8522 9.66583 84.6588 10.5167 83.003 10.5167H80.0197V2.52084H85.3897V3.49084H81.123V5.68334H83.003ZM84.7038 8.055C84.7038 6.98084 84.0472 6.56334 82.9138 6.56334H81.1238V9.54667H83.003C84.1072 9.54667 84.748 9.02417 84.748 8.055" fill="#231F20"/>
<path d="M88.4788 10.5167H87.3597V2.52084H88.4788V8.8625L92.7747 2.52084H93.8938V10.5167H92.7747V4.16167L88.4788 10.5167Z" fill="#231F20"/>
<path d="M100.905 3.49084H98.0713V4.8925C97.9372 8.35333 97.3855 10.5167 95.7438 10.5167H95.4147V9.54667H95.5813C96.6405 9.54667 96.9088 7.27917 96.998 4.54667V2.52084H101.951V10.5167H100.905V3.49084Z" fill="#231F20"/>
<path d="M105.186 2.52084V5.50417H106.365C108.365 5.47417 109.856 5.96667 109.856 7.995C109.856 10.0233 108.364 10.5158 106.439 10.5158H104.067V2.52084H105.186ZM108.603 7.99584C108.603 6.66834 107.633 6.50417 106.411 6.50417H105.186V9.5475H106.409C107.632 9.5475 108.601 9.2975 108.601 8.05584" fill="#231F20"/>
<path d="M117.552 10.5167H116.434V6.89167H112.227V10.5167H111.108V2.52084H112.227V5.92167H116.434V2.52084H117.553L117.552 10.5167Z" fill="#231F20"/>
<path d="M119.178 6.51834C119.111 5.98892 119.157 5.45124 119.314 4.94106C119.47 4.43088 119.734 3.9599 120.086 3.55945C120.439 3.159 120.873 2.83825 121.36 2.61854C121.846 2.39883 122.373 2.2852 122.907 2.2852C123.441 2.2852 123.968 2.39883 124.455 2.61854C124.941 2.83825 125.375 3.159 125.728 3.55945C126.081 3.9599 126.344 4.43088 126.501 4.94106C126.657 5.45124 126.704 5.98892 126.636 6.51834C126.704 7.04776 126.657 7.58544 126.501 8.09561C126.344 8.60579 126.081 9.07677 125.728 9.47722C125.375 9.87768 124.941 10.1984 124.455 10.4181C123.968 10.6378 123.441 10.7515 122.907 10.7515C122.373 10.7515 121.846 10.6378 121.36 10.4181C120.873 10.1984 120.439 9.87768 120.086 9.47722C119.734 9.07677 119.47 8.60579 119.314 8.09561C119.157 7.58544 119.111 7.04776 119.178 6.51834ZM125.518 6.51834C125.518 4.46 124.385 3.32584 122.922 3.32584C121.46 3.32584 120.296 4.47417 120.296 6.51834C120.296 8.5625 121.445 9.71084 122.892 9.71084C124.34 9.71084 125.488 8.5775 125.488 6.51834" fill="#231F20"/>
<path d="M133.723 2.52084V3.49084H129.41V5.92167H133.467V6.89167H129.41V9.54667H133.721V10.5167H128.293V2.52084H133.723Z" fill="#231F20"/>
<path d="M35.9538 0.4925C37.9429 0.459051 39.9189 0.82023 41.7675 1.55516C43.6161 2.29008 45.3007 3.38417 46.7239 4.77417C48.0977 6.1155 49.197 7.71162 49.9605 9.47333C50.7482 11.2952 51.1456 13.2619 51.1272 15.2467C51.1474 17.2316 50.7499 19.1986 49.9605 21.02C49.1976 22.7885 48.0935 24.3891 46.7114 25.7304C45.3292 27.0717 43.6961 28.1272 41.9055 28.8367C40.0178 29.631 37.9867 30.0282 35.9388 30.0033H24.6613V0.4925H35.9538ZM39.743 23.7167C40.8258 23.2764 41.8023 22.6101 42.6072 21.7625C43.4027 20.8938 44.0249 19.8813 44.4405 18.7792C44.8888 17.6384 45.1118 16.4215 45.0972 15.1958C45.1115 13.9615 44.8886 12.736 44.4405 11.5858C44.0198 10.5084 43.3976 9.52106 42.6072 8.67667C41.7923 7.84088 40.8184 7.17647 39.743 6.7225C38.5409 6.22721 37.254 5.9705 35.9538 5.96667H30.688V24.4667H35.9538C37.2564 24.4954 38.5496 24.2395 39.743 23.7167Z" fill="#231F20"/>
<path d="M9.90801 0C8.13787 0 6.40748 0.524908 4.93566 1.50835C3.46384 2.49179 2.31669 3.88959 1.63929 5.52498C0.961886 7.16038 0.784646 8.95993 1.12998 10.6961C1.47532 12.4322 2.32773 14.0269 3.57941 15.2786C4.83109 16.5303 6.42582 17.3827 8.16195 17.728C9.89808 18.0734 11.6976 17.8961 13.333 17.2187C14.9684 16.5413 16.3662 15.3942 17.3497 13.9224C18.3331 12.4505 18.858 10.7201 18.858 8.95C18.858 6.57631 17.9151 4.29985 16.2366 2.62139C14.5582 0.942944 12.2817 0 9.90801 0V0ZM9.90801 12.71C9.05489 12.6962 8.23276 12.3879 7.58091 11.8374C6.92906 11.2868 6.48757 10.5279 6.33124 9.68909C6.17491 8.8503 6.31334 7.98325 6.7231 7.23485C7.13285 6.48644 7.78872 5.90269 8.5796 5.5825C9.37048 5.26231 10.2477 5.22536 11.0627 5.47791C11.8777 5.73047 12.5804 6.257 13.0516 6.9683C13.5228 7.6796 13.7337 8.53193 13.6484 9.3809C13.5632 10.2299 13.1871 11.0233 12.5838 11.6267C12.2332 11.9774 11.8157 12.254 11.356 12.4401C10.8963 12.6262 10.4039 12.718 9.90801 12.71Z" fill="#231F20"/>
<path d="M136.467 25.9267H61.418V29.9842H136.467V25.9267Z" fill="url(#paint0_linear)"/>
<path d="M62.5363 22.0025H63.2863C63.4808 22.0177 63.6754 21.9749 63.8454 21.8793C64.0155 21.7838 64.1533 21.6398 64.2413 21.4658L64.3905 21.1825L61.403 14.8275H62.6113L64.9388 20.0183L67.0863 14.8275H68.3247L65.3413 21.5108C65.1929 21.9378 64.9177 22.3093 64.5526 22.5758C64.1876 22.8423 63.7499 22.9911 63.298 23.0025H62.4772L62.5363 22.0025Z" fill="#231F20"/>
<path d="M74.2922 15.7942H70.2922V22.805H69.1755V14.8275H75.4113V22.8083H74.2922V15.7942Z" fill="#231F20"/>
<path d="M83.3463 17.2442C83.3463 19.2283 81.9888 19.6608 80.0347 19.6608H78.6622V22.8233H77.5288V14.8275H80.0197C81.9738 14.8275 83.3313 15.26 83.3313 17.2442H83.3463ZM78.6472 18.7358H80.1388C81.3055 18.7358 82.2272 18.6167 82.2272 17.2442C82.2272 15.8717 81.3022 15.7525 80.1388 15.7525H78.6472V18.7358Z" fill="#231F20"/>
<path d="M87.0613 14.8275L90.0447 22.8233H88.8363L88.2097 21.0933H84.5697L83.943 22.8233H82.7947L85.778 14.8275H87.0613ZM87.8822 20.1233L86.3897 15.9608L84.898 20.1225L87.8822 20.1233Z" fill="#231F20"/>
<path d="M94.0722 14.8275C95.5638 14.8275 96.8763 15.215 96.8763 16.7967C96.8954 17.1412 96.8242 17.4848 96.6699 17.7934C96.5156 18.1021 96.2834 18.3652 95.9963 18.5567C96.3735 18.7021 96.6942 18.9644 96.9117 19.3053C97.1291 19.6461 97.2317 20.0475 97.2047 20.4508C97.2047 22.1517 95.9363 22.8225 94.3405 22.8225H91.193V14.8275H94.0722ZM94.2388 18.2442C95.1638 18.2442 95.7305 17.8858 95.7305 16.9467C95.7305 16.0075 95.1188 15.7683 94.2388 15.7683H92.3122V18.245L94.2388 18.2442ZM94.358 21.8692C95.4913 21.8692 96.0588 21.3767 96.0588 20.4667C96.0588 19.5567 95.4922 19.1392 94.2838 19.1392H92.3122V21.8692H94.358Z" fill="#231F20"/>
<path d="M103.531 15.7942H100.711V17.1817C100.591 20.6425 100.039 22.8208 98.398 22.8208H98.0555V21.8533H98.2222C99.2814 21.8533 99.5647 19.5708 99.7139 16.8408V14.8275H104.726V22.8233H103.593L103.531 15.7942Z" fill="#231F20"/>
<path d="M112.197 14.8275V15.7942H107.901V18.2108H111.944V19.195H107.901V21.835H112.197V22.805H106.781V14.8275H112.197Z" fill="#231F20"/>
<path d="M120.252 22.8083H119.134V19.1833H114.941V22.8083H113.808V14.8275H114.941V18.2108H119.133V14.8275H120.252V22.8083Z" fill="#231F20"/>
<path d="M123.504 22.8083H122.371V14.8275H123.504V21.1675L127.801 14.8275H128.92V22.8083H127.801V16.4683L123.504 22.8083Z" fill="#231F20"/>
<path d="M136.467 14.8275V15.7942H132.156V18.2108H136.214V19.195H132.156V21.835H136.467V22.805H131.037V14.8275H136.467Z" fill="#231F20"/>
</g>
<defs>
<linearGradient id="paint0_linear" x1="136.467" y1="27.9554" x2="88.2856" y2="27.9554" gradientUnits="userSpaceOnUse">
<stop stop-color="#7BBAFF"/>
<stop offset="1" stop-color="#CEEEDE"/>
</linearGradient>
<clipPath id="clip0">
<rect width="135.509" height="30" fill="white" transform="translate(0.958008)"/>
</clipPath>
</defs>
</svg>
