<svg width="126" height="30" viewBox="0 0 126 30" fill="none" xmlns="http://www.w3.org/2000/svg">
<g clip-path="url(#clip0)">
<path d="M34.9959 0.4925C36.9849 0.459051 38.9609 0.82023 40.8095 1.55516C42.6581 2.29008 44.3427 3.38417 45.7659 4.77417C47.1397 6.1155 48.239 7.71162 49.0025 9.47333C49.7902 11.2952 50.1876 13.2619 50.1692 15.2467C50.1894 17.2316 49.7919 19.1986 49.0025 21.02C48.2397 22.7885 47.1355 24.3891 45.7534 25.7304C44.3712 27.0717 42.7381 28.1272 40.9475 28.8367C39.0598 29.631 37.0288 30.0282 34.9809 30.0033H23.7034V0.4925H34.9959ZM38.785 23.7167C39.8679 23.2764 40.8443 22.6101 41.6492 21.7625C42.4447 20.8938 43.0669 19.8813 43.4825 18.7792C43.9308 17.6384 44.1538 16.4215 44.1392 15.1958C44.1535 13.9615 43.9306 12.736 43.4825 11.5858C43.0619 10.5084 42.4396 9.52106 41.6492 8.67667C40.8343 7.84088 39.8605 7.17647 38.785 6.7225C37.5829 6.22721 36.296 5.9705 34.9959 5.96667H29.73V24.4667H34.9959C36.2985 24.4955 37.5916 24.2395 38.785 23.7167Z" fill="#231F20"/>
<path d="M8.95 0C7.17986 0 5.44947 0.524908 3.97765 1.50835C2.50583 2.49179 1.35869 3.88959 0.681282 5.52498C0.00387788 7.16038 -0.173362 8.95993 0.171976 10.6961C0.517313 12.4322 1.36972 14.0269 2.6214 15.2786C3.87308 16.5303 5.46782 17.3827 7.20395 17.728C8.94008 18.0734 10.7396 17.8961 12.375 17.2187C14.0104 16.5413 15.4082 15.3942 16.3917 13.9224C17.3751 12.4505 17.9 10.7201 17.9 8.95C17.9 6.57631 16.9571 4.29985 15.2786 2.62139C13.6002 0.942944 11.3237 0 8.95 0V0ZM8.95 12.71C8.09688 12.6962 7.27475 12.3879 6.6229 11.8374C5.97105 11.2868 5.52956 10.5279 5.37323 9.68909C5.2169 8.8503 5.35534 7.98325 5.76509 7.23485C6.17484 6.48644 6.83072 5.90269 7.62159 5.5825C8.41247 5.26231 9.28972 5.22536 10.1047 5.47791C10.9197 5.73047 11.6224 6.257 12.0936 6.9683C12.5648 7.6796 12.7757 8.53193 12.6904 9.3809C12.6052 10.2299 12.2291 11.0233 11.6258 11.6267C11.2752 11.9774 10.8576 12.254 10.398 12.4401C9.93828 12.6262 9.44587 12.718 8.95 12.71Z" fill="#231F20"/>
<path d="M61.6233 3.40083V10.6167H60.4567V2.34167H62.4108L64.5292 9.24833L66.6508 2.34167H68.6017V10.6167H67.4267V3.40083L65.1442 10.6167H63.9058L61.6233 3.40083Z" fill="#231F20"/>
<path d="M70.2759 6.47417C70.2171 5.92875 70.2738 5.37706 70.4423 4.855C70.6108 4.33294 70.8873 3.8522 71.2538 3.44404C71.6203 3.03588 72.0687 2.70946 72.5697 2.48601C73.0707 2.26255 73.6131 2.14706 74.1617 2.14706C74.7103 2.14706 75.2527 2.26255 75.7537 2.48601C76.2547 2.70946 76.703 3.03588 77.0696 3.44404C77.4361 3.8522 77.7126 4.33294 77.8811 4.855C78.0496 5.37706 78.1063 5.92875 78.0475 6.47417C78.1063 7.01959 78.0496 7.57127 77.8811 8.09333C77.7126 8.6154 77.4361 9.09614 77.0696 9.5043C76.703 9.91245 76.2547 10.2389 75.7537 10.4623C75.2527 10.6858 74.7103 10.8013 74.1617 10.8013C73.6131 10.8013 73.0707 10.6858 72.5697 10.4623C72.0687 10.2389 71.6203 9.91245 71.2538 9.5043C70.8873 9.09614 70.6108 8.6154 70.4423 8.09333C70.2738 7.57127 70.2171 7.01959 70.2759 6.47417ZM76.8692 6.47417C76.8692 4.34083 75.6758 3.1775 74.1692 3.1775C72.6625 3.1775 71.4692 4.34417 71.4692 6.47417C71.4692 8.60417 72.6625 9.80083 74.1692 9.80083C75.6758 9.80083 76.8692 8.6225 76.8692 6.47417Z" fill="#231F20"/>
<path d="M80.8966 10.6217H79.73V2.3425H80.8966V8.95083L85.3716 2.3725H86.52V10.6225H85.3583V4.0425L80.8966 10.6217ZM83.1466 1.88C81.8341 1.88 81.1925 1.28333 81.0733 0.5075H81.9533C81.9533 0.94 82.4458 1.17917 83.1616 1.17917C83.8775 1.17917 84.295 0.929166 84.385 0.5075H85.265C85.1758 1.28333 84.5041 1.88 83.1466 1.88Z" fill="#231F20"/>
<path d="M61.6233 18.8558V22.63H60.4567V14.3358H61.6233V17.8567H62.4567L65.2483 14.3358H66.6508L63.4583 18.2592L66.7683 22.63H65.3825L62.4883 18.8558H61.6233Z" fill="#231F20"/>
<path d="M67.1283 18.4825C67.0696 17.9371 67.1263 17.3854 67.2947 16.8633C67.4632 16.3413 67.7397 15.8605 68.1063 15.4524C68.4728 15.0442 68.9211 14.7178 69.4222 14.4943C69.9232 14.2709 70.4656 14.1554 71.0142 14.1554C71.5627 14.1554 72.1052 14.2709 72.6062 14.4943C73.1072 14.7178 73.5555 15.0442 73.9221 15.4524C74.2886 15.8605 74.5651 16.3413 74.7336 16.8633C74.9021 17.3854 74.9588 17.9371 74.9 18.4825C74.9588 19.0279 74.9021 19.5796 74.7336 20.1017C74.5651 20.6237 74.2886 21.1045 73.9221 21.5126C73.5555 21.9208 73.1072 22.2472 72.6062 22.4707C72.1052 22.6941 71.5627 22.8096 71.0142 22.8096C70.4656 22.8096 69.9232 22.6941 69.4222 22.4707C68.9211 22.2472 68.4728 21.9208 68.1063 21.5126C67.7397 21.1045 67.4632 20.6237 67.2947 20.1017C67.1263 19.5796 67.0696 19.0279 67.1283 18.4825ZM73.7067 18.4825C73.7067 16.3342 72.5283 15.1708 71.0217 15.1708C69.515 15.1708 68.3217 16.3375 68.3217 18.4825C68.3217 20.6275 69.5 21.7942 71.0217 21.7942C72.5433 21.7942 73.7067 20.6158 73.7067 18.4825Z" fill="#231F20"/>
<path d="M77.6925 15.4108V22.6308H76.5258V14.3358H78.48L80.5983 21.2442L82.7016 14.3358H84.6558V22.63H83.4891V15.4108L81.2066 22.6308H79.9717L77.6925 15.4108Z" fill="#231F20"/>
<path d="M94.755 18.4825C94.7581 18.9577 94.6632 19.4285 94.4763 19.8655C94.2895 20.3025 94.0146 20.6963 93.6689 21.0224C93.3232 21.3484 92.914 21.5998 92.4669 21.7609C92.0198 21.9219 91.5442 21.9891 91.07 21.9583V22.9283H89.8925V21.9583C89.4256 21.9655 88.962 21.8798 88.5286 21.7061C88.0952 21.5324 87.7006 21.2742 87.368 20.9466C87.0353 20.619 86.7711 20.2285 86.5907 19.7978C86.4104 19.3671 86.3175 18.9048 86.3175 18.4379C86.3175 17.971 86.4104 17.5087 86.5907 17.078C86.7711 16.6474 87.0353 16.2568 87.368 15.9292C87.7006 15.6016 88.0952 15.3434 88.5286 15.1698C88.962 14.9961 89.4256 14.9103 89.8925 14.9175V13.8883H91.0708V14.9175C91.5516 14.8906 92.0328 14.9634 92.4841 15.1315C92.9354 15.2995 93.347 15.5591 93.6931 15.894C94.0392 16.2288 94.3123 16.6316 94.4952 17.0771C94.6781 17.5226 94.7668 18.0011 94.7558 18.4825H94.755ZM87.3867 18.4825C87.3766 18.8157 87.4343 19.1475 87.5562 19.4577C87.6782 19.768 87.8619 20.0502 88.0962 20.2873C88.3305 20.5245 88.6106 20.7115 88.9193 20.8372C89.2281 20.9628 89.5592 21.0245 89.8925 21.0183V15.8875C89.556 15.8789 89.2213 15.9399 88.9094 16.0667C88.5976 16.1934 88.3152 16.3831 88.08 16.6239C87.8448 16.8647 87.6618 17.1515 87.5425 17.4663C87.4232 17.7811 87.3702 18.1171 87.3867 18.4533V18.4825ZM93.5625 18.4533C93.5767 18.1189 93.5225 17.7851 93.4034 17.4724C93.2842 17.1596 93.1025 16.8745 92.8693 16.6343C92.6362 16.3942 92.3565 16.2041 92.0475 16.0757C91.7384 15.9473 91.4063 15.8832 91.0717 15.8875V20.9892C91.4043 20.9954 91.7347 20.9337 92.0427 20.8079C92.3507 20.6821 92.6298 20.4948 92.8629 20.2574C93.0961 20.0201 93.2784 19.7377 93.3986 19.4275C93.5189 19.1173 93.5747 18.7858 93.5625 18.4533Z" fill="#231F20"/>
<path d="M95.8291 18.4825C95.7704 17.9371 95.8271 17.3854 95.9956 16.8633C96.164 16.3413 96.4405 15.8605 96.8071 15.4524C97.1736 15.0442 97.622 14.7178 98.123 14.4943C98.624 14.2709 99.1664 14.1554 99.715 14.1554C100.264 14.1554 100.806 14.2709 101.307 14.4943C101.808 14.7178 102.256 15.0442 102.623 15.4524C102.989 15.8605 103.266 16.3413 103.434 16.8633C103.603 17.3854 103.66 17.9371 103.601 18.4825C103.66 19.0279 103.603 19.5796 103.434 20.1017C103.266 20.6237 102.989 21.1045 102.623 21.5126C102.256 21.9208 101.808 22.2472 101.307 22.4707C100.806 22.6941 100.264 22.8096 99.715 22.8096C99.1664 22.8096 98.624 22.6941 98.123 22.4707C97.622 22.2472 97.1736 21.9208 96.8071 21.5126C96.4405 21.1045 96.164 20.6237 95.9956 20.1017C95.8271 19.5796 95.7704 19.0279 95.8291 18.4825ZM102.422 18.4825C102.422 16.3342 101.229 15.1708 99.7225 15.1708C98.2158 15.1708 96.9625 16.4092 96.9625 18.4825C96.9625 20.5558 98.1558 21.7942 99.6625 21.7942C101.169 21.7942 102.362 20.6158 102.362 18.4825" fill="#231F20"/>
<path d="M111.327 16.8417C111.327 18.9 109.911 19.3475 107.882 19.3475H106.39V22.6292H105.223V14.3358H107.819C109.848 14.3358 111.265 14.7983 111.265 16.8417H111.327ZM106.387 18.3333H107.878C109.087 18.3333 110.045 18.1992 110.045 16.8417C110.045 15.4842 109.09 15.35 107.878 15.35H106.387V18.3333Z" fill="#231F20"/>
<path d="M111.492 15.35V14.3358H118.056V15.35H115.356V22.63H114.189V15.35H111.492Z" fill="#231F20"/>
<path d="M121.413 19.2883H118.829V18.3033H121.413V15.7825H122.457V18.3033H125.053V19.2875H122.457V21.8708H121.413V19.2883Z" fill="#231F20"/>
<path d="M125.038 25.9267H60.46V29.9842H125.038V25.9267Z" fill="url(#paint0_linear)"/>
</g>
<defs>
<linearGradient id="paint0_linear" x1="125.038" y1="27.9554" x2="60.46" y2="27.9554" gradientUnits="userSpaceOnUse">
<stop stop-color="#FFA3B1"/>
<stop offset="1" stop-color="#FFE4AA"/>
</linearGradient>
<clipPath id="clip0">
<rect width="125.053" height="30" fill="white"/>
</clipPath>
</defs>
</svg>
