<svg width="119" height="30" viewBox="0 0 119 30" fill="none" xmlns="http://www.w3.org/2000/svg">
<g clip-path="url(#clip0)">
<path d="M118.692 25.9417H61.096V29.9992H118.692V25.9417Z" fill="url(#paint0_linear)"/>
<path d="M35.6318 0.507498C37.6193 0.476141 39.5935 0.836827 41.4415 1.56893C43.2895 2.30104 44.975 3.39021 46.4018 4.77416C47.7759 6.11543 48.8756 7.71155 49.6393 9.47333C50.427 11.2952 50.8244 13.2619 50.806 15.2467C50.8275 17.2317 50.43 19.199 49.6393 21.02C48.8764 22.7885 47.7723 24.3891 46.3902 25.7304C45.008 27.0717 43.3749 28.1272 41.5843 28.8367C39.6966 29.631 37.6655 30.0282 35.6177 30.0033H24.3393V0.507498H35.6318ZM39.421 23.7192C40.5067 23.2843 41.4842 22.6173 42.2852 21.765C43.0806 20.8963 43.7029 19.8838 44.1185 18.7817C44.5668 17.6409 44.7898 16.424 44.7752 15.1983C44.7895 13.964 44.5666 12.7385 44.1185 11.5883C43.694 10.5128 43.0722 9.52619 42.2852 8.67916C41.4702 7.84338 40.4964 7.17897 39.421 6.725C38.2192 6.228 36.9323 5.96958 35.6318 5.96416H30.366V24.48H35.6318C36.9352 24.5054 38.2284 24.2457 39.421 23.7192Z" fill="#231F20"/>
<path d="M9.58665 3.88065e-08C7.81627 -0.000164778 6.0856 0.524673 4.61352 1.50814C3.14143 2.49161 1.99405 3.88953 1.31648 5.52511C0.638914 7.1607 0.461587 8.96048 0.80693 10.6968C1.15227 12.4332 2.00477 14.0282 3.25662 15.28C4.50847 16.5319 6.10343 17.3844 7.8398 17.7297C9.57617 18.0751 11.376 17.8977 13.0115 17.2202C14.6471 16.5426 16.045 15.3952 17.0285 13.9231C18.012 12.451 18.5368 10.7204 18.5366 8.95C18.5364 6.57638 17.5934 4.30004 15.915 2.62164C14.2366 0.943236 11.9603 0.000221015 9.58665 3.88065e-08ZM9.58665 12.71C8.73353 12.6962 7.9114 12.3879 7.25955 11.8374C6.6077 11.2868 6.16621 10.5279 6.00988 9.68909C5.85354 8.8503 5.99198 7.98325 6.40173 7.23485C6.81149 6.48644 7.46736 5.90269 8.25824 5.5825C9.04911 5.26231 9.92636 5.22536 10.7414 5.47791C11.5564 5.73047 12.259 6.257 12.7302 6.9683C13.2015 7.6796 13.4123 8.53193 13.3271 9.38089C13.2418 10.2299 12.8657 11.0233 12.2625 11.6267C11.9119 11.9774 11.4943 12.254 11.0346 12.4401C10.5749 12.6262 10.0825 12.718 9.58665 12.71Z" fill="#231F20"/>
<path d="M62.2593 3.40083V10.6358H61.0926V2.34167H63.0468L65.1651 9.24833L67.2868 2.34167H69.2376V10.6358H68.0626V3.40083L65.7801 10.6358H64.5418L62.2593 3.40083Z" fill="#231F20"/>
<path d="M70.9118 6.47417C70.853 5.92875 70.9097 5.37706 71.0782 4.855C71.2467 4.33294 71.5232 3.8522 71.8897 3.44404C72.2563 3.03588 72.7046 2.70946 73.2056 2.48601C73.7066 2.26255 74.2491 2.14706 74.7976 2.14706C75.3462 2.14706 75.8887 2.26255 76.3897 2.48601C76.8907 2.70946 77.339 3.03588 77.7055 3.44404C78.0721 3.8522 78.3486 4.33294 78.5171 4.855C78.6856 5.37706 78.7423 5.92875 78.6835 6.47417C78.7423 7.01959 78.6856 7.57127 78.5171 8.09333C78.3486 8.6154 78.0721 9.09614 77.7055 9.5043C77.339 9.91245 76.8907 10.2389 76.3897 10.4623C75.8887 10.6858 75.3462 10.8013 74.7976 10.8013C74.2491 10.8013 73.7066 10.6858 73.2056 10.4623C72.7046 10.2389 72.2563 9.91245 71.8897 9.5043C71.5232 9.09614 71.2467 8.6154 71.0782 8.09333C70.9097 7.57127 70.853 7.01959 70.9118 6.47417ZM77.5052 6.47417C77.5052 4.34083 76.3118 3.1775 74.8051 3.1775C73.2985 3.1775 72.1051 4.34417 72.1051 6.47417C72.1051 8.60417 73.2985 9.80083 74.8051 9.80083C76.3118 9.80083 77.5052 8.6225 77.5052 6.47417Z" fill="#231F20"/>
<path d="M81.5327 10.6367H80.366V2.3425H81.5327V8.95083L86.0077 2.3725H87.156V10.6367H85.9943V4.0425L81.5327 10.6367ZM83.7827 1.88C82.4702 1.88 81.8285 1.28333 81.7093 0.5075H82.5893C82.5893 0.94 83.0818 1.19333 83.7977 1.19333C84.5135 1.19333 84.9343 0.925 85.0235 0.5075H85.9035C85.8143 1.28333 85.1427 1.88 83.7852 1.88" fill="#231F20"/>
<path d="M62.2593 18.9V22.6742H61.0926V14.38H62.2593V17.9008H63.0926L65.8843 14.38H67.2868L64.0943 18.3033L67.4043 22.6742H66.0185L63.1243 18.9H62.2593Z" fill="#231F20"/>
<path d="M67.7643 18.5275C67.7055 17.9821 67.7622 17.4304 67.9307 16.9083C68.0992 16.3863 68.3757 15.9055 68.7423 15.4974C69.1088 15.0892 69.5571 14.7628 70.0581 14.5393C70.5591 14.3159 71.1016 14.2004 71.6502 14.2004C72.1987 14.2004 72.7412 14.3159 73.2422 14.5393C73.7432 14.7628 74.1915 15.0892 74.5581 15.4974C74.9246 15.9055 75.2011 16.3863 75.3696 16.9083C75.5381 17.4304 75.5948 17.9821 75.536 18.5275C75.5948 19.0729 75.5381 19.6246 75.3696 20.1467C75.2011 20.6687 74.9246 21.1495 74.5581 21.5576C74.1915 21.9658 73.7432 22.2922 73.2422 22.5157C72.7412 22.7391 72.1987 22.8546 71.6502 22.8546C71.1016 22.8546 70.5591 22.7391 70.0581 22.5157C69.5571 22.2922 69.1088 21.9658 68.7423 21.5576C68.3757 21.1495 68.0992 20.6687 67.9307 20.1467C67.7622 19.6246 67.7055 19.0729 67.7643 18.5275ZM74.3427 18.5275C74.3427 16.3792 73.1643 15.2158 71.6577 15.2158C70.151 15.2158 68.9577 16.3825 68.9577 18.5275C68.9577 20.6725 70.136 21.8392 71.6577 21.8392C73.1793 21.8392 74.3427 20.6608 74.3427 18.5275Z" fill="#231F20"/>
<path d="M78.3285 15.4542V22.6742H77.1618V14.38H79.116L81.2343 21.2867L83.3376 14.38H85.2918V22.6742H84.1251V15.4542L81.8426 22.6742H80.6076L78.3285 15.4542Z" fill="#231F20"/>
<path d="M95.391 18.5267C95.394 19.0019 95.2992 19.4727 95.1123 19.9097C94.9255 20.3466 94.6506 20.7404 94.3049 21.0665C93.9592 21.3926 93.55 21.644 93.1029 21.805C92.6557 21.9661 92.1802 22.0333 91.706 22.0025V22.9725H90.5285V22.0025C90.0616 22.0097 89.598 21.9239 89.1646 21.7502C88.7312 21.5765 88.3366 21.3184 88.0039 20.9908C87.6712 20.6632 87.407 20.2726 87.2267 19.842C87.0463 19.4113 86.9535 18.949 86.9535 18.4821C86.9535 18.0152 87.0463 17.5529 87.2267 17.1222C87.407 16.6915 87.6712 16.301 88.0039 15.9734C88.3366 15.6458 88.7312 15.3876 89.1646 15.2139C89.598 15.0402 90.0616 14.9545 90.5285 14.9617V13.9325H91.7068V14.9167C92.1876 14.8899 92.6688 14.9628 93.12 15.131C93.5713 15.2991 93.9828 15.5588 94.3289 15.8937C94.6749 16.2287 94.9479 16.6315 95.1307 17.077C95.3134 17.5226 95.4021 18.0011 95.391 18.4825V18.5267ZM88.0218 18.4825C88.0117 18.8157 88.0694 19.1475 88.1914 19.4577C88.3133 19.768 88.497 20.0502 88.7314 20.2874C88.9657 20.5245 89.2457 20.7115 89.5545 20.8372C89.8633 20.9628 90.1943 21.0245 90.5276 21.0183V15.935C90.1911 15.9265 89.8565 15.9874 89.5446 16.1142C89.2327 16.2409 88.9503 16.4306 88.7151 16.6714C88.4799 16.9122 88.297 17.199 88.1777 17.5138C88.0584 17.8286 88.0053 18.1646 88.0218 18.5008V18.4825ZM94.1976 18.5008C94.2118 18.1664 94.1577 17.8327 94.0385 17.5199C93.9193 17.2071 93.7376 16.922 93.5045 16.6818C93.2713 16.4417 92.9917 16.2516 92.6826 16.1232C92.3735 15.9948 92.0415 15.9307 91.7068 15.935V21.0367C92.0389 21.0408 92.3683 20.9776 92.6753 20.851C92.9823 20.7245 93.2606 20.5371 93.4933 20.3002C93.726 20.0633 93.9083 19.7817 94.0294 19.4725C94.1504 19.1633 94.2077 18.8328 94.1976 18.5008Z" fill="#231F20"/>
<path d="M96.4651 18.5275C96.4064 17.9821 96.4631 17.4304 96.6316 16.9083C96.8 16.3863 97.0766 15.9055 97.4431 15.4974C97.8096 15.0892 98.258 14.7628 98.759 14.5393C99.26 14.3159 99.8024 14.2004 100.351 14.2004C100.9 14.2004 101.442 14.3159 101.943 14.5393C102.444 14.7628 102.892 15.0892 103.259 15.4974C103.625 15.9055 103.902 16.3863 104.07 16.9083C104.239 17.4304 104.296 17.9821 104.237 18.5275C104.296 19.0729 104.239 19.6246 104.07 20.1467C103.902 20.6687 103.625 21.1495 103.259 21.5576C102.892 21.9658 102.444 22.2922 101.943 22.5157C101.442 22.7391 100.9 22.8546 100.351 22.8546C99.8024 22.8546 99.26 22.7391 98.759 22.5157C98.258 22.2922 97.8096 21.9658 97.4431 21.5576C97.0766 21.1495 96.8 20.6687 96.6316 20.1467C96.4631 19.6246 96.4064 19.0729 96.4651 18.5275ZM103.058 18.5275C103.058 16.3792 101.865 15.2158 100.358 15.2158C98.8518 15.2158 97.5985 16.4092 97.5985 18.5275C97.5985 20.6458 98.7918 21.8392 100.298 21.8392C101.805 21.8392 102.998 20.6608 102.998 18.5275" fill="#231F20"/>
<path d="M111.963 16.8858C111.963 18.9442 110.547 19.3917 108.518 19.3917H107.026V22.6733H105.859V14.38H108.455C110.484 14.38 111.901 14.8425 111.901 16.8858H111.963ZM107.023 18.3775H108.514C109.723 18.3775 110.681 18.2433 110.681 16.8858C110.681 15.5283 109.726 15.3942 108.514 15.3942H107.023V18.3775Z" fill="#231F20"/>
<path d="M112.128 15.3942V14.38H118.692V15.3942H115.992V22.6742H114.825V15.3942H112.128Z" fill="#231F20"/>
</g>
<defs>
<linearGradient id="paint0_linear" x1="61.096" y1="27.9704" x2="104.926" y2="27.9704" gradientUnits="userSpaceOnUse">
<stop stop-color="#A0B1FF"/>
<stop offset="1" stop-color="#FFDCD6"/>
</linearGradient>
<clipPath id="clip0">
<rect width="118.056" height="30" fill="white" transform="translate(0.635986)"/>
</clipPath>
</defs>
</svg>
