<svg width="151" height="30" viewBox="0 0 151 30" fill="none" xmlns="http://www.w3.org/2000/svg">
<g clip-path="url(#clip0)">
<path d="M35.2988 0.4925C37.2879 0.459051 39.2638 0.82023 41.1125 1.55516C42.9611 2.29008 44.6457 3.38417 46.0688 4.77417C47.4423 6.11575 48.5417 7.71181 49.3055 9.47333C50.0931 11.2952 50.4906 13.2619 50.4722 15.2467C50.4906 17.2314 50.0931 19.1981 49.3055 21.02C47.7621 24.5898 44.865 27.4011 41.2505 28.8367C39.3628 29.631 37.3317 30.0282 35.2838 30.0033H24.0063V0.4925H35.2988ZM39.088 23.7167C40.1706 23.2759 41.147 22.6098 41.9522 21.7625C42.7462 20.8928 43.3683 19.8805 43.7855 18.7792C44.2345 17.6386 44.4576 16.4215 44.4422 15.1958C44.4569 13.9615 44.2339 12.7359 43.7855 11.5858C43.3638 10.5089 42.7417 9.52172 41.9522 8.67667C41.1375 7.84057 40.1636 7.17611 39.088 6.7225C37.8858 6.22758 36.5989 5.97088 35.2988 5.96667H30.033V24.4667H35.2988C36.6014 24.4954 37.8946 24.2395 39.088 23.7167Z" fill="#231F20"/>
<path d="M9.25298 0C7.48284 0 5.75244 0.524908 4.28062 1.50835C2.8088 2.49179 1.66166 3.88959 0.984256 5.52498C0.306852 7.16038 0.129612 8.95993 0.47495 10.6961C0.820287 12.4322 1.67269 14.0269 2.92437 15.2786C4.17605 16.5303 5.77079 17.3827 7.50692 17.728C9.24305 18.0734 11.0426 17.8961 12.678 17.2187C14.3134 16.5413 15.7112 15.3942 16.6946 13.9224C17.6781 12.4505 18.203 10.7201 18.203 8.95C18.203 6.57631 17.26 4.29985 15.5816 2.62139C13.9031 0.942944 11.6267 0 9.25298 0V0ZM9.25298 12.71C8.27719 12.6943 7.34714 12.2936 6.66545 11.5952C5.98375 10.8969 5.60565 9.95741 5.61351 8.98152C5.62137 8.00563 6.01456 7.07239 6.70741 6.3851C7.40026 5.6978 8.33664 5.31215 9.31256 5.31215C10.2885 5.31215 11.2249 5.6978 11.9177 6.3851C12.6106 7.07239 13.0037 8.00563 13.0116 8.98152C13.0195 9.95741 12.6414 10.8969 11.9597 11.5952C11.278 12.2936 10.3479 12.6943 9.37214 12.71H9.25298Z" fill="#231F20"/>
<path d="M61.9263 3.40083V10.6167H60.7597V2.34167H62.7138L64.8322 9.24833L66.9538 2.34167H68.9047V10.6167H67.7297V3.40083L65.4472 10.6167H64.2088L61.9263 3.40083Z" fill="#231F20"/>
<path d="M70.5788 6.47417C70.52 5.92875 70.5767 5.37706 70.7452 4.855C70.9137 4.33294 71.1902 3.8522 71.5568 3.44404C71.9233 3.03588 72.3716 2.70946 72.8726 2.48601C73.3736 2.26255 73.9161 2.14706 74.4647 2.14706C75.0132 2.14706 75.5557 2.26255 76.0567 2.48601C76.5577 2.70946 77.006 3.03588 77.3726 3.44404C77.7391 3.8522 78.0156 4.33294 78.1841 4.855C78.3526 5.37706 78.4093 5.92875 78.3505 6.47417C78.4093 7.01959 78.3526 7.57127 78.1841 8.09333C78.0156 8.6154 77.7391 9.09614 77.3726 9.5043C77.006 9.91245 76.5577 10.2389 76.0567 10.4623C75.5557 10.6858 75.0132 10.8013 74.4647 10.8013C73.9161 10.8013 73.3736 10.6858 72.8726 10.4623C72.3716 10.2389 71.9233 9.91245 71.5568 9.5043C71.1902 9.09614 70.9137 8.6154 70.7452 8.09333C70.5767 7.57127 70.52 7.01959 70.5788 6.47417ZM77.1722 6.47417C77.1722 4.34083 75.9788 3.1775 74.4722 3.1775C72.9655 3.1775 71.7722 4.34417 71.7722 6.47417C71.7722 8.60417 72.9655 9.80083 74.4722 9.80083C75.9788 9.80083 77.1722 8.6225 77.1722 6.47417Z" fill="#231F20"/>
<path d="M81.1996 10.6217H80.033V2.3425H81.1996V8.95083L85.6746 2.3725H86.823V10.6225H85.6613V4.0425L81.1996 10.6217ZM83.4496 1.88C82.1371 1.88 81.4955 1.28333 81.3763 0.5075H82.2563C82.2563 0.94 82.7488 1.17917 83.4646 1.17917C84.1805 1.17917 84.598 0.929166 84.688 0.5075H85.568C85.4788 1.28333 84.8071 1.88 83.4496 1.88Z" fill="#231F20"/>
<path d="M94.4163 6.8475V10.6217H93.2497V2.3275H94.4163V5.84833H95.2497L98.0413 2.3275H99.4438L96.2513 6.25083L99.563 10.6217H98.1755L95.2822 6.8475H94.4163Z" fill="#231F20"/>
<path d="M99.9213 6.47417C99.8625 5.92875 99.9192 5.37706 100.088 4.855C100.256 4.33294 100.533 3.8522 100.899 3.44404C101.266 3.03588 101.714 2.70946 102.215 2.48601C102.716 2.26255 103.259 2.14706 103.807 2.14706C104.356 2.14706 104.898 2.26255 105.399 2.48601C105.9 2.70946 106.349 3.03588 106.715 3.44404C107.082 3.8522 107.358 4.33294 107.527 4.855C107.695 5.37706 107.752 5.92875 107.693 6.47417C107.752 7.01959 107.695 7.57127 107.527 8.09333C107.358 8.6154 107.082 9.09614 106.715 9.5043C106.349 9.91245 105.9 10.2389 105.399 10.4623C104.898 10.6858 104.356 10.8013 103.807 10.8013C103.259 10.8013 102.716 10.6858 102.215 10.4623C101.714 10.2389 101.266 9.91245 100.899 9.5043C100.533 9.09614 100.256 8.6154 100.088 8.09333C99.9192 7.57127 99.8625 7.01959 99.9213 6.47417ZM106.5 6.47417C106.5 4.32583 105.321 3.1625 103.815 3.1625C102.308 3.1625 101.115 4.32917 101.115 6.47417C101.115 8.61917 102.293 9.78583 103.815 9.78583C105.336 9.78583 106.5 8.6075 106.5 6.47417Z" fill="#231F20"/>
<path d="M110.482 3.40167V10.6217H109.315V2.3275H111.27L113.388 9.23417L115.495 2.3275H117.449V10.6217H116.282V3.40167L114.002 10.6217H112.765L110.482 3.40167Z" fill="#231F20"/>
<path d="M127.549 6.47416C127.553 7.38945 127.194 8.26906 126.551 8.92048C125.908 9.57189 125.033 9.94207 124.118 9.95H123.88V10.92H122.63V9.95C122.129 10.0236 121.619 9.98858 121.134 9.84731C120.648 9.70604 120.199 9.46183 119.816 9.13131C119.433 8.80079 119.126 8.39171 118.916 7.9319C118.705 7.47209 118.596 6.97234 118.596 6.46666C118.596 5.96098 118.705 5.46124 118.916 5.00143C119.126 4.54162 119.433 4.13254 119.816 3.80202C120.199 3.47149 120.648 3.22729 121.134 3.08602C121.619 2.94475 122.129 2.90972 122.63 2.98333V1.88H123.808V2.98416C124.731 2.91841 125.643 3.22028 126.344 3.82395C127.045 4.42761 127.48 5.28411 127.552 6.20666V6.475L127.549 6.47416ZM120.183 6.475C120.181 6.79827 120.243 7.11877 120.365 7.41819C120.486 7.71761 120.666 7.99008 120.893 8.22007C121.121 8.45005 121.391 8.63302 121.689 8.75855C121.987 8.88408 122.306 8.9497 122.63 8.95166V3.87916C122.308 3.8713 121.989 3.9268 121.689 4.04249C121.389 4.15818 121.115 4.3318 120.882 4.55343C120.65 4.77506 120.463 5.04036 120.333 5.33418C120.203 5.62799 120.132 5.94457 120.124 6.26583V6.445L120.183 6.475ZM126.3 6.445C126.328 5.80182 126.104 5.17302 125.674 4.69339C125.245 4.21376 124.645 3.92146 124.002 3.87916H123.868V8.95083C124.511 8.96165 125.132 8.71898 125.597 8.27532C126.063 7.83165 126.335 7.22264 126.355 6.58V6.445" fill="#231F20"/>
<path d="M128.592 6.47417C128.533 5.92875 128.59 5.37706 128.759 4.855C128.927 4.33294 129.204 3.8522 129.57 3.44404C129.937 3.03588 130.385 2.70946 130.886 2.48601C131.387 2.26255 131.929 2.14706 132.478 2.14706C133.027 2.14706 133.569 2.26255 134.07 2.48601C134.571 2.70946 135.019 3.03588 135.386 3.44404C135.752 3.8522 136.029 4.33294 136.197 4.855C136.366 5.37706 136.423 5.92875 136.364 6.47417C136.423 7.01959 136.366 7.57127 136.197 8.09333C136.029 8.6154 135.752 9.09614 135.386 9.5043C135.019 9.91245 134.571 10.2389 134.07 10.4623C133.569 10.6858 133.027 10.8013 132.478 10.8013C131.929 10.8013 131.387 10.6858 130.886 10.4623C130.385 10.2389 129.937 9.91245 129.57 9.5043C129.204 9.09614 128.927 8.6154 128.759 8.09333C128.59 7.57127 128.533 7.01959 128.592 6.47417ZM135.185 6.47417C135.185 4.32583 133.992 3.1625 132.485 3.1625C132.084 3.19011 131.691 3.29882 131.333 3.48208C130.974 3.66535 130.656 3.91937 130.398 4.22883C130.14 4.53828 129.948 4.89677 129.832 5.28267C129.716 5.66857 129.68 6.07388 129.725 6.47417C129.725 8.5475 130.919 9.78583 132.425 9.78583C133.932 9.78583 135.125 8.6075 135.125 6.47417" fill="#231F20"/>
<path d="M144.12 4.83333C144.12 6.89167 142.629 7.33917 140.675 7.33917H139.183V10.6208H138.016V2.3275H140.612C142.641 2.3275 144.058 2.79 144.058 4.83333H144.12ZM139.18 6.325H140.671C141.88 6.325 142.838 6.19083 142.838 4.83333C142.838 3.47583 141.883 3.34167 140.671 3.34167H139.18V6.325Z" fill="#231F20"/>
<path d="M144.285 3.34167V2.3275H150.852V3.34167H148.152V10.6217H146.985V3.34167H144.285Z" fill="#231F20"/>
<path d="M150.849 25.9267H60.763V29.9842H150.849V25.9267Z" fill="url(#paint0_linear)"/>
<path d="M66.0438 23.0925V15.8275H61.9113V23.0925H60.7446V14.8283H67.2038V23.0925H66.0438Z" fill="#231F20"/>
<path d="M71.9947 14.8283C74.0088 14.8283 75.4255 15.2908 75.4255 17.3342C75.4255 19.3775 73.9338 19.825 71.9947 19.825H70.503V23.0917H69.3363V14.8283H71.9947ZM70.503 15.8125V18.795H71.9947C73.218 18.795 74.143 18.6758 74.143 17.3033C74.143 15.9308 73.218 15.8117 71.9947 15.8117L70.503 15.8125Z" fill="#231F20"/>
<path d="M76.6955 14.8283H82.3488V15.8283H77.8738V18.3492H82.0505V19.3933H77.8738V22.1383H82.3488V23.1383H76.6955V14.8283Z" fill="#231F20"/>
<path d="M87.4205 23.0925L85.138 15.8875V23.0925H83.9713V14.8283H85.9255L88.0288 21.72L90.1497 14.8283H92.1038V23.0925H90.9372V15.8875L88.6547 23.0925H87.4205Z" fill="#231F20"/>
<path d="M99.9063 16.5292L95.4313 23.0925H94.2821V14.8283H95.4488V21.3917L99.9238 14.8283H101.09V23.0925H99.9238L99.9063 16.5292Z" fill="#231F20"/>
<path d="M103.426 23.2567V22.2567H104.202C104.405 22.2737 104.608 22.2304 104.786 22.1323C104.964 22.0341 105.109 21.8854 105.202 21.705L105.369 21.4067L102.278 14.8283H103.528L105.945 20.1983L108.155 14.8283H109.438L106.455 21.735C106.297 22.1678 106.011 22.5424 105.636 22.8089C105.26 23.0754 104.812 23.2211 104.351 23.2267L103.426 23.2567Z" fill="#231F20"/>
<path d="M113.765 23.0925L111.483 15.8875V23.0925H110.316V14.8283H112.255L114.374 21.72L116.477 14.8283H118.431V23.0925H117.265V15.8875L114.982 23.0925H113.765Z" fill="#231F20"/>
</g>
<defs>
<linearGradient id="paint0_linear" x1="84.906" y1="27.9554" x2="150.849" y2="27.9554" gradientUnits="userSpaceOnUse">
<stop stop-color="#D5D3FF"/>
<stop offset="1" stop-color="#5EA9FF"/>
</linearGradient>
<clipPath id="clip0">
<rect width="150.546" height="30" fill="white" transform="translate(0.302979)"/>
</clipPath>
</defs>
</svg>
