<svg width="253" height="253" viewBox="0 0 253 253" fill="none" xmlns="http://www.w3.org/2000/svg">
<path d="M205.83 160C206.529 156.21 206.883 152.364 206.89 148.51C206.885 134.41 202.162 120.717 193.473 109.613C184.784 98.5092 172.628 90.6324 158.943 87.2379C145.258 83.8434 130.831 85.1264 117.959 90.8825C105.088 96.6387 94.5134 106.537 87.92 119C85.4934 118.634 83.044 118.44 80.59 118.42C67.0825 118.42 54.1283 123.786 44.5771 133.337C35.0258 142.888 29.66 155.843 29.66 169.35C29.66 182.857 35.0258 195.812 44.5771 205.363C54.1283 214.914 67.0825 220.28 80.59 220.28H192C199.19 220.296 206.172 217.869 211.801 213.396C217.43 208.922 221.371 202.669 222.979 195.661C224.587 188.653 223.766 181.307 220.65 174.827C217.534 168.348 212.308 163.119 205.83 160Z" fill="#F5F5F5"/>
<path d="M25.8 40.43C24.7741 34.9854 25.7375 29.3535 28.5148 24.5595C31.2921 19.7654 35.6986 16.1282 40.9321 14.3098C46.1656 12.4914 51.878 12.6128 57.0295 14.6519C62.181 16.6911 66.4289 20.5123 69 25.42C69.887 25.2843 70.7827 25.2141 71.68 25.21C74.1648 25.1525 76.6361 25.5922 78.9486 26.5033C81.261 27.4144 83.3681 28.7786 85.1458 30.5157C86.9235 32.2527 88.3361 34.3276 89.3006 36.6183C90.265 38.9091 90.7618 41.3695 90.7618 43.855C90.7618 46.3405 90.265 48.8009 89.3006 51.0917C88.3361 53.3824 86.9235 55.4573 85.1458 57.1943C83.3681 58.9314 81.261 60.2956 78.9486 61.2067C76.6361 62.1178 74.1648 62.5576 71.68 62.5H30.85C28.2189 62.5027 25.6648 61.6117 23.6064 59.9728C21.548 58.334 20.1073 56.0445 19.5204 53.4797C18.9335 50.9148 19.2352 48.2266 20.3762 45.8557C21.5171 43.4848 23.4295 41.5717 25.8 40.43Z" fill="#F5F5F5"/>
<path d="M235.46 77.47C236.086 74.0367 235.463 70.4928 233.704 67.4787C231.945 64.4645 229.166 62.1791 225.868 61.0354C222.571 59.8916 218.974 59.9651 215.726 61.2424C212.478 62.5197 209.795 64.9166 208.16 68C206.559 67.7698 204.928 67.8716 203.368 68.2992C201.809 68.7268 200.354 69.4709 199.094 70.4853C197.835 71.4997 196.797 72.7626 196.047 74.1953C195.297 75.628 194.85 77.1998 194.733 78.8129C194.617 80.426 194.834 82.0457 195.371 83.5712C195.908 85.0967 196.753 86.4953 197.854 87.6799C198.956 88.8645 200.289 89.8097 201.771 90.4566C203.253 91.1035 204.853 91.4382 206.47 91.44H232.27C233.951 91.4643 235.59 90.9106 236.912 89.8715C238.234 88.8324 239.159 87.3709 239.533 85.7315C239.906 84.092 239.706 82.3739 238.964 80.8647C238.223 79.3554 236.986 78.1465 235.46 77.44V77.47Z" fill="#F5F5F5"/>
<path d="M147.46 95.43H76.63C69.2957 95.43 63.35 101.376 63.35 108.71V163.69C63.35 171.024 69.2957 176.97 76.63 176.97H147.46C154.794 176.97 160.74 171.024 160.74 163.69V108.71C160.74 101.376 154.794 95.43 147.46 95.43Z" fill="white" stroke="#231F20" stroke-width="3" stroke-miterlimit="10"/>
<path d="M138 94.66V75.54C138.067 72.123 137.453 68.7269 136.192 65.5504C134.931 62.374 133.049 59.4809 130.656 57.0405C128.263 54.6002 125.408 52.6616 122.257 51.3382C119.106 50.0147 115.723 49.3331 112.305 49.3331C108.887 49.3331 105.504 50.0147 102.353 51.3382C99.2021 52.6616 96.3467 54.6002 93.954 57.0405C91.5613 59.4809 89.6794 62.374 88.4184 65.5504C87.1574 68.7269 86.5426 72.123 86.61 75.54V94.66" stroke="#231F20" stroke-width="3" stroke-miterlimit="10"/>
<path d="M115.87 137.87C117.722 137 119.223 135.525 120.125 133.688C121.026 131.851 121.275 129.761 120.829 127.764C120.384 125.766 119.271 123.98 117.674 122.701C116.077 121.421 114.091 120.723 112.045 120.723C109.999 120.723 108.013 121.421 106.416 122.701C104.819 123.98 103.706 125.766 103.261 127.764C102.815 129.761 103.064 131.851 103.965 133.688C104.867 135.525 106.368 137 108.22 137.87V157.27H115.87V137.87Z" stroke="#00ADEF" stroke-width="3" stroke-miterlimit="10"/>
<path d="M160.74 203.16C176.707 203.16 189.65 190.217 189.65 174.25C189.65 158.283 176.707 145.34 160.74 145.34C144.773 145.34 131.83 158.283 131.83 174.25C131.83 190.217 144.773 203.16 160.74 203.16Z" fill="white" stroke="#F2F3F4" stroke-width="2"/>
<path d="M167.25 167.55L165.59 165.89L158.16 173.33L159.81 174.98L167.25 167.55ZM172.2 165.89L159.81 178.4L154.86 173.4L153.2 175.05L159.81 181.66L174 167.54L172.2 165.89ZM146.48 175.1L153.09 181.71L154.74 180.05L148.13 173.44L146.48 175.1Z" fill="#00ADEF"/>
</svg>
