<svg width="48" height="48" viewBox="0 0 48 48" fill="none" xmlns="http://www.w3.org/2000/svg">
<path d="M24 48C37.2548 48 48 37.2548 48 24C48 10.7452 37.2548 0 24 0C10.7452 0 0 10.7452 0 24C0 37.2548 10.7452 48 24 48Z" fill="#E8F8FE"/>
<path fill-rule="evenodd" clip-rule="evenodd" d="M18.86 13.78H26C26.8536 13.78 27.6988 13.9481 28.4874 14.2748C29.2761 14.6014 29.9926 15.0802 30.5962 15.6838C31.1998 16.2874 31.6786 17.0039 32.0052 17.7926C32.3319 18.5812 32.5 19.4264 32.5 20.28C32.5 21.1336 32.3319 21.9788 32.0052 22.7674C31.6786 23.5561 31.1998 24.2726 30.5962 24.8762C29.9926 25.4798 29.2761 25.9586 28.4874 26.2852C27.6988 26.6119 26.8536 26.78 26 26.78H20.86V34.36H18.86V26.78H16.56V24.78H18.86V13.78ZM20.86 24.78H26C26.5909 24.78 27.1761 24.6636 27.7221 24.4375C28.268 24.2113 28.7641 23.8798 29.182 23.462C29.5998 23.0441 29.9313 22.548 30.1575 22.0021C30.3836 21.4561 30.5 20.8709 30.5 20.28C30.5 19.6891 30.3836 19.1039 30.1575 18.5579C29.9313 18.012 29.5998 17.5159 29.182 17.098C28.7641 16.6802 28.268 16.3487 27.7221 16.1225C27.1761 15.8964 26.5909 15.78 26 15.78H20.86V24.78Z" fill="#00ADEF"/>
<path d="M16.56 30.22H23.65" stroke="#00ADEF" stroke-width="2" stroke-miterlimit="10"/>
</svg>
