<svg width="48" height="48" viewBox="0 0 48 48" fill="none" xmlns="http://www.w3.org/2000/svg">
<g clip-path="url(#clip0)">
<path d="M42.7862 10.0858L42.1481 9.44772L33.7895 1.0891L33.1556 0.455172C32.8634 0.164702 32.4685 0.00114902 32.0566 0L8.03834 0C7.05683 0 6 0.758069 6 2.42152V46.3448C6.05845 46.7335 6.23623 47.0943 6.50873 47.3775C6.78124 47.6607 7.13501 47.8522 7.5211 47.9255C7.56248 47.9363 7.60386 47.952 7.64524 47.9603C7.77466 47.9863 7.90633 47.9997 8.03834 48H41.203C41.3351 47.9997 41.4667 47.9864 41.5961 47.9603C41.6392 47.952 41.6789 47.9363 41.7203 47.9255C42.1064 47.8522 42.4601 47.6607 42.7326 47.3775C43.0051 47.0943 43.1829 46.7335 43.2414 46.3448V11.568C43.2738 11.3028 43.25 11.0338 43.1716 10.7784C43.0931 10.5231 42.9618 10.2871 42.7862 10.0858ZM40.291 9.93104H33.3103V2.95035L40.291 9.93104ZM8.03834 46.3448C7.98118 46.3414 7.92512 46.3276 7.87283 46.3043C7.8078 46.2737 7.75281 46.2252 7.71427 46.1646C7.67573 46.1039 7.65524 46.0335 7.65517 45.9617V33.931H41.5862V45.9617C41.5858 46.0337 41.565 46.1041 41.5262 46.1647C41.4873 46.2254 41.4321 46.2738 41.3669 46.3043C41.3146 46.3276 41.2585 46.3414 41.2014 46.3448H8.03834ZM7.65517 32.2759V2.42152C7.65517 2.24193 7.68248 1.65517 8.03834 1.65517H31.7032C31.6733 1.76052 31.6572 1.86928 31.6552 1.97876V11.5862H41.2626C41.3718 11.5842 41.4803 11.568 41.5854 11.5382V32.2759H7.65517Z" fill="#00ADEF"/>
<path d="M18.8619 37.0299C18.5855 36.8031 18.2688 36.6304 17.9284 36.5209C17.589 36.4089 17.234 36.3516 16.8766 36.3513H14.4766V44.69H15.8346V41.6801H16.841C17.2487 41.685 17.6543 41.6201 18.0401 41.4881C18.3826 41.371 18.6981 41.1864 18.9679 40.9452C19.2292 40.7044 19.4341 40.4088 19.5679 40.0795C19.7153 39.7148 19.7885 39.3243 19.783 38.9309C19.7886 38.5551 19.701 38.1837 19.5281 37.85C19.3624 37.5346 19.135 37.2557 18.8595 37.0299H18.8619ZM18.3472 39.7849C18.2803 39.9874 18.1669 40.1713 18.0161 40.322C17.8887 40.4453 17.7363 40.5398 17.5693 40.5993C17.4096 40.6547 17.2417 40.6827 17.0727 40.682H15.8313V37.3808H16.8493C17.1376 37.3692 17.4245 37.4259 17.6868 37.5463C17.8822 37.6408 18.0524 37.7804 18.1833 37.9535C18.2951 38.1052 18.374 38.2785 18.415 38.4624C18.4497 38.6165 18.4686 38.7738 18.4713 38.9317C18.4789 39.2216 18.4369 39.5108 18.3472 39.7866V39.7849ZM27.065 37.5728C26.6907 37.1872 26.2396 36.8847 25.7408 36.6848C25.1523 36.4531 24.5236 36.3406 23.8912 36.3537H21.3795V44.69H24.5375C24.7003 44.6856 24.8628 44.6723 25.0241 44.6503C25.2715 44.6171 25.5144 44.5563 25.7483 44.4691C26.0379 44.3615 26.3134 44.2189 26.5684 44.0445C26.87 43.837 27.1293 43.5738 27.3323 43.2691C27.5809 42.8929 27.7699 42.4806 27.8926 42.0467C28.0512 41.4741 28.1256 40.8814 28.1135 40.2873C28.1138 39.791 28.0258 39.2987 27.8537 38.8332C27.68 38.3638 27.4122 37.9349 27.0666 37.5728H27.065ZM26.0719 42.8114C25.8426 43.1152 25.5399 43.3559 25.1923 43.5108C24.8446 43.6657 24.4632 43.7297 24.084 43.6969H22.7375V37.38H23.5295C24.0691 37.3615 24.607 37.4481 25.1135 37.6349C25.4838 37.7787 25.8152 38.0074 26.081 38.3027C26.3125 38.5672 26.4774 38.8834 26.5618 39.2246C26.6454 39.5615 26.6882 39.9071 26.6893 40.2542C26.7462 41.1485 26.5334 42.0393 26.0785 42.8114H26.0719ZM30.0824 44.69H31.4628V40.9336H34.9477V40.0059H31.4611V37.3808H35.2962V36.3513H30.0824V44.69ZM32.4244 19.0026C31.4912 19.0202 30.5613 19.1193 29.6454 19.2989C27.95 17.4247 26.532 15.3172 25.4346 13.0406C26.5411 8.38216 25.9875 7.72258 25.7433 7.41306C25.4835 7.08203 25.1168 6.54492 24.6997 6.54492C24.4153 6.56288 24.1334 6.61059 23.8589 6.68727C23.6372 6.77391 23.4377 6.90924 23.2753 7.08328C23.1129 7.25732 22.9916 7.46561 22.9204 7.69278C22.3353 9.06078 23.1381 11.3929 23.964 13.1904C23.1732 16.2395 22.1244 19.2157 20.8291 22.087C17.6926 23.5237 16.0291 24.9347 15.876 26.2812C15.8437 26.6455 15.9125 27.0118 16.0751 27.3394C16.2376 27.6671 16.4875 27.9436 16.7971 28.1383C17.0274 28.3129 17.3084 28.4076 17.5974 28.4081C18.3215 28.4081 19.0531 27.8536 19.8997 26.6644C20.6568 25.5504 21.3166 24.3734 21.8719 23.1463C24.226 22.1336 26.6727 21.3514 29.1778 20.8109C30.4854 22.0663 31.6564 22.7019 32.6628 22.7019C33.0267 22.7026 33.3851 22.6129 33.7057 22.4409C34.0264 22.2688 34.2993 22.0198 34.5 21.7162C34.7202 21.481 34.8678 21.1871 34.9251 20.87C34.9823 20.5529 34.9468 20.2261 34.8228 19.9286C34.5041 19.3088 33.7188 19.0059 32.4228 19.0059L32.4244 19.0026ZM17.6156 27.0078C17.2283 26.7107 17.2506 26.5113 17.2589 26.4351C17.3102 25.975 18.031 25.1582 19.7996 24.1642C18.4589 26.6404 17.7389 26.9689 17.6156 27.0078ZM24.4018 8.03789C24.4374 8.0263 25.2666 8.94823 24.4846 10.6994C24.1436 10.3448 23.9464 9.87626 23.9311 9.38457C23.9158 8.89288 24.0836 8.413 24.4018 8.03789ZM22.6912 21.3008C23.5458 19.2574 24.2846 17.1674 24.9041 15.0409C25.8051 16.6705 26.8646 18.2074 28.0672 19.6291C26.2381 20.063 24.4408 20.6215 22.6879 21.3008H22.6912ZM33.367 20.9044C33.2375 21.0354 33.0805 21.1361 32.9073 21.1992C32.7342 21.2623 32.5492 21.2863 32.3657 21.2693C31.9246 21.2693 31.7599 21.007 31.0854 20.4881C31.5826 20.4272 32.0832 20.3974 32.5842 20.3987C33.3199 20.3987 33.4548 20.5071 33.5566 20.5642C33.5113 20.6865 33.4477 20.8012 33.3679 20.9044H33.367Z" fill="#00ADEF"/>
</g>
<defs>
<clipPath id="clip0">
<rect width="37.2414" height="48" fill="white" transform="translate(6)"/>
</clipPath>
</defs>
</svg>
