<svg width="24" height="24" viewBox="0 0 24 24" fill="none" xmlns="http://www.w3.org/2000/svg">
<g clip-path="url(#clip0)">
<path d="M21.3931 5.0429L21.0741 4.72386L16.8948 0.544552L16.5778 0.227586C16.4317 0.082351 16.2343 0.00057451 16.0283 0L4.01917 0C3.52841 0 3 0.379035 3 1.21076V23.1724C3.02923 23.3667 3.11811 23.5472 3.25437 23.6887C3.39062 23.8303 3.5675 23.9261 3.76055 23.9628C3.78124 23.9681 3.80193 23.976 3.82262 23.9801C3.88733 23.9932 3.95316 23.9998 4.01917 24H20.6015C20.6675 23.9998 20.7334 23.9932 20.7981 23.9801C20.8196 23.976 20.8394 23.9681 20.8601 23.9628C21.0532 23.9261 21.2301 23.8303 21.3663 23.6887C21.5026 23.5472 21.5915 23.3667 21.6207 23.1724V5.784C21.6369 5.65142 21.625 5.51691 21.5858 5.38922C21.5466 5.26154 21.4809 5.14354 21.3931 5.0429ZM20.1455 4.96552H16.6552V1.47517L20.1455 4.96552ZM4.01917 23.1724C3.99059 23.1707 3.96256 23.1638 3.93641 23.1521C3.9039 23.1368 3.8764 23.1126 3.85714 23.0823C3.83787 23.0519 3.82762 23.0168 3.82759 22.9808V16.9655H20.7931V22.9808C20.7929 23.0168 20.7825 23.052 20.7631 23.0824C20.7437 23.1127 20.7161 23.1369 20.6834 23.1521C20.6573 23.1638 20.6293 23.1707 20.6007 23.1724H4.01917ZM3.82759 16.1379V1.21076C3.82759 1.12097 3.84124 0.827586 4.01917 0.827586H15.8516C15.8367 0.880262 15.8286 0.934641 15.8276 0.989379V5.7931H20.6313C20.6859 5.79209 20.7402 5.78402 20.7927 5.7691V16.1379H3.82759Z" fill="#00ADEF"/>
<path d="M9.43117 18.5148C9.29296 18.4014 9.13461 18.315 8.96441 18.2603C8.79472 18.2043 8.61718 18.1756 8.43848 18.1754H7.23848V22.3448H7.91751V20.8399H8.42069C8.62456 20.8423 8.82736 20.8099 9.02027 20.7439C9.1915 20.6853 9.34924 20.593 9.48413 20.4724C9.61481 20.352 9.71726 20.2042 9.78414 20.0396C9.85786 19.8572 9.89444 19.6619 9.89172 19.4652C9.8945 19.2773 9.85071 19.0917 9.76427 18.9248C9.6814 18.7671 9.56771 18.6277 9.42993 18.5148H9.43117ZM9.17379 19.8923C9.14035 19.9935 9.08366 20.0855 9.00827 20.1608C8.94455 20.2225 8.86835 20.2697 8.78482 20.2994C8.705 20.3272 8.62105 20.3412 8.53655 20.3408H7.91586V18.6902H8.42482C8.56898 18.6844 8.71247 18.7128 8.84358 18.773C8.94129 18.8202 9.02638 18.89 9.09186 18.9766C9.14776 19.0524 9.18722 19.1391 9.20772 19.231C9.22507 19.3081 9.2345 19.3867 9.23586 19.4657C9.23966 19.6106 9.21867 19.7552 9.17379 19.8931V19.8923ZM13.5327 18.7862C13.3456 18.5934 13.12 18.4422 12.8706 18.3422C12.5763 18.2264 12.262 18.1701 11.9458 18.1767H10.6899V22.3448H12.269C12.3504 22.3426 12.4316 22.336 12.5123 22.325C12.636 22.3084 12.7574 22.278 12.8743 22.2343C13.0192 22.1805 13.1569 22.1093 13.2844 22.0221C13.4352 21.9183 13.5648 21.7867 13.6663 21.6343C13.7907 21.4463 13.8852 21.2401 13.9465 21.0232C14.0258 20.7368 14.063 20.4405 14.057 20.1434C14.0571 19.8953 14.0131 19.6491 13.927 19.4164C13.8402 19.1817 13.7063 18.9673 13.5335 18.7862H13.5327ZM13.0361 21.4055C12.9215 21.5574 12.7702 21.6778 12.5963 21.7552C12.4225 21.8326 12.2318 21.8647 12.0422 21.8483H11.369V18.6898H11.765C12.0347 18.6806 12.3037 18.7238 12.557 18.8172C12.7421 18.8891 12.9078 19.0035 13.0407 19.1512C13.1565 19.2834 13.2389 19.4415 13.2811 19.6121C13.3229 19.7806 13.3443 19.9534 13.3448 20.1269C13.3733 20.5741 13.2669 21.0195 13.0394 21.4055H13.0361ZM15.0414 22.3448H15.7316V20.4666H17.4741V20.0028H15.7308V18.6902H17.6483V18.1754H15.0414V22.3448ZM16.2124 9.5011C15.7458 9.50991 15.2809 9.55948 14.8229 9.64924C13.9752 8.71217 13.2662 7.65842 12.7175 6.52014C13.2708 4.1909 12.9939 3.86111 12.8719 3.70635C12.7419 3.54083 12.5586 3.27228 12.3501 3.27228C12.2078 3.28126 12.0669 3.30511 11.9297 3.34345C11.8188 3.38677 11.7191 3.45444 11.6378 3.54146C11.5566 3.62847 11.496 3.73262 11.4604 3.84621C11.1679 4.53021 11.5692 5.69628 11.9822 6.59504C11.5868 8.11955 11.0624 9.60767 10.4148 11.0433C8.84648 11.7617 8.01476 12.4672 7.9382 13.1404C7.92202 13.3226 7.95647 13.5057 8.03773 13.6695C8.119 13.8334 8.24393 13.9716 8.39876 14.069C8.51391 14.1563 8.65439 14.2036 8.79889 14.2039C9.16096 14.2039 9.52676 13.9266 9.95007 13.332C10.3286 12.775 10.6585 12.1865 10.9361 11.573C12.1132 11.0666 13.3366 10.6755 14.5891 10.4052C15.2429 11.033 15.8284 11.3508 16.3316 11.3508C16.5135 11.3511 16.6927 11.3063 16.8531 11.2202C17.0134 11.1342 17.1499 11.0097 17.2502 10.8579C17.3603 10.7403 17.4341 10.5934 17.4627 10.4348C17.4914 10.2763 17.4736 10.1128 17.4116 9.96414C17.2523 9.65421 16.8596 9.50276 16.2116 9.50276L16.2124 9.5011ZM8.808 13.5037C8.61434 13.3552 8.62551 13.2554 8.62965 13.2174C8.65531 12.9873 9.01572 12.5789 9.9 12.0819C9.22965 13.32 8.86965 13.4843 8.808 13.5037ZM12.2011 4.01876C12.2189 4.01297 12.6335 4.47393 12.2425 5.34952C12.072 5.17221 11.9734 4.93795 11.9658 4.6921C11.9581 4.44625 12.042 4.20632 12.2011 4.01876ZM11.3458 10.6502C11.7731 9.62849 12.1425 8.58353 12.4523 7.52028C12.9028 8.33509 13.4325 9.10349 14.0338 9.81435C13.1192 10.0313 12.2206 10.3106 11.3441 10.6502H11.3458ZM16.6837 10.452C16.6189 10.5175 16.5404 10.5679 16.4539 10.5994C16.3673 10.631 16.2748 10.6429 16.183 10.6345C15.9625 10.6345 15.8801 10.5033 15.5429 10.2439C15.7915 10.2134 16.0418 10.1985 16.2923 10.1992C16.6601 10.1992 16.7276 10.2534 16.7785 10.2819C16.7558 10.3431 16.724 10.4004 16.6841 10.452H16.6837Z" fill="#00ADEF"/>
</g>
<defs>
<clipPath id="clip0">
<rect width="18.6207" height="24" fill="white" transform="translate(3)"/>
</clipPath>
</defs>
</svg>
