<svg width="24" height="24" viewBox="0 0 24 24" fill="none" xmlns="http://www.w3.org/2000/svg">
<path d="M2 22H11.09V12.91H2V22ZM3.82 14.73H9.27V20.17H3.82V14.73Z" fill="#00ADEF"/>
<path d="M7.46 16.55H5.64V18.37H7.46V16.55Z" fill="#00ADEF"/>
<path d="M18.37 20.18H16.55V22H18.37V20.18Z" fill="#00ADEF"/>
<path d="M22 20.18H20.18V22H22V20.18Z" fill="#00ADEF"/>
<path d="M20.18 14.73H18.36V12.91H12.91V22H14.73V16.55H16.55V18.36H22V12.91H20.18V14.73Z" fill="#00ADEF"/>
<path d="M2 11.09H11.09V2H2V11.09ZM3.82 3.82H9.27V9.27H3.82V3.82Z" fill="#00ADEF"/>
<path d="M7.46 5.64001H5.64V7.46001H7.46V5.64001Z" fill="#00ADEF"/>
<path d="M12.91 2V11.09H22V2H12.91ZM20.18 9.27H14.73V3.82H20.18V9.27Z" fill="#00ADEF"/>
<path d="M18.37 5.64001H16.55V7.46001H18.37V5.64001Z" fill="#00ADEF"/>
</svg>
