<svg width="48" height="48" viewBox="0 0 48 48" fill="none" xmlns="http://www.w3.org/2000/svg">
<path d="M24 48C37.2548 48 48 37.2548 48 24C48 10.7452 37.2548 0 24 0C10.7452 0 0 10.7452 0 24C0 37.2548 10.7452 48 24 48Z" fill="#F6F6F6"/>
<path fill-rule="evenodd" clip-rule="evenodd" d="M26.1374 15.2575C24.0537 14.7481 21.8566 14.9996 19.942 15.9668C18.0274 16.934 16.5212 18.5532 15.6948 20.5326C14.8683 22.512 14.7761 24.7216 15.4346 26.763C16.0932 28.8045 17.4592 30.5436 19.2865 31.667C21.1138 32.7904 23.2823 33.2242 25.4012 32.8902C27.5201 32.5563 29.45 31.4765 30.8432 29.8455C32.2364 28.2145 33.0013 26.1396 33 23.9945L35 23.9933C35.0016 26.615 34.0667 29.1511 32.3639 31.1445C30.6611 33.138 28.3023 34.4577 25.7126 34.8658C23.1228 35.274 20.4725 34.7438 18.2391 33.3708C16.0056 31.9977 14.3361 29.8721 13.5312 27.377C12.7263 24.8819 12.8391 22.1814 13.8491 19.7621C14.8592 17.3427 16.7001 15.3637 19.0402 14.1816C21.3803 12.9995 24.0657 12.6921 26.6124 13.3147C29.1591 13.9373 31.3997 15.4491 32.9304 17.5775L31.3067 18.7453C30.0543 17.0038 28.2211 15.7669 26.1374 15.2575Z" fill="#888888"/>
<path fill-rule="evenodd" clip-rule="evenodd" d="M31 17V13H33V19H27V17H31Z" fill="#888888"/>
</svg>
