<svg width="48" height="48" viewBox="0 0 48 48" fill="none" xmlns="http://www.w3.org/2000/svg">
<path d="M24 48C37.2548 48 48 37.2548 48 24C48 10.7452 37.2548 0 24 0C10.7452 0 0 10.7452 0 24C0 37.2548 10.7452 48 24 48Z" fill="#F6F6F6"/>
<path fill-rule="evenodd" clip-rule="evenodd" d="M18.8586 13.7793H25.9986C26.8522 13.7793 27.6974 13.9474 28.486 14.2741C29.2747 14.6007 29.9912 15.0795 30.5948 15.6831C31.1984 16.2867 31.6772 17.0032 32.0038 17.7919C32.3305 18.5805 32.4986 19.4257 32.4986 20.2793C32.4986 21.1329 32.3305 21.9781 32.0038 22.7667C31.6772 23.5554 31.1984 24.2719 30.5948 24.8755C29.9912 25.4791 29.2747 25.9579 28.486 26.2845C27.6974 26.6112 26.8522 26.7793 25.9986 26.7793H20.8586V34.3593H18.8586V26.7793H16.5586V24.7793H18.8586V13.7793ZM20.8586 24.7793H25.9986C26.5895 24.7793 27.1747 24.6629 27.7207 24.4368C28.2666 24.2106 28.7627 23.8791 29.1806 23.4613C29.5984 23.0434 29.9299 22.5473 30.1561 22.0014C30.3822 21.4554 30.4986 20.8702 30.4986 20.2793C30.4986 19.6883 30.3822 19.1032 30.1561 18.5572C29.9299 18.0113 29.5984 17.5152 29.1806 17.0973C28.7627 16.6795 28.2666 16.348 27.7207 16.1218C27.1747 15.8957 26.5895 15.7793 25.9986 15.7793H20.8586V24.7793Z" fill="#888888"/>
<path d="M16.5586 30.2207H23.6486" stroke="#888888" stroke-width="2" stroke-miterlimit="10"/>
</svg>
