<svg width="24" height="24" viewBox="0 0 24 24" fill="none" xmlns="http://www.w3.org/2000/svg">
<path d="M21.6923 22.6615H2.30769C1.92838 22.661 1.56494 22.5101 1.29673 22.2419C1.02851 21.9737 0.877594 21.6101 0.877106 21.2308V4.61539C0.877594 4.23608 1.02851 3.87241 1.29673 3.6042C1.56494 3.33598 1.92838 3.18512 2.30769 3.18463H5.07693V4.19999H2.30769C2.1976 4.20024 2.09212 4.24407 2.01428 4.32191C1.93643 4.39976 1.8926 4.5053 1.89236 4.61539V21.2308C1.8926 21.3409 1.93643 21.4464 2.01428 21.5243C2.09212 21.6021 2.1976 21.6459 2.30769 21.6462H21.6923C21.8024 21.6459 21.9081 21.6021 21.986 21.5243C22.0638 21.4464 22.1076 21.3409 22.1079 21.2308V4.61539C22.1076 4.5053 22.0638 4.39976 21.986 4.32191C21.9081 4.24407 21.8024 4.20024 21.6923 4.19999H18.9231V3.18463H21.6923C22.0716 3.18512 22.4353 3.33598 22.7035 3.6042C22.9717 3.87241 23.1226 4.23608 23.1231 4.61539V21.2308C23.1229 21.6102 22.9722 21.9739 22.704 22.2422C22.4357 22.5105 22.0717 22.6613 21.6923 22.6615Z" fill="#00ADEF"/>
<path d="M7.43094 1.84613H6.41556V5.53844H7.43094V1.84613Z" fill="#00ADEF"/>
<path d="M17.5848 1.84613H16.5694V5.53844H17.5848V1.84613Z" fill="#00ADEF"/>
<path d="M12.4615 8.72308H11.5385V9.73847H12.4615V8.72308Z" fill="#00ADEF"/>
<path d="M22.6127 8.72308H1.4761V9.73847H22.6127V8.72308Z" fill="#00ADEF"/>
<path d="M7.84614 13.3384H6.92307V14.3538H7.84614V13.3384Z" fill="#00ADEF"/>
<path d="M12.4615 13.3384H11.5385V14.3538H12.4615V13.3384Z" fill="#00ADEF"/>
<path d="M17.0769 13.3384H16.1538V14.3538H17.0769V13.3384Z" fill="#00ADEF"/>
<path d="M7.84614 17.9539H6.92307V18.9692H7.84614V17.9539Z" fill="#00ADEF"/>
<path d="M12.4615 17.9539H11.5385V18.9692H12.4615V17.9539Z" fill="#00ADEF"/>
<path d="M15.2308 3.18463H8.76923V4.20002H15.2308V3.18463Z" fill="#00ADEF"/>
</svg>
