<svg width="24" height="24" viewBox="0 0 24 24" fill="none" xmlns="http://www.w3.org/2000/svg">
<path fill-rule="evenodd" clip-rule="evenodd" d="M1.84613 10.2969C1.84472 11.9249 2.31394 13.5185 3.1973 14.8859C4.08066 16.2533 5.34049 17.3362 6.82507 18.0042C8.30965 18.6721 9.95567 18.8967 11.5649 18.6508C13.1742 18.4049 14.678 17.699 15.8954 16.6182L21.2806 22.0043C21.3765 22.0984 21.5056 22.1509 21.6399 22.1504C21.7742 22.1499 21.9029 22.0965 21.9981 22.0018C22.0933 21.9071 22.1474 21.7786 22.1485 21.6443C22.1497 21.51 22.0979 21.3807 22.0043 21.2843L16.6154 15.8991C17.5229 14.8755 18.1683 13.6469 18.496 12.3188C18.8238 10.9907 18.8242 9.60291 18.4971 8.27465C18.17 6.94639 17.5253 5.71742 16.6183 4.69338C15.7114 3.66933 14.5693 2.88085 13.2903 2.39571C12.0112 1.91056 10.6336 1.74326 9.27559 1.90818C7.91764 2.07311 6.62004 2.56533 5.49433 3.34254C4.36863 4.11974 3.4485 5.15868 2.81303 6.37005C2.17755 7.58143 1.84575 8.929 1.84613 10.2969ZM17.7231 10.2969C17.7227 11.7666 17.2865 13.2032 16.4697 14.425C15.6528 15.6468 14.492 16.599 13.134 17.161C11.776 17.7231 10.2818 17.8698 8.84047 17.5826C7.39908 17.2955 6.07523 16.5874 5.03631 15.5478C3.99739 14.5082 3.29008 13.1839 3.00383 11.7424C2.71757 10.3008 2.86523 8.80675 3.42812 7.44911C3.99102 6.09147 4.94387 4.93124 6.16618 4.11515C7.38849 3.29907 8.82535 2.86377 10.2951 2.86432C12.2648 2.86798 14.1527 3.65238 15.545 5.04561C16.9374 6.43883 17.7206 8.32723 17.7231 10.2969Z" fill="#444444"/>
</svg>
