<svg width="253" height="253" viewBox="0 0 253 253" fill="none" xmlns="http://www.w3.org/2000/svg">
<path d="M78.7003 131.25H42.4803C40.8732 131.25 39.5703 132.553 39.5703 134.16V141.05C39.5703 142.657 40.8732 143.96 42.4803 143.96H78.7003C80.3075 143.96 81.6103 142.657 81.6103 141.05V134.16C81.6103 132.553 80.3075 131.25 78.7003 131.25Z" fill="#F5F5F5"/>
<path d="M41.9113 131.25H5.69125C4.0841 131.25 2.78125 132.553 2.78125 134.16V141.05C2.78125 142.657 4.0841 143.96 5.69125 143.96H41.9113C43.5184 143.96 44.8213 142.657 44.8213 141.05V134.16C44.8213 132.553 43.5184 131.25 41.9113 131.25Z" fill="#F5F5F5"/>
<path d="M131.782 131.25H95.5623C93.9552 131.25 92.6523 132.553 92.6523 134.16V141.05C92.6523 142.657 93.9552 143.96 95.5623 143.96H131.782C133.389 143.96 134.692 142.657 134.692 141.05V134.16C134.692 132.553 133.389 131.25 131.782 131.25Z" fill="#F5F5F5"/>
<path d="M184.853 131.25H148.633C147.026 131.25 145.723 132.553 145.723 134.16V141.05C145.723 142.657 147.026 143.96 148.633 143.96H184.853C186.46 143.96 187.763 142.657 187.763 141.05V134.16C187.763 132.553 186.46 131.25 184.853 131.25Z" fill="#F5F5F5"/>
<path d="M237.943 131.25H201.723C200.115 131.25 198.812 132.553 198.812 134.16V141.05C198.812 142.657 200.115 143.96 201.723 143.96H237.943C239.55 143.96 240.853 142.657 240.853 141.05V134.16C240.853 132.553 239.55 131.25 237.943 131.25Z" fill="#F5F5F5"/>
<path d="M131.782 172.24H95.5623C93.9552 172.24 92.6523 173.543 92.6523 175.15V182.04C92.6523 183.647 93.9552 184.95 95.5623 184.95H131.782C133.389 184.95 134.692 183.647 134.692 182.04V175.15C134.692 173.543 133.389 172.24 131.782 172.24Z" fill="#F5F5F5"/>
<path d="M103.97 109.84H67.7498C66.1427 109.84 64.8398 111.143 64.8398 112.75V119.64C64.8398 121.247 66.1427 122.55 67.7498 122.55H103.97C105.577 122.55 106.88 121.247 106.88 119.64V112.75C106.88 111.143 105.577 109.84 103.97 109.84Z" fill="#F5F5F5"/>
<path d="M50.88 109.84H14.66C13.0529 109.84 11.75 111.143 11.75 112.75V119.64C11.75 121.247 13.0529 122.55 14.66 122.55H50.88C52.4871 122.55 53.79 121.247 53.79 119.64V112.75C53.79 111.143 52.4871 109.84 50.88 109.84Z" fill="#F5F5F5"/>
<path d="M157.04 109.84H120.82C119.213 109.84 117.91 111.143 117.91 112.75V119.64C117.91 121.247 119.213 122.55 120.82 122.55H157.04C158.647 122.55 159.95 121.247 159.95 119.64V112.75C159.95 111.143 158.647 109.84 157.04 109.84Z" fill="#F5F5F5"/>
<path d="M210.122 109.84H173.902C172.295 109.84 170.992 111.143 170.992 112.75V119.64C170.992 121.247 172.295 122.55 173.902 122.55H210.122C211.729 122.55 213.032 121.247 213.032 119.64V112.75C213.032 111.143 211.729 109.84 210.122 109.84Z" fill="#F5F5F5"/>
<path d="M245.06 109.84H208.84C207.233 109.84 205.93 111.143 205.93 112.75V119.64C205.93 121.247 207.233 122.55 208.84 122.55H245.06C246.667 122.55 247.97 121.247 247.97 119.64V112.75C247.97 111.143 246.667 109.84 245.06 109.84Z" fill="#F5F5F5"/>
<path d="M157.04 68.0605H120.82C119.213 68.0605 117.91 69.3634 117.91 70.9706V77.8605C117.91 79.4677 119.213 80.7705 120.82 80.7705H157.04C158.647 80.7705 159.95 79.4677 159.95 77.8605V70.9706C159.95 69.3634 158.647 68.0605 157.04 68.0605Z" fill="#F5F5F5"/>
<path d="M103.97 151.441H67.7498C66.1427 151.441 64.8398 152.744 64.8398 154.351V161.241C64.8398 162.849 66.1427 164.151 67.7498 164.151H103.97C105.577 164.151 106.88 162.849 106.88 161.241V154.351C106.88 152.744 105.577 151.441 103.97 151.441Z" fill="#F5F5F5"/>
<path d="M157.04 151.441H120.82C119.213 151.441 117.91 152.744 117.91 154.351V161.241C117.91 162.849 119.213 164.151 120.82 164.151H157.04C158.647 164.151 159.95 162.849 159.95 161.241V154.351C159.95 152.744 158.647 151.441 157.04 151.441Z" fill="#F5F5F5"/>
<path d="M210.122 151.441H173.902C172.295 151.441 170.992 152.744 170.992 154.351V161.241C170.992 162.849 172.295 164.151 173.902 164.151H210.122C211.729 164.151 213.032 162.849 213.032 161.241V154.351C213.032 152.744 211.729 151.441 210.122 151.441Z" fill="#F5F5F5"/>
<path d="M78.7003 88.9512H42.4803C40.8732 88.9512 39.5703 90.254 39.5703 91.8612V98.7512C39.5703 100.358 40.8732 101.661 42.4803 101.661H78.7003C80.3075 101.661 81.6103 100.358 81.6103 98.7512V91.8612C81.6103 90.254 80.3075 88.9512 78.7003 88.9512Z" fill="#F5F5F5"/>
<path d="M131.782 88.9512H95.5623C93.9552 88.9512 92.6523 90.254 92.6523 91.8612V98.7512C92.6523 100.358 93.9552 101.661 95.5623 101.661H131.782C133.389 101.661 134.692 100.358 134.692 98.7512V91.8612C134.692 90.254 133.389 88.9512 131.782 88.9512Z" fill="#F5F5F5"/>
<path d="M184.853 88.9512H148.633C147.026 88.9512 145.723 90.254 145.723 91.8612V98.7512C145.723 100.358 147.026 101.661 148.633 101.661H184.853C186.46 101.661 187.763 100.358 187.763 98.7512V91.8612C187.763 90.254 186.46 88.9512 184.853 88.9512Z" fill="#F5F5F5"/>
<path d="M222.412 93.291H30.1823C27.6805 93.291 25.6523 95.3192 25.6523 97.821V155.181C25.6523 157.683 27.6805 159.711 30.1823 159.711H222.412C224.914 159.711 226.942 157.683 226.942 155.181V97.821C226.942 95.3192 224.914 93.291 222.412 93.291Z" fill="white"/>
<path d="M222.412 94.791H30.1823C28.5089 94.791 27.1523 96.1476 27.1523 97.821V155.181C27.1523 156.854 28.5089 158.211 30.1823 158.211H222.412C224.086 158.211 225.442 156.854 225.442 155.181V97.821C225.442 96.1476 224.086 94.791 222.412 94.791Z" stroke="#231F20" stroke-width="3" stroke-linejoin="round"/>
<path d="M175.411 149.76H53.6211" stroke="black" stroke-width="2" stroke-miterlimit="10" stroke-linecap="round"/>
<path d="M202.79 149.76H187.18" stroke="black" stroke-width="2" stroke-miterlimit="10" stroke-linecap="round"/>
<path d="M202.793 109.971H190.113" stroke="black" stroke-width="2" stroke-miterlimit="10" stroke-linecap="round"/>
<path d="M179.42 109.971H122.82" stroke="black" stroke-width="2" stroke-miterlimit="10" stroke-linecap="round"/>
<path d="M203.271 156.711V142.441H49.6914V156.711H203.271ZM206.271 159.711H46.6914V139.441H206.271V159.711Z" fill="#231F20"/>
<path d="M127.173 119.961C141.504 119.961 153.123 108.342 153.123 94.0106C153.123 79.6788 141.504 68.0605 127.173 68.0605C112.841 68.0605 101.223 79.6788 101.223 94.0106C101.223 108.342 112.841 119.961 127.173 119.961Z" fill="white" stroke="#F2F3F4" stroke-width="2"/>
<path d="M133.002 88.0015L131.512 86.5215L124.842 93.1915L126.322 94.6715L133.002 88.0015ZM137.442 86.5215L126.342 97.7415L121.892 93.2815L120.412 94.7715L126.342 100.701L139.052 88.0015L137.442 86.5215ZM114.352 94.7815L120.282 100.711L121.772 99.2315L115.832 93.2915L114.352 94.7815Z" fill="#00ADEF"/>
</svg>
