<svg width="253" height="253" viewBox="0 0 253 253" fill="none" xmlns="http://www.w3.org/2000/svg">
<path d="M78.7 131.25H42.48C40.8729 131.25 39.57 132.553 39.57 134.16V141.05C39.57 142.657 40.8729 143.96 42.48 143.96H78.7C80.3072 143.96 81.61 142.657 81.61 141.05V134.16C81.61 132.553 80.3072 131.25 78.7 131.25Z" fill="#F5F5F5"/>
<path d="M41.91 131.25H5.69C4.08285 131.25 2.78 132.553 2.78 134.16V141.05C2.78 142.657 4.08285 143.96 5.69 143.96H41.91C43.5171 143.96 44.82 142.657 44.82 141.05V134.16C44.82 132.553 43.5171 131.25 41.91 131.25Z" fill="#F5F5F5"/>
<path d="M131.78 131.25H95.56C93.9528 131.25 92.65 132.553 92.65 134.16V141.05C92.65 142.657 93.9528 143.96 95.56 143.96H131.78C133.387 143.96 134.69 142.657 134.69 141.05V134.16C134.69 132.553 133.387 131.25 131.78 131.25Z" fill="#F5F5F5"/>
<path d="M184.85 131.25H148.63C147.023 131.25 145.72 132.553 145.72 134.16V141.05C145.72 142.657 147.023 143.96 148.63 143.96H184.85C186.457 143.96 187.76 142.657 187.76 141.05V134.16C187.76 132.553 186.457 131.25 184.85 131.25Z" fill="#F5F5F5"/>
<path d="M237.94 131.25H201.72C200.113 131.25 198.81 132.553 198.81 134.16V141.05C198.81 142.657 200.113 143.96 201.72 143.96H237.94C239.547 143.96 240.85 142.657 240.85 141.05V134.16C240.85 132.553 239.547 131.25 237.94 131.25Z" fill="#F5F5F5"/>
<path d="M131.78 172.24H95.56C93.9528 172.24 92.65 173.543 92.65 175.15V182.04C92.65 183.647 93.9528 184.95 95.56 184.95H131.78C133.387 184.95 134.69 183.647 134.69 182.04V175.15C134.69 173.543 133.387 172.24 131.78 172.24Z" fill="#F5F5F5"/>
<path d="M103.97 109.84H67.75C66.1429 109.84 64.84 111.143 64.84 112.75V119.64C64.84 121.247 66.1429 122.55 67.75 122.55H103.97C105.577 122.55 106.88 121.247 106.88 119.64V112.75C106.88 111.143 105.577 109.84 103.97 109.84Z" fill="#F5F5F5"/>
<path d="M50.88 109.84H14.66C13.0529 109.84 11.75 111.143 11.75 112.75V119.64C11.75 121.247 13.0529 122.55 14.66 122.55H50.88C52.4871 122.55 53.79 121.247 53.79 119.64V112.75C53.79 111.143 52.4871 109.84 50.88 109.84Z" fill="#F5F5F5"/>
<path d="M157.04 109.84H120.82C119.213 109.84 117.91 111.143 117.91 112.75V119.64C117.91 121.247 119.213 122.55 120.82 122.55H157.04C158.647 122.55 159.95 121.247 159.95 119.64V112.75C159.95 111.143 158.647 109.84 157.04 109.84Z" fill="#F5F5F5"/>
<path d="M210.12 109.84H173.9C172.293 109.84 170.99 111.143 170.99 112.75V119.64C170.99 121.247 172.293 122.55 173.9 122.55H210.12C211.727 122.55 213.03 121.247 213.03 119.64V112.75C213.03 111.143 211.727 109.84 210.12 109.84Z" fill="#F5F5F5"/>
<path d="M245.06 109.84H208.84C207.233 109.84 205.93 111.143 205.93 112.75V119.64C205.93 121.247 207.233 122.55 208.84 122.55H245.06C246.667 122.55 247.97 121.247 247.97 119.64V112.75C247.97 111.143 246.667 109.84 245.06 109.84Z" fill="#F5F5F5"/>
<path d="M157.04 68.06H120.82C119.213 68.06 117.91 69.3629 117.91 70.97V77.86C117.91 79.4671 119.213 80.77 120.82 80.77H157.04C158.647 80.77 159.95 79.4671 159.95 77.86V70.97C159.95 69.3629 158.647 68.06 157.04 68.06Z" fill="#F5F5F5"/>
<path d="M103.97 151.44H67.75C66.1429 151.44 64.84 152.743 64.84 154.35V161.24C64.84 162.847 66.1429 164.15 67.75 164.15H103.97C105.577 164.15 106.88 162.847 106.88 161.24V154.35C106.88 152.743 105.577 151.44 103.97 151.44Z" fill="#F5F5F5"/>
<path d="M157.04 151.44H120.82C119.213 151.44 117.91 152.743 117.91 154.35V161.24C117.91 162.847 119.213 164.15 120.82 164.15H157.04C158.647 164.15 159.95 162.847 159.95 161.24V154.35C159.95 152.743 158.647 151.44 157.04 151.44Z" fill="#F5F5F5"/>
<path d="M210.12 151.44H173.9C172.293 151.44 170.99 152.743 170.99 154.35V161.24C170.99 162.847 172.293 164.15 173.9 164.15H210.12C211.727 164.15 213.03 162.847 213.03 161.24V154.35C213.03 152.743 211.727 151.44 210.12 151.44Z" fill="#F5F5F5"/>
<path d="M78.7 88.95H42.48C40.8729 88.95 39.57 90.2529 39.57 91.86V98.75C39.57 100.357 40.8729 101.66 42.48 101.66H78.7C80.3072 101.66 81.61 100.357 81.61 98.75V91.86C81.61 90.2529 80.3072 88.95 78.7 88.95Z" fill="#F5F5F5"/>
<path d="M131.78 88.95H95.56C93.9528 88.95 92.65 90.2529 92.65 91.86V98.75C92.65 100.357 93.9528 101.66 95.56 101.66H131.78C133.387 101.66 134.69 100.357 134.69 98.75V91.86C134.69 90.2529 133.387 88.95 131.78 88.95Z" fill="#F5F5F5"/>
<path d="M184.85 88.95H148.63C147.023 88.95 145.72 90.2529 145.72 91.86V98.75C145.72 100.357 147.023 101.66 148.63 101.66H184.85C186.457 101.66 187.76 100.357 187.76 98.75V91.86C187.76 90.2529 186.457 88.95 184.85 88.95Z" fill="#F5F5F5"/>
<path d="M222.41 93.29H30.18C27.6781 93.29 25.65 95.3182 25.65 97.82V155.18C25.65 157.682 27.6781 159.71 30.18 159.71H222.41C224.912 159.71 226.94 157.682 226.94 155.18V97.82C226.94 95.3182 224.912 93.29 222.41 93.29Z" fill="white"/>
<path d="M222.41 94.79H30.18C28.5066 94.79 27.15 96.1466 27.15 97.82V155.18C27.15 156.853 28.5066 158.21 30.18 158.21H222.41C224.083 158.21 225.44 156.853 225.44 155.18V97.82C225.44 96.1466 224.083 94.79 222.41 94.79Z" stroke="#231F20" stroke-width="3" stroke-linejoin="round"/>
<path d="M175.41 149.76H53.62" stroke="black" stroke-width="2" stroke-miterlimit="10" stroke-linecap="round"/>
<path d="M202.79 149.76H187.18" stroke="black" stroke-width="2" stroke-miterlimit="10" stroke-linecap="round"/>
<path d="M202.79 109.97H190.11" stroke="black" stroke-width="2" stroke-miterlimit="10" stroke-linecap="round"/>
<path d="M179.42 109.97H122.82" stroke="black" stroke-width="2" stroke-miterlimit="10" stroke-linecap="round"/>
<path d="M203.27 156.71V142.44H49.69V156.71H203.27ZM206.27 159.71H46.69V139.44H206.27V159.71Z" fill="#231F20"/>
<path d="M127.17 119.96C141.502 119.96 153.12 108.342 153.12 94.01C153.12 79.6782 141.502 68.06 127.17 68.06C112.838 68.06 101.22 79.6782 101.22 94.01C101.22 108.342 112.838 119.96 127.17 119.96Z" fill="white" stroke="#F2F3F4" stroke-width="2"/>
<path d="M133 88L131.51 86.52L124.84 93.19L126.32 94.67L133 88ZM137.44 86.52L126.34 97.74L121.89 93.28L120.41 94.77L126.34 100.7L139.05 88L137.44 86.52ZM114.35 94.78L120.28 100.71L121.77 99.23L115.83 93.29L114.35 94.78Z" fill="#00ADEF"/>
</svg>
