<svg width="45" height="26" viewBox="0 0 45 26" fill="none" xmlns="http://www.w3.org/2000/svg">
<path d="M1 14.045L44 14.045V12.045L1 12.045V14.045Z" fill="#707070"/>
<path d="M12 13C12 14.1867 11.6481 15.3467 10.9888 16.3334C10.3295 17.3201 9.39246 18.0892 8.2961 18.5433C7.19975 18.9974 5.99335 19.1162 4.82946 18.8847C3.66558 18.6532 2.59648 18.0818 1.75736 17.2426C0.918247 16.4035 0.346802 15.3344 0.115291 14.1705C-0.11622 13.0067 0.00259972 11.8003 0.456726 10.7039C0.910851 9.60754 1.67989 8.67047 2.66658 8.01118C3.65328 7.35189 4.81331 7 6 7C7.5913 7 9.11742 7.63214 10.2426 8.75736C11.3679 9.88258 12 11.4087 12 13Z" fill="#707070"/>
</svg>
