<svg width="253" height="253" viewBox="0 0 253 253" fill="none" xmlns="http://www.w3.org/2000/svg">
<path d="M205.83 178.9C206.529 175.11 206.884 171.264 206.89 167.41C206.9 153.299 202.184 139.591 193.494 128.473C184.804 117.356 172.641 109.469 158.945 106.071C145.249 102.674 130.809 103.961 117.931 109.729C105.052 115.496 94.476 125.41 87.89 137.89C85.4634 137.524 83.014 137.33 80.56 137.31C67.0525 137.31 54.0983 142.676 44.5471 152.227C34.9958 161.778 29.63 174.733 29.63 188.24C29.63 201.747 34.9958 214.702 44.5471 224.253C54.0983 233.804 67.0525 239.17 80.56 239.17H192C199.183 239.173 206.154 236.737 211.771 232.261C217.389 227.785 221.321 221.534 222.923 214.533C224.525 207.531 223.702 200.193 220.59 193.719C217.477 187.246 212.259 182.021 205.79 178.9H205.83Z" fill="#F5F5F5"/>
<path d="M25.8 40.43C24.7741 34.9854 25.7375 29.3535 28.5148 24.5595C31.2921 19.7654 35.6986 16.1282 40.9321 14.3098C46.1655 12.4914 51.878 12.6128 57.0295 14.6519C62.181 16.6911 66.4289 20.5123 69 25.42C69.887 25.2843 70.7827 25.2141 71.68 25.21C74.1648 25.1525 76.6361 25.5922 78.9486 26.5033C81.261 27.4144 83.368 28.7786 85.1458 30.5157C86.9235 32.2527 88.3361 34.3276 89.3006 36.6183C90.265 38.9091 90.7618 41.3695 90.7618 43.855C90.7618 46.3405 90.265 48.8009 89.3006 51.0917C88.3361 53.3824 86.9235 55.4573 85.1458 57.1943C83.368 58.9314 81.261 60.2956 78.9486 61.2067C76.6361 62.1178 74.1648 62.5576 71.68 62.5H30.85C28.2188 62.5027 25.6648 61.6117 23.6064 59.9728C21.548 58.334 20.1073 56.0445 19.5204 53.4797C18.9335 50.9148 19.2352 48.2266 20.3761 45.8557C21.5171 43.4848 23.4295 41.5717 25.8 40.43Z" fill="#F5F5F5"/>
<path d="M235.46 77.47C236.086 74.0367 235.463 70.4928 233.704 67.4787C231.945 64.4645 229.166 62.1791 225.868 61.0354C222.571 59.8916 218.974 59.9651 215.726 61.2424C212.478 62.5197 209.795 64.9166 208.16 68C206.559 67.7698 204.928 67.8716 203.368 68.2992C201.809 68.7268 200.354 69.4709 199.094 70.4853C197.835 71.4997 196.797 72.7626 196.047 74.1953C195.297 75.628 194.85 77.1998 194.733 78.8129C194.617 80.426 194.834 82.0457 195.371 83.5712C195.908 85.0967 196.753 86.4953 197.854 87.6799C198.956 88.8645 200.289 89.8097 201.771 90.4566C203.253 91.1035 204.853 91.4382 206.47 91.44H232.27C233.951 91.4643 235.59 90.9106 236.912 89.8715C238.234 88.8324 239.159 87.3709 239.533 85.7315C239.906 84.092 239.706 82.3739 238.964 80.8647C238.223 79.3554 236.986 78.1465 235.46 77.44V77.47Z" fill="#F5F5F5"/>
<path d="M161.25 49.6H92.18C87.3586 49.6 83.45 53.5086 83.45 58.33V194.66C83.45 199.481 87.3586 203.39 92.18 203.39H161.25C166.071 203.39 169.98 199.481 169.98 194.66V58.33C169.98 53.5086 166.071 49.6 161.25 49.6Z" fill="white" stroke="#231F20" stroke-width="3" stroke-miterlimit="10" stroke-linecap="round"/>
<path d="M126.72 154.23C142.687 154.23 155.63 141.287 155.63 125.32C155.63 109.353 142.687 96.41 126.72 96.41C110.753 96.41 97.81 109.353 97.81 125.32C97.81 141.287 110.753 154.23 126.72 154.23Z" fill="white" stroke="#F2F3F4" stroke-width="2"/>
<path d="M133.22 118.62L131.57 117L124.14 124.44L125.79 126.09L133.22 118.62ZM138.22 116.96L125.83 129.47L120.83 124.47L119.18 126.12L125.79 132.73L140 118.61L138.22 116.96ZM112.5 126.17L119.1 132.78L120.76 131.12L114.15 124.51L112.5 126.17Z" fill="#00ADEF"/>
<path d="M112.94 49.6L114.31 54.08C114.591 54.9931 115.157 55.792 115.926 56.3591C116.694 56.9262 117.625 57.2314 118.58 57.23H134.82C135.769 57.2323 136.693 56.9306 137.458 56.3691C138.223 55.8076 138.788 55.0159 139.07 54.11L140.5 49.6" stroke="#231F20" stroke-width="3" stroke-miterlimit="10" stroke-linecap="round"/>
<path d="M116.42 196.69H137.01" stroke="#231F20" stroke-width="3" stroke-miterlimit="10" stroke-linecap="round"/>
</svg>
