<svg width="24" height="24" viewBox="0 0 24 24" fill="none" xmlns="http://www.w3.org/2000/svg">
<g clip-path="url(#clip0)">
<path d="M23.61 10.838C22.266 9.06253 20.5419 7.61009 18.564 6.58702C16.5325 5.54489 14.2822 5.00134 11.999 5.00134C9.71583 5.00134 7.46546 5.54489 5.434 6.58702C3.45675 7.61021 1.7331 9.06225 0.388998 10.837C0.13638 11.1721 -0.000259399 11.5804 -0.000259399 12C-0.000259399 12.4197 0.13638 12.8279 0.388998 13.163C1.73318 14.938 3.4568 16.3903 5.434 17.414C7.46555 18.4558 9.71589 18.9992 11.999 18.9992C14.2821 18.9992 16.5324 18.4558 18.564 17.414C20.5415 16.3903 22.2654 14.938 23.61 13.163C23.8627 12.8281 23.9994 12.42 23.9994 12.0005C23.9994 11.581 23.8627 11.1729 23.61 10.838ZM5.87 16.516C4.02363 15.56 2.41412 14.2036 1.159 12.546C1.04072 12.3889 0.976746 12.1977 0.976746 12.001C0.976746 11.8044 1.04072 11.6131 1.159 11.456C2.41433 9.79834 4.02378 8.4417 5.87 7.48502C6.38354 7.22142 6.91327 6.99062 7.456 6.79402C6.7427 7.46085 6.17402 8.26712 5.78522 9.16283C5.39642 10.0585 5.1958 11.0246 5.1958 12.001C5.1958 12.9775 5.39642 13.9435 5.78522 14.8392C6.17402 15.7349 6.7427 16.5412 7.456 17.208C6.913 17.0117 6.38324 16.7805 5.87 16.516ZM11.999 18.001C10.4311 17.9765 8.93704 17.331 7.8446 16.2061C6.75215 15.0813 6.15062 13.5689 6.172 12.001C6.15062 10.4331 6.75215 8.92078 7.8446 7.7959C8.93704 6.67102 10.4311 6.02551 11.999 6.00102C13.5669 6.02551 15.061 6.67102 16.1534 7.7959C17.2458 8.92078 17.8474 10.4331 17.826 12.001C17.8474 13.5689 17.2458 15.0813 16.1534 16.2061C15.061 17.331 13.5669 17.9765 11.999 18.001ZM22.84 12.549C21.5845 14.2067 19.9747 15.5631 18.128 16.519C17.6151 16.7823 17.0861 17.0128 16.544 17.209C17.2572 16.5421 17.8257 15.7358 18.2144 14.8401C18.6032 13.9444 18.8037 12.9784 18.8037 12.002C18.8037 11.0256 18.6032 10.0596 18.2144 9.16392C17.8257 8.26823 17.2572 7.46193 16.544 6.79502C17.0868 6.99179 17.6166 7.22292 18.13 7.48702C19.9765 8.44366 21.5863 9.80029 22.842 11.458C22.9595 11.6151 23.0229 11.8062 23.0225 12.0024C23.0221 12.1986 22.9581 12.3893 22.84 12.546V12.549Z" fill="#00ADEF"/>
<path d="M11.999 9.43402C11.4884 9.4195 10.9851 9.55761 10.5535 9.8307C10.1219 10.1038 9.78152 10.4994 9.57599 10.967C9.37046 11.4346 9.3091 11.9529 9.39975 12.4556C9.4904 12.9582 9.72894 13.4224 10.0849 13.7888C10.4408 14.1551 10.8979 14.4069 11.3977 14.512C11.8976 14.6172 12.4174 14.5708 12.8907 14.3788C13.3641 14.1868 13.7694 13.858 14.0548 13.4345C14.3402 13.0109 14.4928 12.5118 14.493 12.001C14.5018 11.3301 14.2442 10.6831 13.7767 10.2019C13.3091 9.72071 12.6699 9.44455 11.999 9.43402ZM11.999 13.563C11.688 13.5722 11.3814 13.4883 11.1184 13.3222C10.8553 13.1561 10.6479 12.9152 10.5225 12.6305C10.3971 12.3458 10.3596 12.0301 10.4147 11.7239C10.4698 11.4177 10.615 11.1349 10.8318 10.9118C11.0485 10.6886 11.3269 10.5352 11.6314 10.4711C11.9358 10.4071 12.2524 10.4354 12.5407 10.5524C12.829 10.6694 13.0758 10.8697 13.2495 11.1278C13.4233 11.3859 13.5161 11.6899 13.516 12.001C13.5213 12.4091 13.3647 12.8027 13.0803 13.0955C12.7959 13.3883 12.4071 13.5564 11.999 13.563Z" fill="#00ADEF"/>
</g>
<defs>
<clipPath id="clip0">
<rect width="24" height="14" fill="white" transform="translate(0 5)"/>
</clipPath>
</defs>
</svg>
