<svg width="36" height="25" viewBox="0 0 36 25" fill="none" xmlns="http://www.w3.org/2000/svg">
<g clip-path="url(#clip0)">
<path d="M32.55 0.799988C33.0009 0.799988 33.4333 0.979101 33.7521 1.29791C34.0709 1.61672 34.25 2.04913 34.25 2.5V22.5C34.25 22.9509 34.0709 23.3833 33.7521 23.7021C33.4333 24.0209 33.0009 24.2 32.55 24.2H2.54999C2.09912 24.2 1.66671 24.0209 1.3479 23.7021C1.02909 23.3833 0.849976 22.9509 0.849976 22.5V2.5C0.849976 2.04913 1.02909 1.61672 1.3479 1.29791C1.66671 0.979101 2.09912 0.799988 2.54999 0.799988H32.55ZM32.55 0H2.54999C1.88695 0 1.25107 0.263398 0.782227 0.732239C0.313386 1.20108 0.0499878 1.83696 0.0499878 2.5V22.5C0.0499878 23.163 0.313386 23.7989 0.782227 24.2678C1.25107 24.7366 1.88695 25 2.54999 25H32.55C33.213 25 33.8489 24.7366 34.3177 24.2678C34.7866 23.7989 35.05 23.163 35.05 22.5V2.5C35.05 1.83696 34.7866 1.20108 34.3177 0.732239C33.8489 0.263398 33.213 0 32.55 0Z" fill="#F6F6F6"/>
<path fill-rule="evenodd" clip-rule="evenodd" d="M13.906 16.223L15.15 8.79995H17.136L15.894 16.227L13.906 16.223ZM23.099 8.97796C22.529 8.76881 21.9261 8.66348 21.319 8.66695C19.354 8.66695 17.972 9.67497 17.96 11.118C17.948 12.185 18.947 12.7809 19.7 13.1359C20.474 13.4989 20.734 13.736 20.731 14.057C20.726 14.557 20.113 14.783 19.542 14.783C18.8963 14.8022 18.2552 14.6685 17.671 14.393L17.416 14.275L17.138 15.937C17.845 16.2045 18.5951 16.3401 19.351 16.337C21.438 16.337 22.795 15.3419 22.811 13.7999C22.818 12.9539 22.288 12.312 21.142 11.782C20.448 11.438 20.022 11.21 20.026 10.861C20.026 10.553 20.386 10.2219 21.164 10.2219C21.6734 10.2088 22.1798 10.3036 22.65 10.5L22.829 10.585L23.099 8.97796ZM28.199 8.80395H26.663C26.4458 8.77635 26.2257 8.82181 26.0372 8.93316C25.8487 9.04451 25.7026 9.21544 25.622 9.41897L22.672 16.226H24.75C24.75 16.226 25.09 15.31 25.167 15.109H27.712C27.771 15.368 27.954 16.2219 27.954 16.2219H29.797L28.199 8.80395ZM25.748 13.59C25.913 13.163 26.539 11.514 26.539 11.514C26.528 11.534 26.703 11.084 26.803 10.805L26.937 11.446C26.937 11.446 27.319 13.219 27.397 13.59H25.748ZM12.239 8.79995L10.295 13.864L10.087 12.835C9.58902 11.4902 8.60788 10.3793 7.33499 9.71896L9.11398 16.219H11.214L14.35 8.79995H12.239Z" fill="#00579F"/>
<path fill-rule="evenodd" clip-rule="evenodd" d="M8.45798 8.66699H5.172L5.14499 8.82699C6.23955 9.04528 7.26363 9.52941 8.12701 10.2367C8.99039 10.944 9.66656 11.8528 10.096 12.883L9.38199 9.32101C9.33458 9.11787 9.21436 8.93914 9.0441 8.81863C8.87384 8.69812 8.66532 8.64417 8.45798 8.66699Z" fill="#F79510"/>
</g>
<defs>
<clipPath id="clip0">
<rect width="35" height="25" fill="white" transform="translate(0.0499878)"/>
</clipPath>
</defs>
</svg>
