<svg width="36" height="36" viewBox="0 0 36 36" fill="none" xmlns="http://www.w3.org/2000/svg">
<path d="M18 36C27.9411 36 36 27.9411 36 18C36 8.05887 27.9411 0 18 0C8.05887 0 0 8.05887 0 18C0 27.9411 8.05887 36 18 36Z" fill="#EEEEEE"/>
<path d="M25.665 21.5625L25.6125 21.465C25.1879 20.7974 24.6673 20.196 24.0675 19.68C23.8385 19.4691 23.6207 19.2463 23.415 19.0125C23.3368 18.9253 23.2847 18.8179 23.2648 18.7024C23.2449 18.587 23.258 18.4683 23.3025 18.36C23.4938 17.9656 23.7277 17.5934 24 17.25L24.525 16.5675C25.455 15.33 25.8525 14.5425 25.7325 14.1975L25.68 14.115C25.6121 14.0473 25.5262 14.0005 25.4325 13.98C25.2618 13.9448 25.0857 13.9448 24.915 13.98H22.5975C22.5436 13.9646 22.4864 13.9646 22.4325 13.98H22.3275H22.29H22.2525C22.2195 14.0013 22.1914 14.0295 22.17 14.0625C22.1339 14.1044 22.1059 14.1528 22.0875 14.205C21.8439 14.8299 21.5557 15.4365 21.225 16.02C21.0225 16.35 20.8425 16.6425 20.6775 16.8825C20.5521 17.0734 20.4117 17.254 20.2575 17.4225C20.1633 17.5238 20.0604 17.6166 19.95 17.7C19.86 17.775 19.785 17.805 19.74 17.79H19.605C19.5281 17.7405 19.4639 17.6738 19.4175 17.595C19.3698 17.4959 19.3394 17.3894 19.3275 17.28C19.3275 17.1525 19.3275 17.04 19.3275 16.95C19.3275 16.86 19.3275 16.7325 19.3275 16.56C19.3275 16.3875 19.3275 16.2825 19.3275 16.2225C19.3275 16.02 19.3275 15.795 19.3275 15.5625C19.3275 15.33 19.3275 15.1275 19.3275 14.9925C19.3275 14.8575 19.3275 14.7 19.3275 14.55C19.342 14.4279 19.342 14.3046 19.3275 14.1825C19.3115 14.0918 19.2838 14.0036 19.245 13.92C19.2093 13.8409 19.1522 13.7733 19.08 13.725C18.9964 13.6754 18.9052 13.6399 18.81 13.62C18.4522 13.5473 18.0877 13.5121 17.7225 13.515C17.0735 13.4611 16.4201 13.5272 15.795 13.71C15.6782 13.7698 15.5739 13.8512 15.4875 13.95C15.39 14.07 15.375 14.13 15.45 14.145C15.5811 14.154 15.709 14.1891 15.8262 14.2484C15.9434 14.3076 16.0476 14.3898 16.1325 14.49L16.185 14.5875C16.2377 14.7048 16.2755 14.8283 16.2975 14.955C16.3369 15.1502 16.3595 15.3484 16.365 15.5475C16.3953 15.8818 16.3953 16.2182 16.365 16.5525C16.365 16.8375 16.3125 17.055 16.29 17.205C16.2735 17.3369 16.2382 17.4657 16.185 17.5875L16.0875 17.7675H16.0425C15.9734 17.7951 15.8994 17.8078 15.825 17.805C15.7257 17.7956 15.6316 17.7563 15.555 17.6925C15.4281 17.607 15.3144 17.5034 15.2175 17.385C15.0729 17.2107 14.9425 17.0251 14.8275 16.83C14.6618 16.5587 14.5115 16.2783 14.3775 15.99L14.25 15.8625L13.92 15.21C13.785 14.9175 13.6575 14.64 13.5525 14.37C13.5162 14.2665 13.4479 14.1772 13.3575 14.115H13.32L13.185 14.0475C13.1289 14.0189 13.0678 14.0011 13.005 13.995H10.7925C10.7099 13.9835 10.6257 13.991 10.5464 14.017C10.4671 14.043 10.3948 14.0868 10.335 14.145L10.2975 14.1975C10.2867 14.2393 10.2867 14.2832 10.2975 14.325C10.3003 14.4003 10.3181 14.4742 10.35 14.5425C10.6725 15.2925 11.025 16.0425 11.4 16.7325C11.775 17.4225 12.1125 18.0075 12.39 18.435C12.6675 18.8625 12.9525 19.275 13.245 19.6575C13.5375 20.04 13.725 20.28 13.8225 20.4075C13.8906 20.4938 13.9632 20.5764 14.04 20.655L14.2425 20.85C14.4214 21.0159 14.6119 21.1687 14.8125 21.3075C15.0794 21.5011 15.3573 21.6789 15.645 21.84C15.9753 22.0323 16.3314 22.1763 16.7025 22.2675C17.0848 22.3775 17.4828 22.4231 17.88 22.4025H18.75C18.9102 22.3991 19.0631 22.3347 19.1775 22.2225V22.185C19.2072 22.1394 19.2276 22.0885 19.2375 22.035C19.249 21.963 19.249 21.8895 19.2375 21.8175C19.2307 21.6062 19.2483 21.3948 19.29 21.1875C19.3157 21.042 19.3611 20.9007 19.425 20.7675C19.4727 20.6832 19.5306 20.6051 19.5975 20.535C19.6393 20.4887 19.6873 20.4483 19.74 20.415H19.8C19.8809 20.3994 19.9644 20.4028 20.0438 20.4249C20.1232 20.447 20.1963 20.4873 20.2575 20.5425C20.4387 20.6793 20.6046 20.8352 20.7525 21.0075C20.9025 21.195 21.09 21.405 21.3 21.6375C21.4731 21.8255 21.664 21.9963 21.87 22.1475L22.0275 22.245C22.1589 22.3234 22.3001 22.384 22.4475 22.425C22.5917 22.4765 22.7468 22.4895 22.8975 22.4625H24.96C25.1552 22.4577 25.3439 22.3922 25.5 22.275C25.5941 22.229 25.6666 22.1484 25.7025 22.05C25.7251 21.9614 25.7251 21.8686 25.7025 21.78C25.698 21.7063 25.6855 21.6334 25.665 21.5625Z" fill="#888888"/>
</svg>
