<svg width="36" height="25" viewBox="0 0 36 25" fill="none" xmlns="http://www.w3.org/2000/svg">
<g clip-path="url(#clip0)">
<path d="M32.55 0.799988C33.0009 0.799988 33.4333 0.979101 33.7521 1.29791C34.0709 1.61672 34.25 2.04913 34.25 2.5V22.5C34.25 22.9509 34.0709 23.3832 33.7521 23.7021C33.4333 24.0209 33.0009 24.2 32.55 24.2H2.54999C2.09912 24.2 1.66671 24.0209 1.3479 23.7021C1.02909 23.3832 0.849976 22.9509 0.849976 22.5V2.5C0.849976 2.04913 1.02909 1.61672 1.3479 1.29791C1.66671 0.979101 2.09912 0.799988 2.54999 0.799988H32.55ZM32.55 0H2.54999C1.88695 0 1.25107 0.263367 0.782227 0.732208C0.313386 1.20105 0.0499878 1.83696 0.0499878 2.5V22.5C0.0499878 23.163 0.313386 23.7989 0.782227 24.2678C1.25107 24.7366 1.88695 25 2.54999 25H32.55C33.213 25 33.8489 24.7366 34.3177 24.2678C34.7866 23.7989 35.05 23.163 35.05 22.5V2.5C35.05 1.83696 34.7866 1.20105 34.3177 0.732208C33.8489 0.263367 33.213 0 32.55 0Z" fill="#F6F6F6"/>
<path fill-rule="evenodd" clip-rule="evenodd" d="M22.421 15.185V4.07001C21.3521 3.13078 20.035 2.51966 18.6276 2.30987C17.2202 2.10009 15.7821 2.30052 14.4857 2.88717C13.1893 3.47382 12.0896 4.42182 11.3182 5.61755C10.5469 6.81329 10.1366 8.20607 10.1366 9.62903C10.1366 11.052 10.5469 12.4447 11.3182 13.6405C12.0896 14.8362 13.1893 15.7842 14.4857 16.3708C15.7821 16.9575 17.2202 17.1579 18.6276 16.9481C20.035 16.7384 21.3521 16.1272 22.421 15.188V15.185Z" fill="#0074B9"/>
<path fill-rule="evenodd" clip-rule="evenodd" d="M21.404 3.32202H21.192L20.503 4.04703L19.37 2.89801L17.789 4.44501L16.665 3.27802L13.501 6.17801L15.629 8.44101L14.904 9.15402L16.742 11.165L16.126 12.096L18.826 15.116L20.618 13.61L22.024 15.164H22.445C23.315 14.3997 23.9928 13.4414 24.4238 12.3666C24.8548 11.2918 25.0268 10.1306 24.9258 8.97702C24.8249 7.82342 24.4538 6.70979 23.8427 5.72617C23.2316 4.74255 22.3975 3.91654 21.408 3.315L21.404 3.32202Z" fill="white"/>
<path fill-rule="evenodd" clip-rule="evenodd" d="M21.595 13.552L22.821 12.261L24.004 13.414L22.853 14.627L21.595 13.552ZM23.258 10.046L23.945 9.22302L24.658 10.038L24.013 10.911L23.258 10.046ZM20.377 10.791L21.664 9.608L22.838 10.86L21.624 12.129L20.377 10.791ZM17.343 12.185L19.186 10.616L20.732 12.248L19.132 13.848L17.343 12.185ZM22.084 7.53802L22.834 6.69101L23.818 7.591L22.983 8.40802L22.084 7.53802ZM19.359 7.99503L20.59 6.95102L21.722 8.009L20.616 9.23901L19.359 7.99503ZM16.208 9.24002L17.873 7.70801L19.298 9.20801L17.798 10.891L16.208 9.24002ZM21.061 5.00201L21.698 4.22302L22.461 4.914L21.893 5.69601L21.061 5.00201ZM18.067 5.51901L19.381 4.29901L20.617 5.47202L19.359 6.72803L18.067 5.51901ZM14.907 6.34802L16.643 4.78601L18.268 6.35901L16.608 7.89301L14.907 6.34802Z" fill="#0074B9"/>
<path fill-rule="evenodd" clip-rule="evenodd" d="M8.69202 18.9771L9.013 20.649L9.08197 21.114L9.15302 20.6591L9.42603 18.9771H9.96002L10.248 20.649L10.322 21.114L10.396 20.666L10.72 18.9771H11.235L10.552 21.8961H10.069L9.776 20.1891L9.69 19.6251L9.60498 20.1891L9.31201 21.8961H8.84198L8.15399 18.9771H8.69202ZM12.722 19.777C12.8511 19.8517 12.9554 19.9626 13.022 20.096C13.0959 20.2345 13.1424 20.386 13.159 20.5421C13.1727 20.6839 13.1778 20.8265 13.174 20.9691H11.947C11.9408 21.0527 11.9526 21.1368 11.9818 21.2155C12.0109 21.2942 12.0567 21.3656 12.116 21.425C12.1817 21.4793 12.2648 21.5081 12.35 21.506C12.3941 21.5077 12.4381 21.4996 12.4787 21.4823C12.5193 21.465 12.5556 21.439 12.585 21.406C12.623 21.3625 12.6524 21.3124 12.672 21.2581H13.151C13.1326 21.4008 13.0751 21.5358 12.985 21.648C12.9121 21.75 12.815 21.8322 12.7024 21.8872C12.5898 21.9422 12.4652 21.9683 12.34 21.963C12.2271 21.9621 12.1156 21.938 12.0125 21.8922C11.9093 21.8465 11.8165 21.78 11.74 21.6971C11.5441 21.4542 11.4505 21.1447 11.479 20.834C11.4587 20.529 11.5418 20.226 11.715 19.9741C11.7857 19.8789 11.8782 19.802 11.9846 19.7498C12.0911 19.6977 12.2085 19.6717 12.327 19.674C12.4668 19.6723 12.6045 19.7067 12.727 19.774L12.722 19.777ZM12.067 20.264C12.0012 20.3634 11.9623 20.4781 11.954 20.597H12.683C12.6844 20.4743 12.6446 20.3546 12.57 20.257C12.5395 20.2203 12.501 20.1909 12.4576 20.171C12.4141 20.1511 12.3667 20.1412 12.319 20.1421C12.2701 20.1397 12.2215 20.1497 12.1775 20.171C12.1335 20.1923 12.0955 20.2243 12.067 20.264ZM15.176 19.993C15.3182 20.232 15.3877 20.5072 15.376 20.785C15.386 21.076 15.3169 21.3643 15.176 21.619C15.1238 21.7198 15.0447 21.8041 14.9474 21.8625C14.8501 21.921 14.7385 21.9513 14.625 21.95C14.4973 21.9562 14.3713 21.9184 14.268 21.843C14.197 21.7799 14.1378 21.7048 14.093 21.621V21.8921H13.634V18.985H14.102V20.023C14.1524 19.9336 14.2205 19.8554 14.302 19.7931C14.3952 19.724 14.5091 19.6887 14.625 19.6931C14.7361 19.6905 14.8459 19.7176 14.9431 19.7716C15.0403 19.8255 15.1214 19.9044 15.178 20.0001L15.176 19.993ZM14.784 21.308C14.8567 21.1649 14.8912 21.0054 14.884 20.845C14.8875 20.7163 14.871 20.5877 14.835 20.4641C14.8205 20.3822 14.7778 20.308 14.7144 20.2543C14.6509 20.2006 14.5706 20.1708 14.4875 20.1701C14.4044 20.1694 14.3236 20.1978 14.2592 20.2504C14.1948 20.303 14.1509 20.3764 14.135 20.458C14.0987 20.583 14.0822 20.7129 14.086 20.843C14.0794 21.0021 14.1138 21.1601 14.186 21.302C14.2148 21.3591 14.2595 21.4066 14.3146 21.4389C14.3698 21.4712 14.4332 21.4869 14.497 21.484C14.5557 21.4843 14.6133 21.4679 14.663 21.4368C14.7128 21.4056 14.7526 21.361 14.778 21.308H14.784ZM17.521 18.9771H18.249V21.8961H17.777V19.9221C17.777 19.8651 17.777 19.785 17.777 19.683C17.777 19.581 17.777 19.502 17.777 19.446L17.319 21.8961H16.827L16.371 19.446C16.371 19.502 16.371 19.581 16.371 19.683C16.371 19.785 16.371 19.8651 16.371 19.9221V21.8961H15.898V18.9771H16.635L17.076 21.277L17.521 18.9771ZM20.345 21.634C20.2636 21.7393 20.1592 21.8245 20.0397 21.8831C19.9203 21.9417 19.7891 21.9722 19.656 21.9722C19.523 21.9722 19.3917 21.9417 19.2722 21.8831C19.1528 21.8245 19.0484 21.7393 18.967 21.634C18.8185 21.3894 18.74 21.1087 18.74 20.8225C18.74 20.5364 18.8185 20.2557 18.967 20.011C19.0475 19.9046 19.1517 19.8182 19.2712 19.7588C19.3908 19.6993 19.5225 19.6684 19.656 19.6684C19.7895 19.6684 19.9212 19.6993 20.0408 19.7588C20.1603 19.8182 20.2644 19.9046 20.345 20.011C20.4935 20.2557 20.572 20.5364 20.572 20.8225C20.572 21.1087 20.4935 21.3894 20.345 21.634ZM19.97 21.3221C20.0423 21.1653 20.0797 20.9947 20.0797 20.8221C20.0797 20.6494 20.0423 20.4788 19.97 20.3221C19.9364 20.2685 19.8899 20.2244 19.8346 20.1938C19.7793 20.1633 19.7172 20.1472 19.654 20.1472C19.5908 20.1472 19.5287 20.1633 19.4734 20.1938C19.4182 20.2244 19.3716 20.2685 19.338 20.3221C19.2651 20.4786 19.2272 20.6493 19.2272 20.8221C19.2272 20.9948 19.2651 21.1655 19.338 21.3221C19.3714 21.3758 19.4179 21.4201 19.4732 21.4509C19.5285 21.4816 19.5907 21.4978 19.654 21.4978C19.7173 21.4978 19.7795 21.4816 19.8348 21.4509C19.8901 21.4201 19.9366 21.3758 19.97 21.3221ZM22.524 19.8611C22.6573 20.0242 22.7209 20.2333 22.701 20.4431V21.8961H22.221V20.5851C22.2247 20.4964 22.2118 20.4079 22.183 20.324C22.1631 20.2715 22.1267 20.2269 22.0793 20.1968C22.0319 20.1667 21.976 20.1527 21.92 20.157C21.8459 20.1548 21.7733 20.1777 21.7139 20.222C21.6546 20.2663 21.612 20.3294 21.593 20.401C21.5591 20.5073 21.5436 20.6186 21.547 20.73V21.898H21.08V19.743H21.532V20.058C21.5757 19.9697 21.6335 19.889 21.703 19.8191C21.8041 19.7301 21.9354 19.6832 22.07 19.688C22.1536 19.6848 22.237 19.6986 22.3151 19.7287C22.3931 19.7588 22.4642 19.8045 22.524 19.863V19.8611ZM24.412 19.781C24.5411 19.8556 24.6454 19.9666 24.712 20.1C24.7859 20.2385 24.8324 20.39 24.849 20.5461C24.8627 20.6879 24.8677 20.8305 24.864 20.9731H23.637C23.6308 21.0567 23.6426 21.1408 23.6718 21.2195C23.7009 21.2982 23.7467 21.3696 23.806 21.429C23.8717 21.4833 23.9548 21.5121 24.04 21.51C24.0841 21.5117 24.128 21.5036 24.1686 21.4863C24.2093 21.469 24.2456 21.443 24.275 21.41C24.3129 21.3665 24.3424 21.3163 24.362 21.2621H24.841C24.8226 21.4048 24.7651 21.5398 24.675 21.652C24.6021 21.754 24.505 21.8362 24.3924 21.8912C24.2798 21.9462 24.1552 21.9723 24.03 21.967C23.9171 21.9661 23.8056 21.942 23.7025 21.8962C23.5993 21.8505 23.5065 21.784 23.43 21.701C23.2341 21.4582 23.1405 21.1487 23.169 20.838C23.1487 20.533 23.2318 20.23 23.405 19.9781C23.4757 19.8829 23.5682 19.806 23.6746 19.7538C23.7811 19.7017 23.8984 19.6757 24.017 19.678C24.1567 19.6762 24.2946 19.7106 24.417 19.778L24.412 19.781ZM23.757 20.268C23.6912 20.3674 23.6523 20.4821 23.644 20.601H24.373C24.3744 20.4783 24.3346 20.3586 24.26 20.261C24.2295 20.2243 24.191 20.1949 24.1476 20.175C24.1041 20.1551 24.0568 20.1452 24.009 20.1461C23.9601 20.1437 23.9115 20.1537 23.8675 20.175C23.8235 20.1963 23.7855 20.2283 23.757 20.268ZM25.416 22.3101H25.476C25.5198 22.3131 25.5637 22.3111 25.607 22.304C25.6439 22.2987 25.6785 22.2831 25.707 22.259C25.7445 22.2196 25.7711 22.171 25.784 22.118C25.8014 22.0768 25.8112 22.0328 25.813 21.988L25.155 19.734H25.676L26.068 21.326L26.438 19.734H26.938L26.323 21.8571C26.2607 22.1212 26.1663 22.3768 26.042 22.618C25.9897 22.6741 25.9248 22.7168 25.8525 22.7426C25.7803 22.7683 25.703 22.7764 25.627 22.7661H25.527L25.413 22.759L25.416 22.3101Z" fill="#0074B9"/>
</g>
<defs>
<clipPath id="clip0">
<rect width="35" height="25" fill="white" transform="translate(0.0499878)"/>
</clipPath>
</defs>
</svg>
