<svg width="36" height="25" viewBox="0 0 36 25" fill="none" xmlns="http://www.w3.org/2000/svg">
<g clip-path="url(#clip0)">
<path d="M33.0312 0.799988C33.4821 0.799988 33.9145 0.979101 34.2333 1.29791C34.5522 1.61672 34.7313 2.04913 34.7313 2.5V22.5C34.7313 22.9509 34.5522 23.3832 34.2333 23.7021C33.9145 24.0209 33.4821 24.2 33.0312 24.2H3.03125C2.58038 24.2 2.14797 24.0209 1.82916 23.7021C1.51035 23.3832 1.33124 22.9509 1.33124 22.5V2.5C1.33124 2.04913 1.51035 1.61672 1.82916 1.29791C2.14797 0.979101 2.58038 0.799988 3.03125 0.799988H33.0312ZM33.0312 0H3.03125C2.36821 0 1.73233 0.263367 1.26349 0.732208C0.794648 1.20105 0.53125 1.83696 0.53125 2.5V22.5C0.53125 23.163 0.794648 23.7989 1.26349 24.2678C1.73233 24.7366 2.36821 25 3.03125 25H33.0312C33.6943 25 34.3302 24.7366 34.799 24.2678C35.2679 23.7989 35.5312 23.163 35.5312 22.5V2.5C35.5312 1.83696 35.2679 1.20105 34.799 0.732208C34.3302 0.263367 33.6943 0 33.0312 0Z" fill="#F6F6F6"/>
<path d="M4.45874 12.6642L3.6217 14.5432H3.01172L3.93073 12.5342C3.68841 12.408 3.48995 12.2114 3.36145 11.9702C3.23295 11.7291 3.18038 11.4548 3.21069 11.1832C3.18932 10.9854 3.21059 10.7852 3.27307 10.5963C3.33555 10.4073 3.43782 10.2339 3.57294 10.0878C3.70806 9.94171 3.8729 9.82627 4.0564 9.74923C4.23989 9.67219 4.43779 9.63536 4.63672 9.64123H5.42474V14.5412H4.89673V12.6622L4.45874 12.6642ZM4.89673 10.0862H4.61572C4.19072 10.0862 3.77972 10.3672 3.77972 11.1862C3.77972 11.9752 4.15672 12.2292 4.61572 12.2292H4.89673V10.0862Z" fill="#FF0000"/>
<path d="M7.97137 11.0848V14.5408H7.44336V12.9908H6.64337V14.5408H6.10938V11.0848H6.64337V12.5518H7.44336V11.0848H7.97137ZM10.7203 15.2198H10.2404V14.5408H8.75934V15.2198H8.27936V14.1018H8.49237C8.77461 13.2235 8.89291 12.3008 8.84137 11.3798V11.0798H10.4413V14.0968H10.7154L10.7203 15.2198ZM9.92035 11.5198H9.32037V11.5818C9.35505 12.4349 9.24618 13.2877 8.99835 14.1048H9.91736L9.92035 11.5198ZM12.1964 14.5918C11.4834 14.5918 11.0444 14.0228 11.0444 12.9598C11.0444 11.8488 11.3534 11.0398 12.0864 11.0398C12.6624 11.0398 13.0394 11.4718 13.0394 12.6448V12.9448H11.6003C11.6003 13.7258 11.8194 14.1378 12.2444 14.1378C12.4891 14.1309 12.7259 14.0496 12.9233 13.9048L13.0464 14.3158C12.8015 14.5008 12.5012 14.5977 12.1943 14.5908L12.1964 14.5918ZM11.6064 12.5008H12.4913C12.4913 11.9108 12.3914 11.4788 12.0864 11.4788C11.7554 11.4778 11.6344 11.8848 11.6044 12.4998L11.6064 12.5008ZM14.1234 12.8228V14.5438H13.5884V11.0848H14.1234V12.6848L14.9524 11.0848H15.4944L14.6374 12.7098L15.6174 14.5408H15.0344L14.1234 12.8228ZM15.6863 12.8158C15.6863 11.7328 16.1044 11.0398 16.9134 11.0398C17.1395 11.0316 17.3625 11.0942 17.5514 11.2188L17.4753 11.7258C17.3192 11.5823 17.1181 11.4975 16.9064 11.4858C16.5224 11.4858 16.2484 11.9178 16.2484 12.7858C16.2484 13.6538 16.4544 14.1428 16.8864 14.1428C17.1 14.1452 17.3072 14.0699 17.4694 13.9308L17.5923 14.3308C17.394 14.5057 17.1367 14.5989 16.8724 14.5918C16.1344 14.5908 15.6844 13.9938 15.6844 12.8148L15.6863 12.8158Z" fill="black"/>
<path d="M21.2246 14.5437H19.1246L19.0766 15.3596H18.8086V14.2596H18.9526C19.2444 13.8347 19.3932 13.3279 19.3776 12.8127C19.4466 12.0857 19.4666 11.0027 19.4876 9.63867H21.2016V14.2596H21.5376V15.3596H21.2706L21.2246 14.5437ZM20.8606 9.92267H19.7986C19.7776 11.1637 19.7436 12.1096 19.6886 12.8156C19.6951 13.3205 19.5722 13.8187 19.3316 14.2627H20.8606V9.92267Z" fill="black"/>
<path d="M22.9608 14.3307C23.0983 14.3279 23.2332 14.293 23.3547 14.2288C23.4763 14.1645 23.5811 14.0727 23.6608 13.9607L23.7609 14.2217C23.6658 14.3453 23.5431 14.4449 23.4026 14.5126C23.2621 14.5804 23.1078 14.6143 22.9518 14.6117C22.2188 14.6117 21.8828 13.9467 21.8828 12.8117C21.8828 11.6767 22.3078 11.0117 22.8898 11.0117C23.4718 11.0117 23.8709 11.6357 23.7609 12.8627H22.1978C22.2138 13.8167 22.4598 14.3307 22.9608 14.3307ZM22.2068 12.6167H23.4619C23.5159 11.6987 23.2418 11.2867 22.8918 11.2867C22.5418 11.2867 22.2328 11.7527 22.2068 12.6167Z" fill="black"/>
<path d="M25.876 12.8779H24.697V14.5439H24.375V11.0859H24.697V12.6149H25.876V11.0859H26.198V14.5419H25.876V12.8779Z" fill="black"/>
<path d="M26.957 11.0859H27.279V12.3689H27.533C27.6786 12.3527 27.8259 12.3694 27.9642 12.4176C28.1024 12.4659 28.2281 12.5445 28.332 12.6477C28.4359 12.7509 28.5154 12.8761 28.5645 13.0141C28.6137 13.1521 28.6313 13.2993 28.616 13.4449C28.6305 13.593 28.6119 13.7424 28.5617 13.8824C28.5115 14.0224 28.431 14.1496 28.3258 14.2547C28.2206 14.3599 28.0935 14.4405 27.9534 14.4907C27.8134 14.5408 27.664 14.5594 27.516 14.5449H26.96L26.957 11.0859ZM27.279 12.6219V14.2859H27.485C27.5971 14.2992 27.7108 14.2865 27.8172 14.2488C27.9236 14.2112 28.02 14.1496 28.0988 14.0688C28.1777 13.988 28.2369 13.8902 28.272 13.7829C28.307 13.6756 28.317 13.5617 28.301 13.4499C28.301 12.8669 28.013 12.6199 27.519 12.6199L27.279 12.6219Z" fill="black"/>
<path d="M29.4869 11.3559V14.5439H29.1719V11.0859H30.6319V11.3539L29.4869 11.3559Z" fill="black"/>
<path d="M32.741 12.1369C32.742 11.9789 32.7511 11.821 32.7681 11.6639H32.748C32.698 11.8172 32.6362 11.9663 32.563 12.1099L31.438 14.5439H31.1641V11.0859H31.4641V13.4859C31.4641 13.6709 31.45 13.8219 31.436 13.9729H31.457C31.5084 13.8157 31.5702 13.662 31.642 13.5129L32.7661 11.0859H33.0471V14.5419H32.7391L32.741 12.1369Z" fill="black"/>
</g>
<defs>
<clipPath id="clip0">
<rect width="35" height="25" fill="white" transform="translate(0.527344)"/>
</clipPath>
</defs>
</svg>
