<svg width="36" height="25" viewBox="0 0 36 25" fill="none" xmlns="http://www.w3.org/2000/svg">
<g clip-path="url(#clip0)">
<path d="M32.553 0.799988C33.0038 0.799988 33.4363 0.979101 33.7551 1.29791C34.0739 1.61672 34.253 2.04913 34.253 2.5V22.5C34.253 22.9509 34.0739 23.3832 33.7551 23.7021C33.4363 24.0209 33.0038 24.2 32.553 24.2H2.55298C2.10211 24.2 1.6697 24.0209 1.35089 23.7021C1.03208 23.3832 0.852966 22.9509 0.852966 22.5V2.5C0.852966 2.04913 1.03208 1.61672 1.35089 1.29791C1.6697 0.979101 2.10211 0.799988 2.55298 0.799988H32.553ZM32.553 0H2.55298C1.88994 0 1.25406 0.263367 0.785217 0.732208C0.316376 1.20105 0.0529785 1.83696 0.0529785 2.5V22.5C0.0529785 23.163 0.316376 23.7989 0.785217 24.2678C1.25406 24.7366 1.88994 25 2.55298 25H32.553C33.216 25 33.8519 24.7366 34.3207 24.2678C34.7896 23.7989 35.053 23.163 35.053 22.5V2.5C35.053 1.83696 34.7896 1.20105 34.3207 0.732208C33.8519 0.263367 33.216 0 32.553 0Z" fill="#F6F6F6"/>
<path d="M3.979 12.664L3.14197 14.543H2.53198L3.45099 12.534C3.20868 12.4077 3.01022 12.2111 2.88171 11.97C2.75321 11.7289 2.70065 11.4545 2.73096 11.183C2.70958 10.9851 2.73085 10.785 2.79333 10.596C2.85582 10.4071 2.95808 10.2337 3.0932 10.0876C3.22832 9.94147 3.39316 9.82603 3.57666 9.74899C3.76016 9.67195 3.95806 9.63512 4.15698 9.64099H4.94501V14.541H4.41699V12.662L3.979 12.664ZM4.41699 10.086H4.13599C3.71099 10.086 3.29999 10.367 3.29999 11.186C3.29999 11.975 3.67699 12.229 4.13599 12.229H4.41699V10.086Z" fill="#FF0000"/>
<path d="M7.48999 11.085V14.541H6.96198V12.991H6.16199V14.541H5.62799V11.085H6.16199V12.552H6.96198V11.085H7.48999ZM10.239 15.22H9.75897V14.541H8.27795V15.22H7.79797V14.102H8.01099C8.29323 13.2238 8.41153 12.3011 8.35999 11.38V11.08H9.95996V14.097H10.234L10.239 15.22ZM9.43896 11.52H8.83899V11.582C8.87367 12.4351 8.7648 13.288 8.51697 14.105H9.43597L9.43896 11.52ZM11.715 14.592C11.002 14.592 10.563 14.023 10.563 12.96C10.563 11.849 10.872 11.04 11.605 11.04C12.181 11.04 12.558 11.472 12.558 12.645V12.945H11.119C11.119 13.726 11.338 14.138 11.763 14.138C12.0077 14.1312 12.2446 14.0499 12.442 13.905L12.565 14.316C12.3201 14.5011 12.0198 14.598 11.713 14.591L11.715 14.592ZM11.125 12.501H12.0099C12.0099 11.911 11.91 11.479 11.605 11.479C11.274 11.478 11.153 11.885 11.123 12.5L11.125 12.501ZM13.642 12.823V14.544H13.107V11.085H13.642V12.685L14.471 11.085H15.013L14.156 12.71L15.136 14.541H14.553L13.642 12.823ZM15.205 12.816C15.205 11.733 15.623 11.04 16.432 11.04C16.6581 11.0319 16.8811 11.0945 17.07 11.219L16.994 11.726C16.8378 11.5826 16.6367 11.4977 16.425 11.486C16.041 11.486 15.767 11.918 15.767 12.786C15.767 13.654 15.973 14.143 16.405 14.143C16.6186 14.1454 16.8258 14.0701 16.988 13.931L17.111 14.331C16.9126 14.5059 16.6554 14.5992 16.391 14.592C15.653 14.591 15.203 13.994 15.203 12.815L15.205 12.816Z" fill="black"/>
<path d="M20.746 14.543H18.646L18.598 15.359H18.33V14.259H18.474C18.7657 13.834 18.9146 13.3272 18.899 12.812C18.968 12.085 18.988 11.002 19.009 9.638H20.723V14.259H21.059V15.359H20.792L20.746 14.543ZM20.382 9.922H19.32C19.299 11.163 19.265 12.109 19.21 12.815C19.2164 13.3199 19.0935 13.818 18.853 14.262H20.382V9.922Z" fill="black"/>
<path d="M22.481 14.33C22.6184 14.3272 22.7533 14.2923 22.8749 14.2281C22.9964 14.1638 23.1013 14.072 23.181 13.96L23.281 14.221C23.1859 14.3446 23.0632 14.4442 22.9227 14.5119C22.7823 14.5796 22.6279 14.6136 22.472 14.611C21.739 14.611 21.403 13.946 21.403 12.811C21.403 11.676 21.828 11.011 22.41 11.011C22.992 11.011 23.391 11.635 23.281 12.862H21.718C21.734 13.816 21.98 14.33 22.481 14.33ZM21.727 12.616H22.982C23.036 11.698 22.762 11.286 22.412 11.286C22.062 11.286 21.753 11.752 21.727 12.616Z" fill="black"/>
<path d="M25.395 12.877H24.216V14.543H23.894V11.085H24.216V12.614H25.395V11.085H25.717V14.541H25.395V12.877Z" fill="black"/>
<path d="M26.479 11.085H26.801V12.368H27.055C27.2005 12.3518 27.3479 12.3684 27.4861 12.4167C27.6244 12.4649 27.7501 12.5435 27.854 12.6467C27.9579 12.7499 28.0373 12.8752 28.0865 13.0131C28.1356 13.1511 28.1532 13.2983 28.138 13.444C28.1524 13.592 28.1339 13.7414 28.0837 13.8814C28.0335 14.0214 27.953 14.1486 27.8478 14.2538C27.7426 14.3589 27.6154 14.4395 27.4754 14.4897C27.3354 14.5399 27.186 14.5584 27.038 14.5439H26.482L26.479 11.085ZM26.801 12.6209V14.2849H27.007C27.1191 14.2982 27.2328 14.2855 27.3392 14.2478C27.4456 14.2102 27.5419 14.1486 27.6208 14.0678C27.6996 13.9871 27.7589 13.8892 27.7939 13.7819C27.829 13.6746 27.8389 13.5607 27.823 13.4489C27.823 12.8659 27.535 12.619 27.041 12.619L26.801 12.6209Z" fill="black"/>
<path d="M29.009 11.3549V14.543H28.694V11.085H30.154V11.353L29.009 11.3549Z" fill="black"/>
<path d="M32.2599 12.136C32.261 11.9779 32.27 11.8201 32.287 11.663H32.267C32.2169 11.8162 32.1551 11.9653 32.082 12.1089L30.957 14.543H30.683V11.085H30.983V13.485C30.983 13.67 30.969 13.821 30.955 13.972H30.976C31.0273 13.8147 31.0891 13.661 31.1609 13.512L32.285 11.085H32.566V14.541H32.258L32.2599 12.136Z" fill="black"/>
</g>
<defs>
<clipPath id="clip0">
<rect width="35" height="25" fill="white" transform="translate(0.0499878)"/>
</clipPath>
</defs>
</svg>
