<svg width="24" height="24" viewBox="0 0 24 24" fill="none" xmlns="http://www.w3.org/2000/svg">
<path d="M11.999 23.499C9.72454 23.499 7.50114 22.8246 5.60997 21.5609C3.71881 20.2973 2.24482 18.5012 1.37441 16.3999C0.504006 14.2985 0.276268 11.9863 0.719998 9.75549C1.16373 7.52471 2.259 5.4756 3.8673 3.8673C5.4756 2.259 7.52471 1.16373 9.75549 0.719998C11.9863 0.276268 14.2985 0.504006 16.3999 1.37441C18.5012 2.24482 20.2973 3.71881 21.5609 5.60997C22.8246 7.50114 23.499 9.72454 23.499 11.999C23.4956 15.048 22.2829 17.971 20.127 20.127C17.971 22.2829 15.048 23.4956 11.999 23.499ZM11.999 1.49903C9.92232 1.49903 7.89226 2.11484 6.16554 3.2686C4.43883 4.42235 3.09301 6.06223 2.29829 7.98085C1.50357 9.89948 1.29564 12.0107 1.70078 14.0475C2.10593 16.0843 3.10596 17.9552 4.57441 19.4237C6.04286 20.8921 7.91378 21.8921 9.95058 22.2973C11.9874 22.7024 14.0986 22.4945 16.0172 21.6998C17.9358 20.905 19.5757 19.5592 20.7295 17.8325C21.8832 16.1058 22.499 14.0757 22.499 11.999C22.4959 9.21523 21.3886 6.54636 19.4201 4.57792C17.4517 2.60947 14.7828 1.5022 11.999 1.49903Z" fill="#FF0000"/>
<path d="M12.625 17.521C12.4804 17.6677 12.2894 17.7595 12.0846 17.781C11.8797 17.8024 11.6738 17.7521 11.502 17.6385C11.3301 17.525 11.203 17.3553 11.1424 17.1585C11.0818 16.9617 11.0914 16.7499 11.1696 16.5594C11.2477 16.3688 11.3896 16.2114 11.571 16.1138C11.7524 16.0163 11.962 15.9848 12.1641 16.0246C12.3661 16.0645 12.5481 16.1733 12.6789 16.3324C12.8096 16.4915 12.8811 16.6911 12.881 16.897C12.883 17.013 12.8613 17.1281 12.8173 17.2354C12.7733 17.3427 12.7079 17.4399 12.625 17.521Z" fill="#FF0000"/>
<path d="M12.56 6.20901H11.441V14.561H12.56V6.20901Z" fill="#FF0000"/>
</svg>
