<svg width="40" height="25" viewBox="0 0 40 25" fill="none" xmlns="http://www.w3.org/2000/svg">
<g clip-path="url(#clip0)">
<path d="M36.0287 2.64083e-09H3.57172C3.45872 2.64083e-09 3.34676 -2.56319e-05 3.23376 0.00497437C2.98784 0.00779232 2.74246 0.0292124 2.49976 0.0690002C2.25642 0.110971 2.02055 0.188445 1.79974 0.298981C1.57851 0.410931 1.37611 0.556687 1.19977 0.730988C1.02499 0.906694 0.87945 1.10927 0.768738 1.33099C0.657293 1.55143 0.579773 1.7874 0.538757 2.03098C0.498125 2.27359 0.476391 2.519 0.473755 2.76498C0.473755 2.87798 0.47375 2.98999 0.46875 3.10199C0.46875 3.23599 0.46875 3.36898 0.46875 3.50198V21.508C0.46875 21.641 0.46875 21.775 0.46875 21.908C0.46875 22.021 0.468755 22.133 0.473755 22.246C0.476438 22.4916 0.498173 22.7367 0.538757 22.979C0.579713 23.2226 0.657237 23.4586 0.768738 23.679C0.993387 24.1211 1.35267 24.4803 1.79474 24.705C2.01532 24.8163 2.25125 24.8941 2.49475 24.936C2.73746 24.9758 2.98283 24.9972 3.22876 25C3.34176 25 3.45377 25 3.56677 25.005H36.4238C36.5368 25.005 36.6487 25.005 36.7617 25C37.0076 24.9972 37.253 24.9758 37.4957 24.936C37.7392 24.8941 37.9752 24.8163 38.1957 24.705C38.4176 24.594 38.6202 24.4482 38.7958 24.273C38.9701 24.0989 39.1158 23.8985 39.2277 23.679C39.3388 23.4585 39.4161 23.2225 39.4567 22.979C39.4968 22.7366 39.5185 22.4916 39.5217 22.246C39.5217 22.133 39.5217 22.021 39.5217 21.908C39.5217 21.775 39.5217 21.641 39.5217 21.508V3.49698C39.5217 3.36298 39.5217 3.22998 39.5217 3.09698C39.5217 2.98498 39.5217 2.87298 39.5217 2.75998C39.5185 2.51403 39.4968 2.26866 39.4567 2.02597C39.416 1.78246 39.3388 1.54649 39.2277 1.32599C39.0027 0.883597 38.6431 0.524003 38.2007 0.298981C37.9799 0.188445 37.7441 0.110971 37.5007 0.0690002C37.258 0.0292124 37.0127 0.00779232 36.7667 0.00497437C36.6537 0.00497437 36.5418 2.64083e-09 36.4288 2.64083e-09H36.0287Z" fill="black"/>
<path d="M36.0294 0.832031H36.4234C36.5304 0.832031 36.6374 0.832036 36.7444 0.837036C36.9487 0.839317 37.1526 0.856356 37.3544 0.888031C37.5171 0.915627 37.6748 0.967203 37.8224 1.04105C37.9633 1.1134 38.0922 1.20717 38.2044 1.31903C38.3174 1.43161 38.4116 1.56161 38.4834 1.70404C38.5578 1.85096 38.6091 2.00849 38.6354 2.17105C38.668 2.37246 38.6854 2.57601 38.6874 2.78003C38.6874 2.88603 38.6874 2.99204 38.6924 3.10104C38.6924 3.23204 38.6924 3.36403 38.6924 3.49503V21.501C38.6924 21.632 38.6924 21.763 38.6924 21.901C38.6924 22.007 38.6924 22.113 38.6874 22.219C38.6853 22.4237 38.668 22.628 38.6354 22.83C38.609 22.9923 38.5577 23.1494 38.4834 23.2961C38.3383 23.5815 38.1061 23.8134 37.8204 23.958C37.6741 24.0321 37.5173 24.0834 37.3554 24.11C37.1546 24.1417 36.9517 24.1591 36.7484 24.162C36.6404 24.162 36.5334 24.162 36.4234 24.162H3.57843C3.47043 24.162 3.3634 24.162 3.2594 24.162C3.05509 24.1593 2.85125 24.1419 2.64941 24.11C2.48652 24.0832 2.32868 24.0316 2.1814 23.957C1.89665 23.8122 1.66526 23.5808 1.52045 23.2961C1.44666 23.1482 1.39539 22.9901 1.36841 22.827C1.3359 22.6259 1.31851 22.4227 1.31641 22.219C1.31641 22.112 1.31641 22.006 1.31641 21.9V3.10004C1.31641 2.99304 1.31641 2.88603 1.31641 2.78003C1.31859 2.57569 1.33597 2.37181 1.36841 2.17004C1.39558 2.00724 1.44718 1.84944 1.52142 1.70203C1.66618 1.41724 1.89765 1.1858 2.18243 1.04105C2.32967 0.967214 2.48703 0.915637 2.64941 0.888031C2.85125 0.85636 3.0551 0.839321 3.2594 0.837036C3.3664 0.837036 3.47341 0.837031 3.57941 0.832031H36.0314" fill="white"/>
<path d="M11.137 8.40845C11.3104 8.3973 11.4765 8.3349 11.6144 8.22916C11.7523 8.12342 11.8557 7.97912 11.9114 7.81455C11.9671 7.64998 11.9727 7.47256 11.9274 7.30481C11.8822 7.13706 11.7881 6.98652 11.6572 6.87232C11.5262 6.75811 11.3643 6.68537 11.192 6.66333C11.0196 6.64129 10.8446 6.67096 10.6891 6.74854C10.5336 6.82612 10.4048 6.9481 10.3187 7.09906C10.2327 7.25003 10.1935 7.42314 10.206 7.59644C10.0253 7.79859 9.88679 8.03478 9.79853 8.29114C9.71027 8.54751 9.67402 8.81891 9.69197 9.08945C9.96899 9.09481 10.2435 9.03615 10.4942 8.91803C10.7448 8.79991 10.9648 8.62552 11.137 8.40845Z" fill="black"/>
<path d="M11.6312 9.1966C10.8312 9.1486 10.1552 9.6496 9.77424 9.6496C9.39324 9.6496 8.80927 9.2206 8.17427 9.2316C7.7639 9.24216 7.36342 9.35984 7.01259 9.57297C6.66175 9.78611 6.37276 10.0873 6.17427 10.4466C5.31727 11.9246 5.94824 14.1166 6.78224 15.3206C7.18724 15.9206 7.67525 16.5716 8.31825 16.5476C8.92525 16.5236 9.16323 16.1546 9.90223 16.1546C10.6412 16.1546 10.8543 16.5476 11.5023 16.5356C12.1693 16.5236 12.5862 15.9356 12.9912 15.3446C13.2779 14.9223 13.5022 14.4609 13.6572 13.9746C13.2736 13.8075 12.9466 13.5328 12.7158 13.1837C12.4851 12.8346 12.3606 12.4261 12.3573 12.0076C12.3626 11.6366 12.4613 11.2729 12.6443 10.95C12.8273 10.6272 13.0886 10.3557 13.4042 10.1606C13.2025 9.87443 12.9375 9.63859 12.6298 9.47141C12.3222 9.30423 11.9801 9.21021 11.6303 9.1966" fill="black"/>
<path d="M18.5766 7.53699C18.9678 7.51663 19.3589 7.5786 19.7247 7.71887C20.0904 7.85914 20.4227 8.07457 20.7 8.35129C20.9772 8.628 21.1933 8.95981 21.3344 9.32528C21.4754 9.69075 21.5382 10.0817 21.5186 10.473C21.5348 10.8677 21.4683 11.2614 21.3234 11.629C21.1786 11.9965 20.9585 12.3297 20.6774 12.6072C20.3963 12.8848 20.0603 13.1005 19.691 13.2407C19.3216 13.3808 18.9271 13.4422 18.5326 13.421H16.6126V16.475H15.2266V7.53699H18.5766ZM16.6126 12.257H18.2046C18.447 12.2726 18.69 12.2384 18.9186 12.1565C19.1473 12.0746 19.3567 11.9468 19.5341 11.7808C19.7114 11.6148 19.8528 11.4143 19.9496 11.1915C20.0465 10.9688 20.0966 10.7286 20.097 10.4857C20.0975 10.2428 20.0481 10.0024 19.952 9.77936C19.8559 9.55629 19.7152 9.35526 19.5385 9.18869C19.3617 9.02212 19.1526 8.89353 18.9243 8.81085C18.6959 8.72817 18.453 8.69316 18.2106 8.70798H16.6106L16.6126 12.257Z" fill="black"/>
<path d="M21.8828 14.6237C21.8828 13.4837 22.7568 12.7848 24.3048 12.6978L26.0888 12.5927V12.0927C26.0888 11.3677 25.5998 10.9348 24.7818 10.9348C24.4753 10.8952 24.165 10.9707 23.9109 11.1468C23.6569 11.3228 23.4773 11.5868 23.4068 11.8878H22.1428C22.2178 10.7108 23.2208 9.84375 24.8318 9.84375C26.4108 9.84375 27.4208 10.6808 27.4208 11.9868V16.4778H26.1378V15.4068H26.1078C25.9022 15.7701 25.6029 16.0715 25.2411 16.2796C24.8793 16.4877 24.4682 16.5948 24.0508 16.5898C23.7765 16.6165 23.4996 16.5856 23.2379 16.499C22.9762 16.4124 22.7356 16.272 22.5314 16.0869C22.3273 15.9017 22.1641 15.6759 22.0524 15.4239C21.9407 15.1719 21.8829 14.8994 21.8828 14.6237ZM26.0888 14.0358V13.5218L24.4888 13.6218C23.6888 13.6778 23.2378 14.0308 23.2378 14.5878C23.2378 15.1448 23.7078 15.5287 24.4268 15.5287C24.6345 15.5423 24.8428 15.5141 25.0395 15.446C25.2362 15.3779 25.4172 15.2711 25.572 15.132C25.7269 14.993 25.8524 14.8243 25.9411 14.6361C26.0298 14.4478 26.0801 14.2437 26.0888 14.0358Z" fill="black"/>
<path d="M28.6284 18.8729V17.7869C28.772 17.8081 28.9173 17.8165 29.0624 17.812C29.3373 17.8333 29.61 17.7491 29.8251 17.5765C30.0402 17.4039 30.1815 17.1559 30.2203 16.8829C30.2203 16.8709 30.3384 16.4829 30.3384 16.4829L27.9844 9.96094H29.4333L31.0814 15.2609H31.1064L32.7534 9.96094H34.1664L31.7253 16.8179C31.1683 18.3969 30.5253 18.9049 29.1733 18.9049C28.9912 18.9041 28.8093 18.8934 28.6284 18.8729Z" fill="black"/>
</g>
<defs>
<clipPath id="clip0">
<rect width="39.051" height="25" fill="white" transform="translate(0.476562)"/>
</clipPath>
</defs>
</svg>
