<svg width="84" height="84" viewBox="0 0 84 84" fill="none" xmlns="http://www.w3.org/2000/svg">
<g filter="url(#filter0_b)">
<path d="M42 84C65.196 84 84 65.196 84 42C84 18.804 65.196 0 42 0C18.804 0 0 18.804 0 42C0 65.196 18.804 84 42 84Z" fill="white" fill-opacity="0.5"/>
</g>
<path fill-rule="evenodd" clip-rule="evenodd" d="M33.5286 25.9351H50.4738C52.4849 25.9411 54.4119 26.7426 55.834 28.1647C57.256 29.5867 58.0576 31.5138 58.0636 33.5248L58.0636 33.5301L58.0636 39.2351H54.5636V33.5327C54.5597 32.4472 54.1267 31.4072 53.3591 30.6396C52.5914 29.8719 51.5514 29.4389 50.4658 29.4351H33.5314C32.4458 29.4389 31.4058 29.8719 30.6381 30.6396C29.8704 31.4072 29.4375 32.4473 29.4336 33.5329V38.5001H25.9336V33.5248C25.9396 31.5138 26.7412 29.5867 28.1632 28.1647C29.5853 26.7426 31.5123 25.9411 33.5234 25.9351L33.5286 25.9351Z" fill="#5EA9FF"/>
<path fill-rule="evenodd" clip-rule="evenodd" d="M29.4336 50.467V44.5898H25.9336V50.4698L25.9336 50.4751C25.9396 52.4862 26.7412 54.4132 28.1632 55.8352C29.5853 57.2573 31.5123 58.0588 33.5234 58.0648L50.4686 58.0648L50.4738 58.0648C52.4849 58.0588 54.4119 57.2573 55.834 55.8352C57.256 54.4132 58.0576 52.4862 58.0636 50.4751L58.0636 50.4698V45.4998H54.5636V50.4672C54.5597 51.5527 54.1267 52.5927 53.3591 53.3603C52.5914 54.128 51.5513 54.561 50.4657 54.5648H33.5315C32.4459 54.561 31.4058 54.128 30.6381 53.3603C29.8704 52.5927 29.4375 51.5526 29.4336 50.467Z" fill="#5EA9FF"/>
<path fill-rule="evenodd" clip-rule="evenodd" d="M27.6837 42.1152L33.5236 47.9552L31.0488 50.43L27.6837 47.065L24.3186 50.43L21.8438 47.9552L27.6837 42.1152Z" fill="#5EA9FF"/>
<path fill-rule="evenodd" clip-rule="evenodd" d="M56.3165 36.7601L52.9514 33.395L50.4766 35.8699L56.3165 41.7098L62.1564 35.8699L59.6816 33.395L56.3165 36.7601Z" fill="#5EA9FF"/>
<defs>
<filter id="filter0_b" x="-5" y="-5" width="94" height="94" filterUnits="userSpaceOnUse" color-interpolation-filters="sRGB">
<feFlood flood-opacity="0" result="BackgroundImageFix"/>
<feGaussianBlur in="BackgroundImage" stdDeviation="2.5"/>
<feComposite in2="SourceAlpha" operator="in" result="effect1_backgroundBlur"/>
<feBlend mode="normal" in="SourceGraphic" in2="effect1_backgroundBlur" result="shape"/>
</filter>
</defs>
</svg>
