<svg width="48" height="48" viewBox="0 0 48 48" fill="none" xmlns="http://www.w3.org/2000/svg">
<path d="M24 48C37.2548 48 48 37.2548 48 24C48 10.7452 37.2548 0 24 0C10.7452 0 0 10.7452 0 24C0 37.2548 10.7452 48 24 48Z" fill="#F6F6F6"/>
<path d="M31.334 20.6553C30.997 18.9548 30.0813 17.4236 28.7428 16.3221C27.4043 15.2206 25.7255 14.6167 23.992 14.6133C23.5021 14.6137 23.0135 14.6616 22.533 14.7563C21.4292 14.9746 20.3887 15.4386 19.4885 16.1137C18.5884 16.7888 17.8517 17.6578 17.333 18.6563C15.8152 18.8321 14.4216 19.5804 13.4366 20.7484C12.4516 21.9165 11.9494 23.4163 12.0323 24.942C12.1152 26.4677 12.7771 27.9043 13.8829 28.9587C14.9886 30.0131 16.4551 30.606 17.983 30.6163H18.124V28.6163H17.999C16.9794 28.6107 16.0005 28.2161 15.2622 27.5129C14.5239 26.8098 14.0819 25.8513 14.0267 24.8332C13.9714 23.8152 14.3069 22.8144 14.9648 22.0355C15.6226 21.2566 16.553 20.7582 17.566 20.6423L18.622 20.5203L19.111 19.5773C19.4893 18.8441 20.0287 18.206 20.6887 17.7109C21.3487 17.2158 22.1122 16.8764 22.922 16.7183C23.6297 16.5777 24.3581 16.5782 25.0657 16.7196C25.7732 16.861 26.4459 17.1406 27.0452 17.5423C27.6445 17.9441 28.1587 18.4601 28.5583 19.0608C28.9579 19.6616 29.2351 20.3353 29.374 21.0433L29.674 22.5433L31.201 22.6503C31.9713 22.7068 32.6898 23.0595 33.2055 23.6345C33.7212 24.2095 33.9941 24.962 33.9668 25.7339C33.9395 26.5058 33.6141 27.2371 33.059 27.7742C32.504 28.3113 31.7623 28.6124 30.99 28.6143H29.873V30.6143H30.988C32.2804 30.6144 33.5224 30.1126 34.452 29.2147C35.3817 28.3168 35.9264 27.0931 35.9712 25.8014C36.0161 24.5097 35.5577 23.2511 34.6926 22.2909C33.8275 21.3307 32.6233 20.7439 31.334 20.6543V20.6553Z" fill="#888888"/>
<path d="M27.7746 30.6138V28.6138H25.0006V25.8398H23.0006V28.6138H20.2266V30.6138H23.0006V33.3878H25.0006V30.6138H27.7746Z" fill="#888888"/>
</svg>
