<svg width="83" height="58" viewBox="0 0 83 58" fill="none" xmlns="http://www.w3.org/2000/svg">
<g clip-path="url(#clip0)">
<path d="M68.8539 22.6081C68.5699 22.6081 68.2811 22.6081 67.9947 22.6346C67.3882 15.4564 61.2896 9.8508 54.0551 9.8508C52.1328 9.85332 50.2312 10.2489 48.4667 11.0134C47.1813 7.76125 44.9494 4.97184 42.0613 3.00772C39.1732 1.04361 35.7623 -0.00436461 32.272 1.36629e-05C22.6765 1.36629e-05 14.8691 7.79091 14.8691 17.3667C14.8691 17.6321 14.8691 17.9022 14.8908 18.1748C10.9687 18.7195 7.37443 20.6641 4.76812 23.6515C2.16181 26.6389 0.718477 30.4685 0.703226 34.4368C0.691691 37.7155 1.66627 40.9217 3.49986 43.637C5.33345 46.3524 7.94094 48.451 10.9823 49.6592C12.6092 50.3249 15.4972 50.7036 15.7427 50.1416C15.8414 49.9173 15.5959 49.6833 14.9509 49.3866C13.2742 48.6275 11.6641 47.7287 10.1375 46.6996C7.06656 44.5288 5.44684 42.2928 4.63097 40.8046C3.6203 38.8355 3.09853 36.6511 3.10993 34.4368C3.12013 30.867 4.48502 27.4349 6.92765 24.8368C9.37027 22.2387 12.7077 20.6692 16.2626 20.4469C16.4256 20.4365 16.5849 20.393 16.7306 20.319C16.8764 20.2449 17.0055 20.1419 17.1102 20.0162C17.2149 19.8905 17.293 19.7447 17.3397 19.5878C17.3864 19.4309 17.4007 19.266 17.3817 19.1034C17.3133 18.527 17.2779 17.9472 17.2758 17.3667C17.2758 9.12236 24.0146 2.41206 32.272 2.41206C35.4832 2.42224 38.6072 3.45946 41.1894 5.3727C43.7715 7.28593 45.6768 9.97528 46.628 13.0492C46.6804 13.2219 46.7709 13.3807 46.8927 13.5137C47.0145 13.6467 47.1646 13.7506 47.3318 13.8178C47.4991 13.8849 47.6792 13.9135 47.859 13.9016C48.0387 13.8896 48.2135 13.8374 48.3704 13.7487C50.1295 12.7595 52.1157 12.2474 54.1326 12.263C56.1496 12.2786 58.1277 12.8213 59.8713 13.8375C61.6149 14.8538 63.0639 16.3084 64.0749 18.0576C65.0859 19.8069 65.624 21.7902 65.6361 23.8117V23.954C65.6341 24.1293 65.6701 24.3029 65.7418 24.4628C65.8135 24.6227 65.9192 24.765 66.0514 24.8798C66.1836 24.9947 66.3391 25.0792 66.5072 25.1276C66.6754 25.176 66.852 25.187 67.0248 25.16C67.6308 25.0657 68.2431 25.0182 68.8563 25.0177C71.963 25.0107 74.9454 26.2398 77.1485 28.4351C79.3515 30.6303 80.595 33.6123 80.6059 36.7258C80.6059 40.5489 78.4928 44.4805 75.4339 46.4246C73.9898 47.3677 73.9633 47.5462 70.2763 49.3794C69.8623 49.5844 69.4051 49.8618 69.5374 50.1488C69.6265 50.3466 70.0404 50.4334 70.6156 50.4334C71.9596 50.3951 73.2878 50.1326 74.5458 49.6568C77.5201 48.3624 79.9573 46.0787 81.4456 43.1915C82.934 40.3043 83.3821 36.9906 82.7144 33.8105C82.0466 30.6304 80.3038 27.7789 77.7806 25.7378C75.2574 23.6967 72.1085 22.5912 68.866 22.6081H68.8539Z" fill="#231F20"/>
<path d="M17.7451 54.753V56.6127H16.7969V52.3555H17.7451V54.0101H18.2722L19.4755 52.3555H20.5586L18.9533 54.4202L20.6789 56.6127H19.5959L18.1879 54.753H17.7451Z" fill="#231F20"/>
<path d="M22.8634 56.7172C21.8285 56.7172 20.7695 56.0274 20.7695 54.4933C20.7695 52.9593 21.8285 52.2598 22.8634 52.2598C23.8982 52.2598 24.9572 52.9568 24.9572 54.4933C24.9572 56.0298 23.8982 56.7172 22.8634 56.7172ZM23.9849 54.4933C23.9849 53.5116 23.4554 53.0292 22.8634 53.0292C22.2713 53.0292 21.7418 53.5116 21.7418 54.4933C21.7418 55.475 22.2713 55.9405 22.8634 55.9405C23.4554 55.9405 23.9849 55.4774 23.9849 54.4933Z" fill="#231F20"/>
<path d="M28.6227 54.8013H26.7262V56.6127H25.7852V52.3555H26.7262V54.056H28.6227V52.3555H29.5613V56.6127H28.6227V54.8013Z" fill="#231F20"/>
<path d="M34.1558 57.619V56.6132H31.0512V57.619H30.1992V55.8775H30.4399C30.9212 55.8775 31.1619 55.26 31.2293 53.7067L31.2919 52.3535H34.3893V55.8751H35.0223V57.6166L34.1558 57.619ZM32.1101 53.0988L32.0716 53.8224C32.0067 54.9465 31.8502 55.5543 31.5181 55.8799H33.4435V53.0988H32.1101Z" fill="#231F20"/>
<path d="M38.6814 56.6127V53.6604L36.6598 56.6127H35.7188V52.3555H36.6598V55.3223L38.6814 52.3555H39.6224V56.6127H38.6814Z" fill="#231F20"/>
<path d="M44.9299 57.6185H44.0755V56.6127H40.6797V52.3555H41.6159V55.8698H43.3535V52.3555H44.2946V55.8698H44.9275L44.9299 57.6185Z" fill="#231F20"/>
<path d="M48.5955 56.6127V53.6604L46.5738 56.6127H45.6328V52.3555H46.5738V55.3223L48.5955 52.3555H49.5365V56.6127H48.5955Z" fill="#231F20"/>
<path d="M52.3712 56.7172C51.3363 56.7172 50.2773 56.0274 50.2773 54.4933C50.2773 52.9593 51.3363 52.2598 52.3712 52.2598C53.4061 52.2598 54.465 52.9568 54.465 54.4933C54.465 56.0298 53.4085 56.7172 52.3712 56.7172ZM53.4927 54.4933C53.4927 53.5116 52.9632 53.0292 52.3712 53.0292C51.7791 53.0292 51.2497 53.5116 51.2497 54.4933C51.2497 55.475 51.7791 55.9405 52.3712 55.9405C52.9632 55.9405 53.4927 55.4774 53.4927 54.4933Z" fill="#231F20"/>
<path d="M58.1163 54.8013H56.2223V56.6127H55.2812V52.3555H56.2223V54.056H58.1163V52.3555H59.0574V56.6127H58.1163V54.8013Z" fill="#231F20"/>
<path d="M61.9794 55.9333C62.4607 55.9333 62.8554 55.7355 63.0215 55.3399H63.9456C63.8234 55.7515 63.5676 56.1104 63.2189 56.3599C62.8701 56.6093 62.4484 56.7351 62.0203 56.7172C60.6533 56.7172 59.8711 55.6728 59.8711 54.4523C59.8711 53.1715 60.7495 52.2598 61.9577 52.2598C63.2597 52.2598 64.0732 53.3211 63.9962 54.7538H60.8266C60.8891 55.545 61.4427 55.9333 61.9794 55.9333ZM63.0383 54.0664C63.038 53.9246 63.0097 53.7843 62.955 53.6536C62.9002 53.5228 62.8202 53.4042 62.7195 53.3047C62.6188 53.2051 62.4995 53.1265 62.3683 53.0734C62.2371 53.0204 62.0967 52.9938 61.9553 52.9954C61.6643 52.9889 61.3825 53.0978 61.1712 53.2983C60.9598 53.4988 60.836 53.7748 60.8266 54.0664H63.0383Z" fill="#231F20"/>
<path d="M65.716 52.9252C65.8484 52.7111 66.0357 52.5364 66.2583 52.4194C66.481 52.3023 66.7308 52.2471 66.9819 52.2595C68.0168 52.2595 68.8062 53.123 68.8062 54.4834C68.8062 55.8438 68.0168 56.717 66.9819 56.717C66.7308 56.7294 66.481 56.6742 66.2583 56.5571C66.0357 56.4401 65.8484 56.2654 65.716 56.0513V58.0002H64.7773V52.356H65.716V52.9252ZM67.8266 54.4834C67.8266 53.591 67.4319 53.0362 66.7749 53.0362C66.1588 53.0362 65.6774 53.5186 65.6774 54.4834C65.6774 55.4482 66.1588 55.95 66.7749 55.95C67.4319 55.9596 67.8266 55.3879 67.8266 54.4834Z" fill="#231F20"/>
<path d="M18.0459 41.0391C19.6705 41.0391 21.0543 42.1124 21.0543 44.2495C21.0543 46.3866 19.6705 47.4503 18.0459 47.4503C16.4214 47.4503 15.0352 46.3866 15.0352 44.2495C15.0352 42.1124 16.419 41.0391 18.0459 41.0391ZM18.0459 45.7667C18.5634 45.7667 18.9605 45.3807 18.9605 44.2495C18.9605 43.1182 18.5634 42.7227 18.0459 42.7227C17.5285 42.7227 17.1314 43.1182 17.1314 44.2495C17.1314 45.3807 17.5261 45.7667 18.0459 45.7667Z" fill="#231F20"/>
<path d="M21.5547 43.6049V43.4168C21.6149 41.1905 22.2767 39.3356 24.9241 39.0751L26.7026 38.9062V40.7635L24.5173 41.0047C23.7135 41.106 23.0733 41.4124 23.0011 42.5557C23.3477 41.8634 24.1106 41.6391 24.7917 41.6391C26.1226 41.6391 27.3212 42.6039 27.3212 44.454C27.3212 46.4463 25.817 47.4401 24.385 47.4401C22.8471 47.4497 21.5547 46.3112 21.5547 43.6049ZM25.2538 44.4636C25.2538 43.4578 24.8254 43.1635 24.3681 43.1635C23.9109 43.1635 23.5571 43.4698 23.5571 44.4636C23.5571 45.3585 23.9614 45.7661 24.3898 45.7661C24.8182 45.7661 25.2538 45.4139 25.2538 44.4636Z" fill="#231F20"/>
<path d="M27.6602 45.6521H27.8431C28.2185 45.6521 28.5843 45.2662 28.6758 43.2545L28.7793 41.2188H33.6769V47.3019H31.6457V42.8686H30.6493L30.5578 44.2941C30.4447 46.0139 29.8045 47.3019 28.0452 47.3019H27.6602V45.6521Z" fill="#231F20"/>
<path d="M37.4075 42.4733C37.2952 42.4617 37.1817 42.4729 37.0739 42.5062C36.966 42.5396 36.866 42.5943 36.7797 42.6673C36.6935 42.7402 36.6228 42.8298 36.5718 42.9308C36.5209 43.0317 36.4908 43.1419 36.4833 43.2548H34.7336C34.8251 42.0994 35.742 41.002 37.5495 41.002C39.1162 41.002 40.2329 41.658 40.2137 43.6938V44.8588C40.2005 45.6745 40.2342 46.4904 40.3148 47.3022H38.4231V46.5111C38.0164 47.1792 37.3377 47.4493 36.5651 47.4493C35.4965 47.4493 34.6133 46.7137 34.6133 45.6283C34.6133 44.2148 35.9225 43.6166 38.2233 43.4574V43.2886C38.2209 42.6084 37.8455 42.4733 37.4075 42.4733ZM36.6445 45.3678C36.6445 45.6283 36.8395 45.9225 37.316 45.9225C37.8455 45.9225 38.2931 45.6813 38.2931 44.7454V44.5645C37.2149 44.6441 36.6445 44.8492 36.6445 45.3798V45.3678Z" fill="#231F20"/>
<path d="M44.5073 45.2999C44.061 45.4063 43.6038 45.4597 43.1451 45.4591C41.9249 45.4591 41.1836 44.8248 41.1836 43.4692V41.2188H43.2173V43.117C43.2173 43.8069 43.4291 43.9202 44.0091 43.9202C44.1775 43.9218 44.3453 43.8991 44.5073 43.8527V41.2188H46.5409V47.3019H44.5073V45.2999Z" fill="#231F20"/>
<path d="M47.7461 41.2188H49.7798V43.3679H51.3754V41.2188H53.4115V47.3019H51.3778V45.0177H49.7822V47.3019H47.7485L47.7461 41.2188Z" fill="#231F20"/>
<path d="M54.6289 41.2188H56.6602V42.994H57.3822C59.0885 42.994 59.8105 43.6501 59.8105 45.119C59.8105 46.7592 59.1704 47.3019 57.5049 47.3019H54.6289V41.2188ZM57.322 45.7751C57.7384 45.7751 58.0031 45.64 58.0031 45.119C58.0031 44.6559 57.7384 44.5208 57.3316 44.5208H56.6602V45.7751H57.322ZM60.494 41.2188H62.5253V47.3019H60.494V41.2188Z" fill="#231F20"/>
<path d="M63.7461 41.2189H65.6257V44.5957L67.5078 41.2189H69.3874V47.3021H67.5078V43.9879L65.6257 47.3021H63.7461V41.2189ZM64.6005 39.1035H65.8038C65.8544 39.3737 66.1095 39.5112 66.5668 39.5112C67.024 39.5112 67.2888 39.3737 67.3297 39.1035H68.533C68.4512 39.9405 67.811 40.517 66.5619 40.517C65.3129 40.517 64.6606 39.9405 64.6005 39.1035Z" fill="#231F20"/>
</g>
<defs>
<clipPath id="clip0">
<rect width="82.2973" height="58" fill="white" transform="translate(0.703125)"/>
</clipPath>
</defs>
</svg>
