<svg width="48" height="48" viewBox="0 0 48 48" fill="none" xmlns="http://www.w3.org/2000/svg">
<path d="M24 48C37.2548 48 48 37.2548 48 24C48 10.7452 37.2548 0 24 0C10.7452 0 0 10.7452 0 24C0 37.2548 10.7452 48 24 48Z" fill="#E8F8FE"/>
<path d="M24 13.5V24" stroke="#00ADEF" stroke-width="1.5" stroke-linecap="round" stroke-linejoin="round"/>
<path d="M24 17.3399L26.19 15.1499" stroke="#00ADEF" stroke-width="1.5" stroke-linecap="round" stroke-linejoin="round"/>
<path d="M23.9986 17.3399L21.8086 15.1499" stroke="#00ADEF" stroke-width="1.5" stroke-linecap="round" stroke-linejoin="round"/>
<path d="M14.9102 18.75L24.0002 24" stroke="#00ADEF" stroke-width="1.5" stroke-linecap="round" stroke-linejoin="round"/>
<path d="M18.2297 20.6702L17.4297 17.6802" stroke="#00ADEF" stroke-width="1.5" stroke-linecap="round" stroke-linejoin="round"/>
<path d="M18.2283 20.6699L15.2383 21.4699" stroke="#00ADEF" stroke-width="1.5" stroke-linecap="round" stroke-linejoin="round"/>
<path d="M14.9102 29.25L24.0002 24" stroke="#00ADEF" stroke-width="1.5" stroke-linecap="round" stroke-linejoin="round"/>
<path d="M18.2283 27.3298L15.2383 26.5298" stroke="#00ADEF" stroke-width="1.5" stroke-linecap="round" stroke-linejoin="round"/>
<path d="M18.2297 27.3301L17.4297 30.3201" stroke="#00ADEF" stroke-width="1.5" stroke-linecap="round" stroke-linejoin="round"/>
<path d="M24 34.5V24" stroke="#00ADEF" stroke-width="1.5" stroke-linecap="round" stroke-linejoin="round"/>
<path d="M23.9986 30.6602L21.8086 32.8502" stroke="#00ADEF" stroke-width="1.5" stroke-linecap="round" stroke-linejoin="round"/>
<path d="M24 30.6602L26.19 32.8502" stroke="#00ADEF" stroke-width="1.5" stroke-linecap="round" stroke-linejoin="round"/>
<path d="M33.09 29.25L24 24" stroke="#00ADEF" stroke-width="1.5" stroke-linecap="round" stroke-linejoin="round"/>
<path d="M29.7695 27.3301L30.5695 30.3201" stroke="#00ADEF" stroke-width="1.5" stroke-linecap="round" stroke-linejoin="round"/>
<path d="M29.7695 27.3298L32.7595 26.5298" stroke="#00ADEF" stroke-width="1.5" stroke-linecap="round" stroke-linejoin="round"/>
<path d="M33.09 18.75L24 24" stroke="#00ADEF" stroke-width="1.5" stroke-linecap="round" stroke-linejoin="round"/>
<path d="M29.7695 20.6699L32.7595 21.4699" stroke="#00ADEF" stroke-width="1.5" stroke-linecap="round" stroke-linejoin="round"/>
<path d="M29.7695 20.6702L30.5695 17.6802" stroke="#00ADEF" stroke-width="1.5" stroke-linecap="round" stroke-linejoin="round"/>
</svg>
