<svg width="24" height="24" viewBox="0 0 24 24" fill="none" xmlns="http://www.w3.org/2000/svg">
<path d="M12 23.5C9.72552 23.5 7.50211 22.8255 5.61095 21.5619C3.71978 20.2983 2.2458 18.5022 1.37539 16.4009C0.504983 14.2995 0.277244 11.9872 0.720974 9.75647C1.1647 7.52568 2.25997 5.47658 3.86828 3.86828C5.47658 2.25997 7.52568 1.1647 9.75647 0.720974C11.9872 0.277244 14.2995 0.504983 16.4009 1.37539C18.5022 2.2458 20.2983 3.71978 21.5619 5.61095C22.8255 7.50211 23.5 9.72552 23.5 12C23.4966 15.0489 22.2839 17.972 20.1279 20.1279C17.972 22.2839 15.0489 23.4966 12 23.5ZM12 1.50001C9.9233 1.50001 7.89323 2.11582 6.16652 3.26957C4.4398 4.42333 3.09399 6.0632 2.29927 7.98183C1.50455 9.90045 1.29661 12.0117 1.70176 14.0485C2.1069 16.0853 3.10693 17.9562 4.57538 19.4246C6.04384 20.8931 7.91476 21.8931 9.95156 22.2983C11.9884 22.7034 14.0996 22.4955 16.0182 21.7007C17.9368 20.906 19.5767 19.5602 20.7304 17.8335C21.8842 16.1068 22.5 14.0767 22.5 12C22.4968 9.21621 21.3896 6.54734 19.4211 4.57889C17.4527 2.61045 14.7838 1.50318 12 1.50001Z" fill="#888888"/>
<path d="M11.186 14.5762C11.1797 14.0805 11.2889 13.5902 11.505 13.1442C11.6993 12.738 11.9587 12.3665 12.273 12.0442C12.573 11.7442 12.873 11.4582 13.173 11.1812C13.4678 10.9088 13.7263 10.5996 13.942 10.2612C14.15 9.93933 14.2608 9.56435 14.261 9.18116C14.2785 8.91388 14.23 8.6464 14.1198 8.40227C14.0096 8.15813 13.841 7.94484 13.629 7.78116C13.1526 7.45021 12.5805 7.28539 12.001 7.31216C11.469 7.24274 10.9299 7.36797 10.4829 7.66476C10.036 7.96155 9.7114 8.4099 9.569 8.92716L8.625 8.40016C8.84261 7.72024 9.3005 7.1429 9.913 6.77616C10.5448 6.40322 11.2674 6.21219 12.001 6.22416C12.8642 6.19974 13.7094 6.47382 14.394 7.00016C14.7194 7.26007 14.9783 7.5937 15.1492 7.97346C15.3201 8.35323 15.3982 8.76824 15.377 9.18416C15.3801 9.63056 15.2704 10.0705 15.058 10.4632C14.8552 10.8443 14.5959 11.1925 14.289 11.4962C13.9903 11.7902 13.6903 12.0808 13.389 12.3682C13.0853 12.6623 12.8263 12.9992 12.62 13.3682C12.41 13.7361 12.3 14.1525 12.301 14.5762H11.186ZM12.369 17.5202C12.2244 17.6668 12.0334 17.7587 11.8285 17.7801C11.6237 17.8016 11.4178 17.7512 11.2459 17.6377C11.0741 17.5242 10.947 17.3545 10.8864 17.1577C10.8258 16.9608 10.8354 16.7491 10.9135 16.5585C10.9917 16.368 11.1336 16.2105 11.315 16.113C11.4964 16.0154 11.706 15.9839 11.9081 16.0238C12.1101 16.0636 12.2921 16.1724 12.4228 16.3315C12.5536 16.4906 12.625 16.6902 12.625 16.8962C12.627 17.0121 12.6053 17.1272 12.5613 17.2345C12.5173 17.3418 12.4518 17.439 12.369 17.5202Z" fill="#888888"/>
</svg>
