<svg width="36" height="25" viewBox="0 0 36 25" fill="none" xmlns="http://www.w3.org/2000/svg">
<g clip-path="url(#clip0)">
<path d="M33.0273 0.799988C33.4782 0.799988 33.9106 0.979101 34.2294 1.29791C34.5482 1.61672 34.7274 2.04913 34.7274 2.5V22.5C34.7274 22.9509 34.5482 23.3832 34.2294 23.7021C33.9106 24.0209 33.4782 24.2 33.0273 24.2H3.02734C2.57648 24.2 2.14407 24.0209 1.82526 23.7021C1.50644 23.3832 1.32733 22.9509 1.32733 22.5V2.5C1.32733 2.04913 1.50644 1.61672 1.82526 1.29791C2.14407 0.979101 2.57648 0.799988 3.02734 0.799988H33.0273ZM33.0273 0H3.02734C2.3643 0 1.72842 0.263367 1.25958 0.732208C0.790742 1.20105 0.527344 1.83696 0.527344 2.5V22.5C0.527344 23.163 0.790742 23.7989 1.25958 24.2678C1.72842 24.7366 2.3643 25 3.02734 25H33.0273C33.6904 25 34.3263 24.7366 34.7951 24.2678C35.2639 23.7989 35.5273 23.163 35.5273 22.5V2.5C35.5273 1.83696 35.2639 1.20105 34.7951 0.732208C34.3263 0.263367 33.6904 0 33.0273 0Z" fill="#F6F6F6"/>
<path d="M29.3803 15.0856V14.8086H29.3083L29.2243 14.9996L29.1414 14.8086H29.0684V15.0856H29.1193V14.8766L29.1983 15.0576H29.2513L29.3293 14.8766V15.0856H29.3803ZM28.9213 15.0856V14.8556H29.0143V14.8096H28.7773V14.8556H28.8704V15.0856H28.9213Z" fill="#0099DF"/>
<path d="M21.1564 16.2753H14.8984V5.0293H21.1564V16.2753Z" fill="#6C6BBD"/>
<path d="M15.3006 10.652C15.2995 9.56889 15.5449 8.49973 16.0182 7.52551C16.4916 6.5513 17.1804 5.69759 18.0326 5.02902C16.9775 4.19975 15.7104 3.68402 14.3761 3.54083C13.0418 3.39764 11.6941 3.63275 10.4871 4.21927C9.28008 4.80579 8.26244 5.72007 7.55048 6.85761C6.83851 7.99514 6.46094 9.31004 6.46094 10.652C6.46094 11.994 6.83851 13.3089 7.55048 14.4464C8.26244 15.5839 9.28008 16.4982 10.4871 17.0847C11.6941 17.6713 13.0418 17.9064 14.3761 17.7632C15.7104 17.62 16.9775 17.1043 18.0326 16.275C17.1805 15.6064 16.4918 14.7526 16.0184 13.7784C15.5451 12.8042 15.2996 11.7351 15.3006 10.652Z" fill="#EB001B"/>
<path d="M29.5983 10.6515C29.5982 11.9934 29.2207 13.3081 28.5087 14.4456C27.7968 15.583 26.7792 16.4972 25.5723 17.0837C24.3654 17.6702 23.0179 17.9053 21.6837 17.7623C20.3494 17.6192 19.0824 17.1036 18.0273 16.2745C18.8786 15.6052 19.5668 14.7513 20.04 13.7772C20.5132 12.8032 20.7591 11.7344 20.7591 10.6515C20.7591 9.5686 20.5132 8.49982 20.04 7.52577C19.5668 6.55173 18.8786 5.69786 18.0273 5.02852C19.0824 4.19942 20.3494 3.68388 21.6837 3.54079C23.0179 3.39769 24.3654 3.63281 25.5723 4.21931C26.7792 4.80581 27.7968 5.72004 28.5087 6.85747C29.2207 7.9949 29.5982 9.30964 29.5983 10.6515Z" fill="#0099DF"/>
<path d="M23.2683 19.4508C23.3686 19.4512 23.468 19.4688 23.5623 19.5028L23.4353 19.8918C23.3529 19.8592 23.2649 19.8432 23.1763 19.8448C22.9063 19.8448 22.7763 20.0188 22.7763 20.3328V21.3978H22.3633V19.4978H22.7723V19.7288C22.8228 19.6416 22.8959 19.5696 22.9839 19.5205C23.0719 19.4714 23.1715 19.447 23.2723 19.4498L23.2683 19.4508ZM21.7453 19.8748H21.0703V20.7328C21.0703 20.9238 21.1373 21.0508 21.3443 21.0508C21.473 21.0464 21.5986 21.0096 21.7093 20.9438L21.8283 21.2968C21.6738 21.394 21.4948 21.4453 21.3123 21.4448C20.8233 21.4448 20.6533 21.1818 20.6533 20.7448V19.8788H20.2673V19.5018H20.6533V18.9258H21.0703V19.5018H21.7453V19.8748ZM16.4573 20.2808C16.4645 20.1541 16.5207 20.0352 16.614 19.9491C16.7073 19.8631 16.8304 19.8167 16.9573 19.8198C17.0191 19.8184 17.0806 19.8293 17.1382 19.8518C17.1957 19.8742 17.2484 19.9079 17.2929 19.9507C17.3375 19.9935 17.3732 20.0447 17.398 20.1013C17.4228 20.158 17.4361 20.219 17.4373 20.2808H16.4573ZM17.8723 20.4468C17.8847 20.3208 17.8706 20.1936 17.8311 20.0734C17.7916 19.9531 17.7275 19.8424 17.6428 19.7483C17.5581 19.6542 17.4548 19.5788 17.3393 19.5269C17.2239 19.475 17.0989 19.4477 16.9723 19.4468C16.7213 19.4696 16.4881 19.5864 16.3195 19.7737C16.1509 19.9611 16.0593 20.2052 16.0629 20.4572C16.0666 20.7092 16.1653 20.9506 16.3393 21.133C16.5133 21.3153 16.7497 21.4253 17.0013 21.4408C17.2845 21.451 17.5616 21.3563 17.7793 21.1748L17.5793 20.8688C17.4228 20.9953 17.2285 21.0657 17.0273 21.0688C16.8908 21.0801 16.7552 21.0379 16.6493 20.9511C16.5433 20.8643 16.4752 20.7398 16.4593 20.6038H17.8693C17.8743 20.5518 17.8783 20.5038 17.8783 20.4448L17.8723 20.4468ZM19.6933 19.9808C19.5132 19.8767 19.3093 19.8206 19.1013 19.8178C18.8753 19.8178 18.7403 19.9008 18.7403 20.0398C18.7403 20.1788 18.8833 20.2028 19.0613 20.2268L19.2613 20.2538C19.6743 20.3148 19.9243 20.4888 19.9243 20.8228C19.9243 21.1838 19.6063 21.4428 19.0583 21.4428C18.7649 21.4508 18.4767 21.3642 18.2363 21.1958L18.4363 20.8738C18.6184 21.0098 18.8411 21.0803 19.0683 21.0738C19.3493 21.0738 19.5003 20.9908 19.5003 20.8428C19.5003 20.7368 19.3933 20.6768 19.1673 20.6428L18.9673 20.6148C18.5423 20.5548 18.3113 20.3648 18.3113 20.0548C18.3113 19.6778 18.6223 19.4468 19.1023 19.4468C19.3741 19.4378 19.6428 19.5072 19.8763 19.6468L19.6933 19.9808ZM24.7933 19.8408C24.7122 19.8402 24.6317 19.8551 24.5563 19.8848C24.4853 19.9134 24.421 19.9563 24.3673 20.0108C24.313 20.0661 24.2701 20.1317 24.2413 20.2038C24.1802 20.3648 24.1802 20.5427 24.2413 20.7038C24.2704 20.7756 24.3132 20.8412 24.3673 20.8968C24.4211 20.9509 24.4854 20.9935 24.5563 21.0218C24.7086 21.0817 24.878 21.0817 25.0303 21.0218C25.1015 20.9935 25.1661 20.9509 25.2203 20.8968C25.275 20.8415 25.3182 20.7759 25.3473 20.7038C25.4084 20.5427 25.4084 20.3648 25.3473 20.2038C25.3185 20.1315 25.2752 20.0659 25.2203 20.0108C25.1662 19.9563 25.1015 19.9134 25.0303 19.8848C24.9548 19.8551 24.8744 19.8402 24.7933 19.8408ZM24.7933 19.4478C24.9333 19.4466 25.0723 19.4727 25.2023 19.5248C25.3236 19.5733 25.4344 19.645 25.5283 19.7358C25.6201 19.8267 25.6931 19.9347 25.7433 20.0538C25.847 20.3103 25.847 20.5972 25.7433 20.8538C25.6933 20.9738 25.6196 21.0825 25.5267 21.1734C25.4337 21.2643 25.3234 21.3355 25.2023 21.3828C24.939 21.4841 24.6475 21.4841 24.3843 21.3828C24.2635 21.3354 24.1535 21.2641 24.0609 21.1732C23.9682 21.0823 23.8949 20.9737 23.8453 20.8538C23.7401 20.5975 23.7401 20.3101 23.8453 20.0538C23.8949 19.9339 23.9682 19.8252 24.0609 19.7343C24.1535 19.6434 24.2635 19.5721 24.3843 19.5248C24.5143 19.4726 24.6532 19.4465 24.7933 19.4478ZM14.0543 20.4478C14.0607 20.3358 14.0998 20.2281 14.1667 20.138C14.2336 20.0479 14.3253 19.9794 14.4307 19.9408C14.5361 19.9023 14.6504 19.8953 14.7596 19.921C14.8688 19.9466 14.9682 20.0036 15.0454 20.085C15.1227 20.1663 15.1744 20.2685 15.1942 20.379C15.2141 20.4894 15.2012 20.6032 15.1572 20.7064C15.1132 20.8096 15.04 20.8977 14.9465 20.9597C14.8531 21.0218 14.7435 21.0552 14.6313 21.0558C14.5525 21.0569 14.4744 21.0417 14.4018 21.0112C14.3292 20.9806 14.2638 20.9353 14.2096 20.8782C14.1554 20.8211 14.1136 20.7533 14.0869 20.6793C14.0601 20.6052 14.049 20.5264 14.0543 20.4478ZM15.5923 20.4478V19.4988H15.1793V19.7298C15.1088 19.6387 15.0176 19.5659 14.9132 19.5174C14.8088 19.4688 14.6943 19.446 14.5793 19.4508C14.3269 19.4687 14.0908 19.5815 13.9183 19.7666C13.7459 19.9517 13.65 20.1953 13.65 20.4483C13.65 20.7013 13.7459 20.9448 13.9183 21.1299C14.0908 21.315 14.3269 21.4279 14.5793 21.4458C14.6943 21.4505 14.8088 21.4277 14.9132 21.3792C15.0176 21.3306 15.1088 21.2578 15.1793 21.1668V21.3978H15.5923V20.4478ZM13.2643 21.3978V20.2058C13.2713 20.1056 13.2568 20.0051 13.222 19.9109C13.1871 19.8168 13.1325 19.7311 13.0619 19.6597C12.9913 19.5882 12.9064 19.5327 12.8126 19.4966C12.7189 19.4606 12.6185 19.445 12.5183 19.4508C12.3869 19.4422 12.2556 19.4691 12.1381 19.5285C12.0206 19.588 11.9212 19.6778 11.8503 19.7888C11.7855 19.6813 11.6931 19.5932 11.5826 19.5338C11.4721 19.4743 11.3477 19.4457 11.2223 19.4508C11.1131 19.4454 11.0044 19.4686 10.9069 19.518C10.8094 19.5675 10.7265 19.6415 10.6663 19.7328V19.4988H10.2383V21.3988H10.6553V20.3448C10.647 20.2801 10.653 20.2145 10.6729 20.1524C10.6928 20.0904 10.7262 20.0334 10.7705 19.9857C10.8149 19.938 10.8693 19.9006 10.9297 19.8763C10.9902 19.8519 11.0552 19.8411 11.1203 19.8448C11.3943 19.8448 11.5333 20.0228 11.5333 20.3448V21.4018H11.9503V20.3448C11.9427 20.2803 11.9492 20.2149 11.9694 20.1531C11.9896 20.0914 12.0229 20.0348 12.0672 19.9872C12.1114 19.9397 12.1654 19.9023 12.2256 19.8777C12.2857 19.8531 12.3504 19.8418 12.4153 19.8448C12.6973 19.8448 12.8323 20.0228 12.8323 20.3448V21.4018L13.2643 21.3978Z" fill="#231F20"/>
<path d="M26.252 21.2551V21.3011H26.295C26.3031 21.3015 26.3111 21.2995 26.318 21.2951C26.3209 21.2933 26.3232 21.2908 26.3248 21.2878C26.3264 21.2848 26.3271 21.2815 26.327 21.2781C26.3272 21.2746 26.3265 21.2711 26.3249 21.2679C26.3233 21.2647 26.321 21.262 26.318 21.2601C26.311 21.2561 26.303 21.2544 26.295 21.2551H26.252ZM26.295 21.2221C26.3136 21.2208 26.332 21.2261 26.347 21.2371C26.353 21.2421 26.3577 21.2484 26.3608 21.2555C26.364 21.2626 26.3654 21.2704 26.365 21.2781C26.3653 21.2848 26.3642 21.2914 26.3618 21.2976C26.3594 21.3038 26.3557 21.3094 26.351 21.3141C26.3391 21.3241 26.3244 21.33 26.309 21.3311L26.367 21.3971H26.322L26.269 21.3311H26.252V21.3971H26.214V21.2221H26.295ZM26.2839 21.4571C26.3035 21.457 26.3228 21.4533 26.341 21.4461C26.358 21.4381 26.3736 21.4273 26.387 21.4141C26.4006 21.4009 26.4112 21.3849 26.418 21.3671C26.4259 21.3492 26.43 21.3297 26.43 21.3101C26.43 21.2905 26.4259 21.2711 26.418 21.2531C26.411 21.2355 26.4004 21.2195 26.387 21.2061C26.3738 21.1929 26.3581 21.1824 26.341 21.1751C26.3229 21.1675 26.3035 21.1637 26.2839 21.1641C26.2641 21.1636 26.2443 21.1674 26.226 21.1751C26.2084 21.1822 26.1924 21.1927 26.179 21.2061C26.1656 21.2195 26.155 21.2355 26.148 21.2531C26.1333 21.2897 26.1333 21.3305 26.148 21.3671C26.1547 21.3849 26.1653 21.4009 26.179 21.4141C26.192 21.4275 26.2075 21.4382 26.2247 21.4456C26.2418 21.4529 26.2603 21.4569 26.279 21.4571H26.2839ZM26.279 21.1211C26.3044 21.1208 26.3296 21.126 26.353 21.1361C26.376 21.1458 26.3971 21.1597 26.415 21.1771C26.4323 21.1943 26.4462 21.2147 26.456 21.2371C26.466 21.2601 26.4711 21.285 26.471 21.3101C26.4712 21.3352 26.4662 21.3601 26.456 21.3831C26.4462 21.4055 26.4323 21.4259 26.415 21.4431C26.3971 21.4605 26.376 21.4744 26.353 21.4841C26.3296 21.4943 26.3044 21.4994 26.279 21.4991C26.2529 21.4993 26.227 21.4942 26.203 21.4841C26.1801 21.4746 26.1594 21.4607 26.142 21.4431C26.1243 21.4262 26.1104 21.4057 26.101 21.3831C26.0908 21.3601 26.0857 21.3352 26.0859 21.3101C26.086 21.2853 26.091 21.2608 26.1007 21.238C26.1103 21.2152 26.1243 21.1945 26.142 21.1771C26.1594 21.1595 26.1801 21.1456 26.203 21.1361C26.227 21.1261 26.2529 21.1209 26.279 21.1211Z" fill="#231F20"/>
</g>
<defs>
<clipPath id="clip0">
<rect width="34.999" height="25" fill="white" transform="translate(0.527344)"/>
</clipPath>
</defs>
</svg>
