<svg width="36" height="25" viewBox="0 0 36 25" fill="none" xmlns="http://www.w3.org/2000/svg">
<g clip-path="url(#clip0)">
<path d="M33.0273 0.799988C33.2506 0.799988 33.4717 0.843949 33.6779 0.929382C33.8842 1.01482 34.0716 1.14005 34.2294 1.29791C34.3873 1.45577 34.5125 1.64317 34.598 1.84943C34.6834 2.05568 34.7274 2.27675 34.7274 2.5V22.5C34.7274 22.7232 34.6834 22.9443 34.598 23.1505C34.5125 23.3568 34.3873 23.5442 34.2294 23.7021C34.0716 23.8599 33.8842 23.9852 33.6779 24.0706C33.4717 24.156 33.2506 24.2 33.0273 24.2H3.02734C2.57648 24.2 2.14407 24.0209 1.82526 23.7021C1.50644 23.3832 1.32733 22.9509 1.32733 22.5V2.5C1.32733 2.04913 1.50644 1.61672 1.82526 1.29791C2.14407 0.979101 2.57648 0.799988 3.02734 0.799988H33.0273ZM33.0273 0H3.02734C2.3643 0 1.72842 0.263367 1.25958 0.732208C0.790742 1.20105 0.527344 1.83696 0.527344 2.5V22.5C0.527344 23.163 0.790742 23.7989 1.25958 24.2678C1.72842 24.7366 2.3643 25 3.02734 25H33.0273C33.6904 25 34.3263 24.7366 34.7951 24.2678C35.2639 23.7989 35.5273 23.163 35.5273 22.5V2.5C35.5273 1.83696 35.2639 1.20105 34.7951 0.732208C34.3263 0.263367 33.6904 0 33.0273 0Z" fill="#F6F6F6"/>
<path fill-rule="evenodd" clip-rule="evenodd" d="M29.2797 8.40835H23.8438C24.0195 9.35278 24.5064 10.2112 25.2269 10.8466C25.9473 11.4821 26.8597 11.8579 27.8187 11.9143H32.1437C32.1917 11.7236 32.2112 11.5268 32.2017 11.3303C32.2056 10.9455 32.1327 10.5638 31.9872 10.2076C31.8418 9.85131 31.6267 9.52763 31.3546 9.25552C31.0824 8.98341 30.7588 8.76833 30.4025 8.62286C30.0463 8.47739 29.6645 8.40447 29.2797 8.40835Z" fill="url(#paint0_linear)"/>
<path fill-rule="evenodd" clip-rule="evenodd" d="M24.3125 12.207V16.59H26.9425V14.252H29.2805C29.8961 14.2469 30.4942 14.046 30.9881 13.6783C31.482 13.3107 31.846 12.7954 32.0275 12.207H24.3125Z" fill="#4DB45F"/>
<path fill-rule="evenodd" clip-rule="evenodd" d="M14.9609 8.4082V16.5902H17.2979C17.4829 16.58 17.6618 16.5204 17.816 16.4178C17.9703 16.3151 18.0942 16.173 18.1749 16.0062L20.2209 11.9142H20.5129V16.5902H23.1429V8.4082H20.8049C20.6244 8.43355 20.452 8.49918 20.3004 8.60028C20.1487 8.70138 20.0218 8.83533 19.929 8.99219L17.8829 13.0832H17.5909V8.4082H14.9609Z" fill="#4DB45F"/>
<path fill-rule="evenodd" clip-rule="evenodd" d="M3.85547 16.5902V8.4082H6.48547C6.48547 8.4082 7.24542 8.4082 7.65442 9.5762C8.70642 12.6762 8.82343 13.0832 8.82343 13.0832C8.82343 13.0832 9.05743 12.3232 9.99243 9.5762C10.4014 8.4082 11.1614 8.4082 11.1614 8.4082H13.7914V16.5902H11.1614V12.2072H10.8685L9.40747 16.5902H8.23846L6.77747 12.2072H6.48547V16.5902H3.85547Z" fill="#4DB45F"/>
</g>
<defs>
<linearGradient id="paint0_linear" x1="23.827" y1="14.8069" x2="32.2041" y2="14.8069" gradientUnits="userSpaceOnUse">
<stop stop-color="#00B4E6"/>
<stop offset="1" stop-color="#088CCB"/>
</linearGradient>
<clipPath id="clip0">
<rect width="35" height="25" fill="white" transform="translate(0.527344)"/>
</clipPath>
</defs>
</svg>
