<svg width="48" height="48" viewBox="0 0 48 48" fill="none" xmlns="http://www.w3.org/2000/svg">
<path d="M24 48C37.2548 48 48 37.2548 48 24C48 10.7452 37.2548 0 24 0C10.7452 0 0 10.7452 0 24C0 37.2548 10.7452 48 24 48Z" fill="#F6F6F6"/>
<path fill-rule="evenodd" clip-rule="evenodd" d="M14.4492 15.4444C14.4492 13.5416 15.9908 12 17.8937 12H26.6594C27.5727 12 28.4491 12.3635 29.0948 13.0091L32.5512 16.4656C33.1969 17.1112 33.5603 17.9876 33.5603 18.9009V32.5556C33.5603 34.4584 32.0187 36 30.1159 36H17.8937C15.9908 36 14.4492 34.4584 14.4492 32.5556V15.4444ZM17.8937 14C17.0954 14 16.4492 14.6462 16.4492 15.4444V32.5556C16.4492 33.3538 17.0954 34 17.8937 34H30.1159C30.9142 34 31.5603 33.3538 31.5603 32.5556V18.9009C31.5603 18.5186 31.408 18.1508 31.137 17.8798L27.6806 14.4233C27.4095 14.1523 27.0417 14 26.6594 14H17.8937Z" fill="#888888"/>
<path fill-rule="evenodd" clip-rule="evenodd" d="M26.4492 12C27.0015 12 27.4492 12.4477 27.4492 13V17.8889C27.4492 18.0113 27.5491 18.1111 27.6714 18.1111H32.5603C33.1126 18.1111 33.5603 18.5588 33.5603 19.1111C33.5603 19.6634 33.1126 20.1111 32.5603 20.1111H27.6714C26.4445 20.1111 25.4492 19.1158 25.4492 17.8889V13C25.4492 12.4477 25.8969 12 26.4492 12Z" fill="#888888"/>
<path fill-rule="evenodd" clip-rule="evenodd" d="M20.2794 29.3451C21.1009 28.584 22.1805 28.1602 23.3014 28.1602H24.7045C25.8264 28.1602 26.9046 28.5847 27.7266 29.3453L27.0528 30.0736L27.7266 29.3453C28.2124 29.7948 28.5925 30.3483 28.8372 30.9639C29.0412 31.4772 28.7905 32.0586 28.2773 32.2626C27.764 32.4665 27.1826 32.2158 26.9786 31.7026C26.8444 31.3649 26.6354 31.0604 26.3683 30.8133M26.3683 30.8132C25.9143 30.3932 25.3206 30.1602 24.7045 30.1602H23.3014C22.6847 30.1602 22.0903 30.3936 21.6382 30.8126L20.9584 30.0793L21.6364 30.8143C21.3699 31.0601 21.1619 31.3638 21.0272 31.7026C20.8232 32.2158 20.2418 32.4665 19.7286 32.2626C19.2154 32.0586 18.9646 31.4772 19.1686 30.9639C19.4127 30.3498 19.791 29.7958 20.2794 29.3451" fill="#888888"/>
<path fill-rule="evenodd" clip-rule="evenodd" d="M24.7029 23.5701C24.3178 23.185 23.6935 23.185 23.3084 23.5701L23.3084 23.5701C22.9233 23.9552 22.9233 24.5795 23.3084 24.9647L22.6012 25.6718L23.3084 24.9647C23.6935 25.3497 24.3178 25.3498 24.7029 24.9647L25.3728 25.6345L24.7029 24.9646C25.088 24.5796 25.088 23.9552 24.7029 23.5701ZM26.1171 22.1559C24.951 20.9897 23.0603 20.9897 21.8941 22.1559L26.1171 22.1559ZM26.1171 22.1559C27.2833 23.322 27.2833 25.2127 26.1171 26.3789C24.951 27.545 23.0603 27.545 21.8941 26.3789C20.728 25.2127 20.728 23.322 21.8941 22.1559" fill="#888888"/>
</svg>
