<svg width="48" height="48" viewBox="0 0 48 48" fill="none" xmlns="http://www.w3.org/2000/svg">
<path d="M24 48C37.2548 48 48 37.2548 48 24C48 10.7452 37.2548 0 24 0C10.7452 0 0 10.7452 0 24C0 37.2548 10.7452 48 24 48Z" fill="#E8F8FE"/>
<path fill-rule="evenodd" clip-rule="evenodd" d="M25.2296 17.5859L30.4143 22.7706L18.1816 35.0032L13.1033 34.9657L12.991 29.8246L25.2296 17.5859ZM15.0091 30.6348L15.0604 32.9801L17.3593 32.9971L27.5858 22.7706L25.2296 20.4144L15.0091 30.6348Z" fill="#00ADEF"/>
<path fill-rule="evenodd" clip-rule="evenodd" d="M31.1697 21.9707L26.0241 16.8251L28.9903 13.8589C29.3293 13.5199 29.7891 13.3294 30.2686 13.3294C30.748 13.3294 31.2078 13.5199 31.5468 13.8589L34.1359 16.448C34.4749 16.787 34.6654 17.2468 34.6654 17.7262C34.6654 18.2057 34.4749 18.6655 34.1359 19.0045L31.1697 21.9707ZM31.1697 19.1423L32.5857 17.7262L30.2686 15.4091L28.8525 16.8251L31.1697 19.1423Z" fill="#00ADEF"/>
</svg>
