<svg width="64" height="64" viewBox="0 0 64 64" fill="none" xmlns="http://www.w3.org/2000/svg">
<rect x="36" y="6" width="24" height="30" rx="3" stroke="#888888" stroke-width="2"/>
<path d="M39 21H57" stroke="#888888"/>
<path d="M49.5078 27L57 27" stroke="#888888"/>
<path d="M49.5078 29.5059L57 29.5059" stroke="#888888"/>
<path d="M43.7282 24.4699C44.3452 25.0963 44.3452 26.112 43.7282 26.7385C43.1113 27.365 42.111 27.365 41.494 26.7385C40.877 26.112 40.877 25.0963 41.494 24.4699C42.111 23.8434 43.1113 23.8434 43.7282 24.4699" stroke="#888888" stroke-linecap="round" stroke-linejoin="round"/>
<path fill-rule="evenodd" clip-rule="evenodd" d="M39 30.8759V31.3342C39 31.5872 39.2022 31.7926 39.4514 31.7926H45.7708C46.02 31.7926 46.2222 31.5872 46.2222 31.3342V30.8759C46.2222 29.489 44.4383 28.5879 42.6111 28.5879C40.7839 28.5879 39 29.489 39 30.8759Z" stroke="#888888" stroke-linecap="round" stroke-linejoin="round"/>
<path d="M25.5581 24.2414C28.3487 27.032 28.3487 31.5565 25.5581 34.3471C22.7675 37.1378 18.243 37.1378 15.4523 34.3471C12.6617 31.5565 12.6617 27.032 15.4523 24.2414C18.243 21.4508 22.7675 21.4508 25.5581 24.2414" stroke="#888888" stroke-width="2" stroke-linecap="round" stroke-linejoin="round"/>
<path fill-rule="evenodd" clip-rule="evenodd" d="M4.17188 52.776V54.8177C4.17188 55.9447 5.08654 56.8593 6.21354 56.8593H34.7969C35.9239 56.8593 36.8385 55.9447 36.8385 54.8177V52.776C36.8385 46.5979 28.7699 42.584 20.5052 42.584C12.2405 42.584 4.17188 46.5979 4.17188 52.776Z" stroke="#888888" stroke-width="2" stroke-linecap="round" stroke-linejoin="round"/>
</svg>
