<svg width="48" height="48" viewBox="0 0 48 48" fill="none" xmlns="http://www.w3.org/2000/svg">
<path d="M24 48C37.2548 48 48 37.2548 48 24C48 10.7452 37.2548 0 24 0C10.7452 0 0 10.7452 0 24C0 37.2548 10.7452 48 24 48Z" fill="#F6F6F6"/>
<path fill-rule="evenodd" clip-rule="evenodd" d="M16.9701 13.3877C18.3647 12.7216 19.9314 12.5038 21.4548 12.7642C22.9781 13.0247 24.3835 13.7506 25.4775 14.8422L24.7712 15.5501L25.4844 14.8491C26.4187 15.7997 27.0816 16.983 27.4044 18.2762C27.6779 19.3721 27.6988 20.513 27.4688 21.6135L34.07 28.2147C34.8421 28.9905 35.2756 30.0405 35.2756 31.1351C35.2756 32.2294 34.8423 33.2792 34.0704 34.055C33.6866 34.4412 33.2302 34.7477 32.7275 34.9568C32.2248 35.1659 31.6857 35.2736 31.1412 35.2736C30.5967 35.2736 30.0576 35.1659 29.5549 34.9568C29.0527 34.7479 28.5967 34.4418 28.2131 34.0562C28.2127 34.0558 28.2123 34.0554 28.2119 34.055L21.6054 27.4485C20.4042 27.6759 19.1622 27.6051 17.9897 27.2382C16.6274 26.8118 15.4161 26.0036 14.4994 24.9094C13.5827 23.8153 12.9992 22.4811 12.8181 21.0652C12.637 19.6493 12.8659 18.2112 13.4777 16.9215C13.617 16.6278 13.8904 16.4201 14.2108 16.3647C14.5311 16.3093 14.8584 16.4131 15.0883 16.643L18.9651 20.5198L20.2011 20.1184L20.586 18.8891L16.6941 14.9972C16.4645 14.7676 16.3607 14.441 16.4156 14.121C16.4705 13.8011 16.6772 13.5277 16.9701 13.3877ZM32.6524 32.6447C33.0515 32.2436 33.2756 31.7009 33.2756 31.1351C33.2756 30.5697 33.0518 30.0273 32.6533 29.6264C32.653 29.6261 32.6527 29.6258 32.6524 29.6255L25.6541 22.6272C25.3949 22.368 25.2983 21.9879 25.4022 21.6365C25.679 20.7005 25.7003 19.7076 25.464 18.7606C25.228 17.8152 24.7437 16.95 24.0614 16.2545C23.2604 15.4567 22.2322 14.9261 21.1177 14.7356C20.5001 14.63 19.8727 14.6317 19.2624 14.737L22.4283 17.903C22.6914 18.1661 22.7867 18.5537 22.6755 18.9088L21.9555 21.2088C21.8587 21.518 21.6181 21.7612 21.31 21.8612L19 22.6112C18.6424 22.7273 18.2499 22.633 17.9841 22.3672L14.8329 19.2161C14.745 19.7408 14.7337 20.2783 14.8019 20.8114C14.9345 21.8477 15.3616 22.8242 16.0325 23.6251C16.7034 24.4259 17.59 25.0174 18.5871 25.3295C19.5841 25.6415 20.6497 25.6609 21.6575 25.3855C22.0039 25.2908 22.3744 25.3891 22.6283 25.643L29.6304 32.6451C29.8284 32.8443 30.0638 33.0024 30.3231 33.1102C30.5823 33.2181 30.8604 33.2736 31.1412 33.2736C31.422 33.2736 31.7 33.2181 31.9593 33.1102C32.2186 33.0024 32.4544 32.8438 32.6524 32.6447Z" fill="#888888"/>
</svg>
