<svg width="36" height="25" viewBox="0 0 36 25" fill="none" xmlns="http://www.w3.org/2000/svg">
<g clip-path="url(#clip0)">
<path d="M33.0273 0.799988C33.4782 0.799988 33.9106 0.979101 34.2294 1.29791C34.5482 1.61672 34.7274 2.04913 34.7274 2.5V22.5C34.7274 22.9509 34.5482 23.3833 34.2294 23.7021C33.9106 24.0209 33.4782 24.2 33.0273 24.2H3.02734C2.57648 24.2 2.14407 24.0209 1.82526 23.7021C1.50644 23.3833 1.32733 22.9509 1.32733 22.5V2.5C1.32733 2.04913 1.50644 1.61672 1.82526 1.29791C2.14407 0.979101 2.57648 0.799988 3.02734 0.799988H33.0273ZM33.0273 0H3.02734C2.3643 0 1.72842 0.263398 1.25958 0.732239C0.790742 1.20108 0.527344 1.83696 0.527344 2.5V22.5C0.527344 23.163 0.790742 23.7989 1.25958 24.2678C1.72842 24.7366 2.3643 25 3.02734 25H33.0273C33.6904 25 34.3263 24.7366 34.7951 24.2678C35.2639 23.7989 35.5273 23.163 35.5273 22.5V2.5C35.5273 1.83696 35.2639 1.20108 34.7951 0.732239C34.3263 0.263398 33.6904 0 33.0273 0Z" fill="#F6F6F6"/>
<path fill-rule="evenodd" clip-rule="evenodd" d="M14.3835 16.2241L15.6275 8.80105H17.6135L16.3715 16.228L14.3835 16.2241ZM23.5765 8.97906C23.0065 8.76991 22.4037 8.66458 21.7965 8.66805C19.8315 8.66805 18.4495 9.67607 18.4375 11.1191C18.4255 12.1861 19.4245 12.782 20.1775 13.137C20.9515 13.5 21.2115 13.7371 21.2085 14.0581C21.2035 14.5581 20.5905 14.784 20.0195 14.784C19.3738 14.8033 18.7327 14.6696 18.1485 14.3941L17.8935 14.2761L17.6155 15.9381C18.3225 16.2056 19.0726 16.3412 19.8285 16.3381C21.9155 16.3381 23.2725 15.343 23.2885 13.801C23.2955 12.955 22.7655 12.3131 21.6195 11.7831C20.9255 11.4391 20.4995 11.2111 20.5035 10.8621C20.5035 10.5541 20.8635 10.223 21.6415 10.223C22.1509 10.2099 22.6573 10.3047 23.1275 10.5011L23.3065 10.5861L23.5765 8.97906ZM28.6765 8.80505H27.1405C26.9233 8.77745 26.7032 8.82291 26.5147 8.93426C26.3262 9.04561 26.1801 9.21654 26.0995 9.42007L23.1495 16.2271H25.2275C25.2275 16.2271 25.5675 15.3111 25.6445 15.1101H28.1895C28.2485 15.3691 28.4315 16.223 28.4315 16.223H30.2745L28.6765 8.80505ZM26.2255 13.5911C26.3905 13.1641 27.0165 11.5151 27.0165 11.5151C27.0055 11.5351 27.1805 11.0851 27.2805 10.8061L27.4145 11.4471C27.4145 11.4471 27.7965 13.2201 27.8745 13.5911H26.2255ZM12.7165 8.80105L10.7725 13.8651L10.5645 12.8361C10.0665 11.4913 9.08538 10.3804 7.8125 9.72005L9.59149 16.2201H11.6915L14.8275 8.80105H12.7165Z" fill="#00579F"/>
<path fill-rule="evenodd" clip-rule="evenodd" d="M8.93408 8.66723H5.6481L5.62109 8.82724C6.71565 9.04552 7.73974 9.52966 8.60312 10.237C9.4665 10.9443 10.1427 11.853 10.5721 12.8832L9.85809 9.32125C9.81068 9.11812 9.69046 8.93938 9.5202 8.81887C9.34994 8.69836 9.14142 8.64441 8.93408 8.66723Z" fill="#F79510"/>
</g>
<defs>
<clipPath id="clip0">
<rect width="35" height="25" fill="white" transform="translate(0.527344)"/>
</clipPath>
</defs>
</svg>
