<svg width="36" height="25" viewBox="0 0 36 25" fill="none" xmlns="http://www.w3.org/2000/svg">
<g clip-path="url(#clip0)">
<path d="M33.0273 0.799988C33.4782 0.799988 33.9106 0.979101 34.2294 1.29791C34.5482 1.61672 34.7274 2.04913 34.7274 2.5V22.5C34.7274 22.9509 34.5482 23.3832 34.2294 23.7021C33.9106 24.0209 33.4782 24.2 33.0273 24.2H3.02734C2.57648 24.2 2.14407 24.0209 1.82526 23.7021C1.50644 23.3832 1.32733 22.9509 1.32733 22.5V2.5C1.32733 2.04913 1.50644 1.61672 1.82526 1.29791C2.14407 0.979101 2.57648 0.799988 3.02734 0.799988H33.0273ZM33.0273 0H3.02734C2.3643 0 1.72842 0.263367 1.25958 0.732208C0.790742 1.20105 0.527344 1.83696 0.527344 2.5V22.5C0.527344 23.163 0.790742 23.7989 1.25958 24.2678C1.72842 24.7366 2.3643 25 3.02734 25H33.0273C33.6904 25 34.3263 24.7366 34.7951 24.2678C35.2639 23.7989 35.5273 23.163 35.5273 22.5V2.5C35.5273 1.83696 35.2639 1.20105 34.7951 0.732208C34.3263 0.263367 33.6904 0 33.0273 0Z" fill="#F6F6F6"/>
<path fill-rule="evenodd" clip-rule="evenodd" d="M22.9016 15.1845V4.06952C21.8327 3.13029 20.5156 2.51917 19.1082 2.30939C17.7008 2.0996 16.2627 2.30004 14.9663 2.88669C13.6699 3.47334 12.5702 4.42133 11.7988 5.61706C11.0275 6.8128 10.6172 8.20559 10.6172 9.62854C10.6172 11.0515 11.0275 12.4442 11.7988 13.64C12.5702 14.8357 13.6699 15.7837 14.9663 16.3704C16.2627 16.957 17.7008 17.1574 19.1082 16.9477C20.5156 16.7379 21.8327 16.1268 22.9016 15.1875V15.1845Z" fill="#0074B9"/>
<path fill-rule="evenodd" clip-rule="evenodd" d="M21.8835 3.32245H21.6715L20.9825 4.04745L19.8495 2.89844L18.2685 4.44543L17.1445 3.27844L13.9805 6.17844L16.1085 8.44144L15.3835 9.15445L17.2215 11.1654L16.6055 12.0964L19.3055 15.1165L21.0975 13.6104L22.5035 15.1644H22.9245C23.7945 14.4002 24.4723 13.4419 24.9033 12.367C25.3343 11.2922 25.5063 10.131 25.4053 8.97745C25.3044 7.82385 24.9333 6.71021 24.3222 5.72659C23.7111 4.74297 22.877 3.91696 21.8875 3.31543L21.8835 3.32245Z" fill="white"/>
<path fill-rule="evenodd" clip-rule="evenodd" d="M22.0747 13.5516L23.3007 12.2607L24.4837 13.4136L23.3327 14.6266L22.0747 13.5516ZM23.7377 10.0457L24.4247 9.22266L25.1378 10.0377L24.4927 10.9106L23.7377 10.0457ZM20.8568 10.7906L22.1437 9.60764L23.3177 10.8596L22.1038 12.1287L20.8568 10.7906ZM17.8228 12.1847L19.6657 10.6157L21.2117 12.2477L19.6118 13.8477L17.8228 12.1847ZM22.5637 7.53766L23.3137 6.69064L24.2977 7.59064L23.4627 8.40765L22.5637 7.53766ZM19.8387 7.99466L21.0697 6.95065L22.2017 8.00864L21.0957 9.23865L19.8387 7.99466ZM16.6877 9.23965L18.3527 7.70764L19.7777 9.20764L18.2777 10.8907L16.6877 9.23965ZM21.5407 5.00165L22.1777 4.22266L22.9407 4.91364L22.3727 5.69565L21.5407 5.00165ZM18.5468 5.51865L19.8607 4.29865L21.0967 5.47165L19.8387 6.72766L18.5468 5.51865ZM15.3867 6.34766L17.1227 4.78564L18.7477 6.35864L17.0877 7.89264L15.3867 6.34766Z" fill="#0074B9"/>
<path fill-rule="evenodd" clip-rule="evenodd" d="M9.17084 18.9766L9.49182 20.6486L9.56079 21.1136L9.63184 20.6586L9.90485 18.9766H10.4388L10.7268 20.6486L10.8008 21.1136L10.8748 20.6656L11.1988 18.9766H11.7138L11.0308 21.8956H10.5478L10.2548 20.1886L10.1688 19.6246L10.0838 20.1886L9.79083 21.8956H9.3208L8.63281 18.9766H9.17084ZM13.2008 19.7766C13.3299 19.8512 13.4342 19.9621 13.5008 20.0956C13.5747 20.234 13.6212 20.3855 13.6378 20.5416C13.6516 20.6835 13.6566 20.8261 13.6528 20.9686H12.4258C12.4196 21.0523 12.4314 21.1363 12.4606 21.215C12.4897 21.2937 12.5355 21.3652 12.5948 21.4246C12.6605 21.4789 12.7436 21.5076 12.8288 21.5056C12.8729 21.5072 12.9169 21.4991 12.9575 21.4818C12.9981 21.4645 13.0344 21.4385 13.0638 21.4055C13.1018 21.362 13.1313 21.3119 13.1508 21.2576H13.6298C13.6114 21.4004 13.5539 21.5353 13.4638 21.6476C13.3909 21.7495 13.2938 21.8317 13.1812 21.8867C13.0686 21.9417 12.944 21.9678 12.8188 21.9626C12.7059 21.9616 12.5945 21.9375 12.4913 21.8917C12.3881 21.846 12.2953 21.7795 12.2188 21.6966C12.0229 21.4538 11.9293 21.1442 11.9578 20.8336C11.9375 20.5285 12.0206 20.2255 12.1938 19.9736C12.2645 19.8784 12.357 19.8015 12.4634 19.7494C12.5699 19.6972 12.6873 19.6712 12.8058 19.6736C12.9456 19.6718 13.0834 19.7062 13.2058 19.7736L13.2008 19.7766ZM12.5458 20.2635C12.48 20.3629 12.4411 20.4777 12.4328 20.5966H13.1618C13.1632 20.4738 13.1235 20.3541 13.0488 20.2566C13.0183 20.2198 12.9798 20.1904 12.9364 20.1705C12.893 20.1506 12.8456 20.1407 12.7978 20.1416C12.7489 20.1393 12.7003 20.1492 12.6563 20.1705C12.6123 20.1918 12.5743 20.2238 12.5458 20.2635ZM15.6548 19.9926C15.797 20.2315 15.8665 20.5067 15.8548 20.7845C15.8648 21.0755 15.7957 21.3638 15.6548 21.6186C15.6026 21.7193 15.5235 21.8036 15.4262 21.8621C15.3289 21.9205 15.2173 21.9508 15.1038 21.9496C14.9761 21.9557 14.8501 21.9179 14.7468 21.8426C14.6759 21.7794 14.6166 21.7043 14.5718 21.6205V21.8916H14.1128V18.9846H14.5808V20.0226C14.6312 19.9332 14.6993 19.8549 14.7808 19.7926C14.874 19.7235 14.9879 19.6882 15.1038 19.6926C15.215 19.69 15.3247 19.7171 15.4219 19.7711C15.5191 19.825 15.6002 19.9039 15.6568 19.9996L15.6548 19.9926ZM15.2628 21.3076C15.3356 21.1644 15.37 21.0049 15.3628 20.8445C15.3663 20.7158 15.3498 20.5873 15.3138 20.4636C15.2994 20.3817 15.2566 20.3075 15.1932 20.2538C15.1297 20.2001 15.0494 20.1703 14.9663 20.1696C14.8832 20.1689 14.8024 20.1973 14.738 20.2499C14.6737 20.3025 14.6297 20.3759 14.6138 20.4576C14.5775 20.5825 14.561 20.7125 14.5648 20.8426C14.5582 21.0016 14.5926 21.1597 14.6648 21.3015C14.6936 21.3586 14.7383 21.4061 14.7935 21.4384C14.8486 21.4707 14.912 21.4864 14.9758 21.4836C15.0345 21.4838 15.0921 21.4674 15.1418 21.4363C15.1916 21.4051 15.2315 21.3605 15.2568 21.3076H15.2628ZM17.9998 18.9766H18.7278V21.8956H18.2558V19.9216C18.2558 19.8646 18.2558 19.7846 18.2558 19.6826C18.2558 19.5806 18.2558 19.5016 18.2558 19.4456L17.7978 21.8956H17.3058L16.8498 19.4456C16.8498 19.5016 16.8498 19.5806 16.8498 19.6826C16.8498 19.7846 16.8498 19.8646 16.8498 19.9216V21.8956H16.3768V18.9766H17.1138L17.5548 21.2766L17.9998 18.9766ZM20.8238 21.6335C20.7424 21.7388 20.638 21.824 20.5186 21.8826C20.3991 21.9412 20.2679 21.9717 20.1348 21.9717C20.0018 21.9717 19.8705 21.9412 19.751 21.8826C19.6316 21.824 19.5272 21.7388 19.4458 21.6335C19.2973 21.3889 19.2188 21.1082 19.2188 20.8221C19.2188 20.5359 19.2973 20.2552 19.4458 20.0106C19.5264 19.9041 19.6305 19.8177 19.7501 19.7583C19.8696 19.6988 20.0013 19.6679 20.1348 19.6679C20.2683 19.6679 20.4 19.6988 20.5196 19.7583C20.6391 19.8177 20.7432 19.9041 20.8238 20.0106C20.9723 20.2552 21.0508 20.5359 21.0508 20.8221C21.0508 21.1082 20.9723 21.3889 20.8238 21.6335ZM20.4488 21.3216C20.5211 21.1648 20.5585 20.9942 20.5585 20.8216C20.5585 20.6489 20.5211 20.4783 20.4488 20.3216C20.4152 20.2681 20.3687 20.2239 20.3134 20.1934C20.2581 20.1628 20.196 20.1467 20.1328 20.1467C20.0696 20.1467 20.0075 20.1628 19.9523 20.1934C19.897 20.2239 19.8504 20.2681 19.8168 20.3216C19.7439 20.4782 19.7061 20.6488 19.7061 20.8216C19.7061 20.9943 19.7439 21.165 19.8168 21.3216C19.8502 21.3753 19.8967 21.4196 19.952 21.4504C20.0073 21.4811 20.0695 21.4973 20.1328 21.4973C20.1961 21.4973 20.2583 21.4811 20.3136 21.4504C20.3689 21.4196 20.4154 21.3753 20.4488 21.3216ZM23.0028 19.8606C23.1361 20.0237 23.1997 20.2328 23.1798 20.4426V21.8956H22.6998V20.5846C22.7035 20.496 22.6906 20.4074 22.6618 20.3235C22.6419 20.271 22.6055 20.2264 22.5581 20.1963C22.5107 20.1662 22.4548 20.1523 22.3988 20.1566C22.3248 20.1543 22.2521 20.1772 22.1927 20.2215C22.1334 20.2658 22.0908 20.3289 22.0718 20.4005C22.038 20.5068 22.0224 20.6181 22.0258 20.7296V21.8976H21.5588V19.7426H22.0108V20.0576C22.0545 19.9692 22.1123 19.8885 22.1818 19.8186C22.2829 19.7296 22.4143 19.6827 22.5488 19.6876C22.6324 19.6843 22.7158 19.6982 22.7939 19.7282C22.8719 19.7583 22.943 19.804 23.0028 19.8625V19.8606ZM24.8908 19.7805C25.0199 19.8551 25.1243 19.9661 25.1908 20.0995C25.2647 20.238 25.3112 20.3895 25.3278 20.5456C25.3415 20.6875 25.3465 20.8301 25.3428 20.9726H24.1158C24.1096 21.0563 24.1214 21.1403 24.1506 21.219C24.1797 21.2977 24.2255 21.3692 24.2848 21.4286C24.3505 21.4828 24.4336 21.5116 24.5188 21.5096C24.5629 21.5112 24.6068 21.5031 24.6475 21.4858C24.6881 21.4685 24.7244 21.4425 24.7538 21.4095C24.7917 21.366 24.8212 21.3158 24.8408 21.2616H25.3198C25.3014 21.4044 25.2439 21.5393 25.1538 21.6516C25.0809 21.7535 24.9838 21.8357 24.8712 21.8907C24.7586 21.9457 24.634 21.9718 24.5088 21.9666C24.3959 21.9656 24.2845 21.9415 24.1813 21.8957C24.0781 21.85 23.9853 21.7835 23.9088 21.7006C23.7129 21.4578 23.6193 21.1482 23.6478 20.8376C23.6275 20.5325 23.7106 20.2295 23.8838 19.9776C23.9545 19.8824 24.047 19.8055 24.1534 19.7534C24.2599 19.7012 24.3773 19.6752 24.4958 19.6776C24.6355 19.6757 24.7734 19.7102 24.8958 19.7776L24.8908 19.7805ZM24.2358 20.2675C24.17 20.3669 24.1311 20.4817 24.1228 20.6006H24.8518C24.8532 20.4778 24.8135 20.3581 24.7388 20.2606C24.7083 20.2238 24.6698 20.1944 24.6264 20.1745C24.583 20.1546 24.5356 20.1447 24.4878 20.1456C24.4389 20.1433 24.3903 20.1532 24.3463 20.1745C24.3023 20.1958 24.2643 20.2278 24.2358 20.2675ZM25.8948 22.3096H25.9548C25.9986 22.3126 26.0425 22.3106 26.0858 22.3036C26.1227 22.2982 26.1573 22.2826 26.1858 22.2585C26.2233 22.2191 26.2499 22.1705 26.2628 22.1176C26.2802 22.0763 26.29 22.0323 26.2918 21.9875L25.6338 19.7336H26.1548L26.5468 21.3256L26.9168 19.7336H27.4168L26.8018 21.8566C26.7395 22.1207 26.6452 22.3763 26.5208 22.6176C26.4685 22.6736 26.4036 22.7163 26.3314 22.7421C26.2591 22.7678 26.1818 22.7759 26.1058 22.7656H26.0058L25.8918 22.7585L25.8948 22.3096Z" fill="#0074B9"/>
</g>
<defs>
<clipPath id="clip0">
<rect width="35" height="25" fill="white" transform="translate(0.527344)"/>
</clipPath>
</defs>
</svg>
